<?xml version='1.0' encoding='utf-8'?>
<svg xmlns="http://www.w3.org/2000/svg" width="180" height="160" viewBox="790 635 180 160" fill="none"><path fill="#704230" d="M876.506 644.216C895.235 643.4 917.734 651 929.849 665.282C955.232 695.203 945.295 757.873 904.674 769.938C895.236 772.742 880.432 775.949 870.877 775.205C846.107 774.054 807.162 764.502 803.354 735.348C800.57 714.032 800.016 681.738 817.221 665.971C831.868 652.548 857.292 645.165 876.506 644.216Z" /><path fill="#704230" d="M844.725 688.128C851.374 676.534 857.546 671.473 871.045 668.882C884.821 666.238 896.651 666.226 908.623 674.407C908.614 676.18 908.508 678.065 908.893 679.774C908.864 678.205 908.675 677.274 909.459 675.929C915.006 675.25 922.086 692.24 922.004 696.558C921.784 708.175 921.166 718.927 913.996 728.495C904.166 741.612 893.285 748.059 877.172 750.452C875.209 749.729 876.063 750.331 874.822 748.201C871.246 752.961 865.994 752.357 860.834 750.429C859.963 749.961 859.146 749.402 858.226 749.494C853.392 749.617 844.222 747.087 840.131 744.8C825.162 736.434 815.9 721.976 825.096 705.394C830.1 696.37 835.007 691.383 844.725 688.128Z" /><path fill="#FDAB32" d="M844.725 688.128C851.374 676.534 857.546 671.473 871.045 668.882C884.821 666.238 896.651 666.226 908.623 674.407C908.614 676.18 908.508 678.065 908.893 679.774C908.864 678.205 908.675 677.274 909.459 675.929C915.006 675.25 922.086 692.24 922.004 696.558C921.784 708.175 921.166 718.927 913.996 728.495C904.166 741.612 893.285 748.059 877.172 750.452C875.209 749.729 876.063 750.331 874.822 748.201C873.67 747.3 873.805 747.202 873.378 745.752C873.973 745.746 874.822 745.796 875.393 745.684C887.707 743.266 899.941 736.499 907.577 726.59C912.745 719.884 916.592 707.35 915.435 699.362C915.065 697.01 914.661 694.663 914.222 692.322C908.345 682.93 903.548 677.005 891.993 674.504C885.023 672.996 877.516 673.041 870.491 674.061C868.405 674.385 868.042 673.96 867.69 672.016C867.168 673.29 867.221 673.734 867.103 675.1C857.5 678.478 855.749 678.867 850.103 687.855C864.575 685.253 885.426 685.26 888.347 703.95C891.351 723.175 861.862 730.168 850.079 718.743C842.017 710.926 842.67 704.339 841.363 694.681C838.84 695.272 832.173 703.396 830.707 705.824C826.287 713.148 825.248 722.195 828.418 730.181C833.938 735.639 842.599 741.211 850.199 742.88C854.364 743.794 859.061 745.537 863.192 746.01C862.473 747.668 861.94 748.973 860.834 750.429C859.963 749.961 859.146 749.402 858.226 749.494C853.392 749.617 844.222 747.087 840.131 744.8C825.162 736.434 815.9 721.976 825.096 705.394C830.1 696.37 835.007 691.383 844.725 688.128Z" /><path fill="#FAA330" d="M914.222 692.322C916.758 693.455 919.307 695.453 918.648 698.463C917.476 699.269 916.868 699.187 915.435 699.362C915.065 697.01 914.661 694.663 914.222 692.322Z" /><path fill="#704230" d="M858.272 691.179C867.545 691.413 869.415 689.535 878.605 696.114C879.063 697.153 881.828 701.709 881.856 701.856C883.267 709.285 879.193 716.177 871.88 718.319C865.85 719.411 863.031 718.635 856.966 717.738C852.205 712.7 850.317 710.569 848.566 703.892C845.356 691.647 848.128 692.821 858.272 691.179Z" /><path fill="#FDAB32" d="M863.192 746.01C867.839 749.019 867.455 744.841 873.378 745.752C873.805 747.202 873.67 747.3 874.822 748.201C871.246 752.961 865.994 752.357 860.834 750.429C861.94 748.973 862.473 747.668 863.192 746.01Z" /><path fill="#FDAB32" d="M905.762 698.208C911.883 699.735 905.373 717.147 903.078 720.948L901.638 720.177C901.428 718.086 904.561 711.94 905.103 708.781C905.754 704.994 904.576 700.999 905.762 698.208Z" /><path fill="#FDAB32" d="M822.496 666.774L824.225 667.242C825.241 669.364 822.739 670.876 821.226 672.453C812.392 681.66 810.601 692.92 810.01 705.026C807.038 704.284 806.499 702.966 806.811 699.797C808.142 686.248 812.675 676.201 822.496 666.774Z" /><path fill="#FDAB32" d="M913.021 659.167C920.398 661.997 930.24 670.494 932.442 678.322C932.932 680.065 932.269 680.468 931.374 681.816C929.045 680.382 925.374 670.501 921.663 667.925C919.438 666.381 912.551 663.181 911.847 661.014L913.021 659.167Z" /><path fill="#FAA330" d="M810.243 734.693C813.771 736.589 814.731 743.924 817.111 747.408C820.032 751.685 825.376 753.408 824.188 758.868C818.081 755.518 807.617 741.597 810.243 734.693Z" /><path fill="#FAA330" d="M926.673 741.844L927.124 742.421C927.658 747.747 914.536 758.368 909.767 760.127L909.083 758.484C910.419 756.742 914.086 755.132 916.096 753.339C919.921 749.925 922.918 744.934 926.673 741.844Z" /><path fill="#FAA330" d="M865.439 655.173C868.44 654.861 873.967 653.812 875.889 656.39L875.569 657.301C873.187 657.912 865.561 657.646 861.538 658.101C858.758 658.764 855.914 660.35 853.266 659.318L853.597 658.591C858.273 656.035 860.159 656.052 865.439 655.173Z" /><path fill="#FAA330" d="M827.554 672.316C829.366 673.445 828.946 672.703 829.538 674.284C827.753 676.007 825.15 677.641 823.928 679.674C821.982 682.912 820.201 686.606 818.514 689.981C817.734 690.117 817.673 690.029 816.86 689.94L816.553 688.819C817.878 682.893 822.633 675.961 827.554 672.316Z" /><path fill="#FAA330" d="M852.384 766.354C853.427 766.451 857.459 766.941 858.464 767.203C861.566 768.013 873.27 767.689 874.841 769.569L874.39 770.478C869.11 771.117 857.502 771.032 852.619 768.403C852.065 768.105 852.35 766.994 852.384 766.354Z" /><path fill="#FAA330" d="M916.721 669.805C920.901 670.01 922.692 674.236 923.146 677.814C920.545 677.391 917.225 672.293 916.721 669.805Z" /><path fill="#FAA330" d="M869.165 659.909C870.761 660.048 870.719 660.031 872.206 660.615L872.343 661.38L871.423 662.314C869.759 662.17 869.493 662.216 867.879 661.657L867.824 660.924L869.165 659.909Z" /><path fill="#F17033" d="M782.17 663.619C781.607 656.902 783.991 652.828 788.141 647.81C795.254 639.21 795.271 632.667 806.967 630.297C834.027 637.428 807.857 660.762 799.538 670.812C792.276 676.811 784.42 671.896 782.17 663.619Z" /><path fill="#F17033" d="M783.571 660.699L784.327 659.689C788.703 659.092 795.929 664.697 797.646 668.741C798.846 669.563 798.756 669.56 799.538 670.812C792.276 676.811 784.42 671.896 782.17 663.619L783.571 660.699Z" /><path fill="#050303" d="M783.571 660.699L784.327 659.689C788.703 659.092 795.929 664.697 797.646 668.741C796.057 668.554 793.629 665.718 791.994 664.273C790.572 666.448 788.9 668.567 787.327 670.647C787.933 668.132 789.088 666.086 790.228 663.756C788.149 662.717 785.717 661.705 783.571 660.699Z" /><path fill="#050303" d="M804.654 635.723C804.96 635.91 805.44 636.383 805.728 636.644C805.921 638.053 805.905 639.135 806.726 640.266C808.191 640.126 810.772 637.321 812.991 636.115L813.81 636.366L813.949 637.438C812.789 639.255 810.539 639.852 808.285 640.954C810.473 643.455 813.975 648.129 813.33 651.562C812.283 652.305 812.861 652.083 811.491 652.002C810.034 650.067 810.72 647.091 809.022 644.807L808.427 644.967C807.218 646.473 800.685 653.955 800.327 654.691C801.791 656.995 803.024 655.862 804.53 657.976L803.845 658.858L802.773 658.805L798.54 655.611C796.129 657.023 795.299 657.382 792.666 658.34C800.69 649.813 793.686 653.748 792.132 649.471C794.211 647.744 797.487 652.343 798.846 653.9C802.418 650.543 804.98 648.027 807.51 643.826C803.198 641.408 798.997 641.476 797.927 640.532L798.105 639.533C799.53 638.679 801.825 639.598 803.813 640.034L804.451 639.533L804.654 635.723Z" /><path fill="#F17033" d="M955.276 743.356L956.004 743.699C960.286 745.695 964.166 744.576 966.214 745.718C966.274 747.934 960.21 753.437 958.331 755.083C964.981 764.593 955.326 761.383 953.608 767.131C951.209 775.153 956.482 774.888 946.328 778.305L944.676 783.454C940.013 784.665 935.271 785.917 931.047 788.302C930.271 789.05 930.097 789.423 929.642 790.402L929.063 790.11L929.147 791.409L928.897 791.687C929.114 790.066 929.275 789.321 928.892 787.683C927.764 778.68 929.777 770.497 932.941 762.244C941.219 760.577 938.072 757.253 942.366 752.14C943.973 751.889 943.746 752.149 945.55 753.034C946.597 753.287 947.213 753.698 947.787 753.171C951.249 749.994 951.692 746.925 955.276 743.356Z" /><path fill="#E35E28" d="M932.941 762.244C941.219 760.577 938.072 757.253 942.366 752.14C943.973 751.889 943.746 752.149 945.55 753.034C945.44 754.036 945.466 755.049 945.008 755.853C943.581 758.314 943.103 761.266 943.303 764.088C942.216 768.617 938.818 772.343 935.95 776.086C935.529 774.232 935.163 772.11 934.452 770.392L933.86 770.088L934.439 770.559L933.826 769.527C933.467 772.589 934.27 774.579 934.604 777.606C932.668 781.421 931.16 784.045 928.892 787.683C927.764 778.68 929.777 770.497 932.941 762.244Z" /><path fill="#F17033" d="M955.276 743.356L956.004 743.699C960.286 745.695 964.166 744.576 966.214 745.718C966.274 747.934 960.21 753.437 958.331 755.083L958.048 751.649L958.236 750.573C955.384 751.075 946.786 762.024 944.396 764.859L943.303 764.088C943.103 761.266 943.581 758.314 945.008 755.853C945.466 755.049 945.44 754.036 945.55 753.034C946.597 753.287 947.213 753.698 947.787 753.171C951.249 749.994 951.692 746.925 955.276 743.356Z" /><path fill="#540C04" d="M943.303 764.088C943.103 761.266 943.581 758.314 945.008 755.853C944.752 758.854 944.45 761.848 944.396 764.859L943.303 764.088Z" /><path fill="#050303" d="M944.396 764.859C946.786 762.024 955.384 751.075 958.236 750.573L958.048 751.649C956.794 752.92 954.714 754.651 954.237 756.156L956.324 757.75L956.307 758.304C954.917 757.887 954.252 757.525 952.801 758.008C950.93 759.653 946.586 764.566 945.887 766.775C947.122 767.189 947.299 767.18 948.61 767.321C948.116 768.461 948.5 767.988 947.208 768.564L945.009 768.118C942.464 770.045 938.732 775.61 936.741 778.347C938.533 778.683 941.034 779.01 942.609 779.787L942.709 780.063C934.62 780.46 933.93 780.436 931.047 788.302C930.271 789.05 930.097 789.423 929.642 790.402L929.063 790.11L929.147 791.409L928.897 791.687C929.114 790.066 929.275 789.321 928.892 787.683C931.16 784.045 932.668 781.421 934.604 777.606C934.27 774.579 933.467 772.589 933.826 769.527L934.439 770.559L933.86 770.088L934.452 770.392C935.163 772.11 935.529 774.232 935.95 776.086C938.818 772.343 942.216 768.617 943.303 764.088L944.396 764.859Z" /><path fill="#F17033" d="M879.335 618.79C885.694 617.95 891.874 619.706 897.009 623.455C903.839 628.442 904.529 638.13 894.078 637.491C889.583 637.216 883.289 635.309 879.005 633.846C874.075 632.611 868.937 631.689 870.468 625.557C870.739 625 871.025 624.452 871.328 623.913C873.401 620.269 875.574 619.835 879.335 618.79Z" /><path fill="#050303" d="M929.998 631.079C932.406 630.712 936.893 630.63 937.312 633.887L937.547 634.272C939.557 634.413 943.048 636.815 942.853 639.172C941.634 639.708 941.493 639.57 940.124 639.514L939.527 640.379L940.2 640.455C941.266 640.778 941.265 640.626 942.061 641.262C943.512 640.883 943.554 640.711 944.935 641.155C946.043 642.468 946.027 644.028 945.695 645.725L945.006 646.201C944.95 647.645 943.552 650.36 942.597 651.339C935.464 657.45 929.787 647.128 925.959 643.218C921.082 638.235 924.63 630.876 928.604 631.558L929.998 631.079Z" /><path fill="#F9F0EB" d="M929.998 631.079C932.406 630.712 936.893 630.63 937.312 633.887L937.547 634.272C939.557 634.413 943.048 636.815 942.853 639.172C941.634 639.708 941.493 639.57 940.124 639.514L939.527 640.379C936.703 638.61 936.234 637.96 934.115 635.47C932.07 638.348 930.989 639.916 928.526 642.453L928.419 641.942L928.813 642.057L928.571 641.455C929.298 639.538 930.889 636.524 931.832 634.59L928.604 631.558L929.998 631.079Z" /><path fill="#050303" d="M937.547 634.272C939.557 634.413 943.048 636.815 942.853 639.172C941.634 639.708 941.493 639.57 940.124 639.514L937.536 637.661C936.766 635.775 936.899 636.559 937.547 634.272Z" /><path fill="#F9F0EB" d="M940.2 640.455C941.266 640.778 941.265 640.626 942.061 641.262C943.512 640.883 943.554 640.711 944.935 641.155C946.043 642.468 946.027 644.028 945.695 645.725L945.006 646.201C943.296 645.336 942.104 643.854 940.771 642.449L939.098 642.03L940.2 640.455Z" /><path fill="#050303" d="M942.061 641.262C943.512 640.883 943.554 640.711 944.935 641.155C946.043 642.468 946.027 644.028 945.695 645.725C943.985 643.975 943.451 643.284 942.061 641.262Z" /><path fill="#F5892A" d="M939.098 642.03L940.771 642.449C937.95 646.264 936.783 648.032 932.969 650.756L939.098 642.03Z" /><path fill="#050303" d="M782.966 740.971C784.652 740.91 787.636 741.025 789.098 742.151C795.717 747.25 802.169 755.75 804.892 763.68C805.538 765.563 804.213 767.361 803.204 768.756C799.671 768.69 798.306 768.464 796.2 765.618C791.527 759.304 783.557 753.642 780.853 746.337C780.246 744.696 782.161 742.065 782.966 740.971Z" /><path fill="#F17033" d="M783.904 743.285C787.806 745.312 795.695 758.038 798.617 762.074C798.935 762.513 799.075 764.351 799.099 765.004C797.813 764.099 794.642 760.337 793.599 758.902C789.861 753.759 782.198 750.134 783.904 743.285Z" /><path fill="#F5892A" d="M785.707 742.915C792.586 743.263 795.431 752.072 799.26 757.064C801.077 759.434 802.855 762.614 802.444 765.64L801.329 765.218C798.614 758.978 790.913 747.392 785.707 742.915Z" /><path fill="#704230" d="M891.061 783.275C900.231 783.047 916.661 792.852 901.517 800.671C899.727 800.553 897.075 800.344 895.352 800.647C881.293 803.12 883.988 790.273 891.061 783.275Z" /><path fill="#704230" d="M959.969 706.53C972.31 705.529 969.8 720.732 962.153 724.63C950.261 725.29 951.879 711.648 959.969 706.53Z" /><path fill="#E35E28" d="M954.658 670.002C958.178 669.642 960.322 669.859 962.358 673.097C964.882 677.114 965.603 682.716 960.858 685.39C949.955 687.323 949.02 675.572 954.658 670.002Z" /><path fill="#F17033" d="M839.017 629.562C846.983 631.322 847.849 639.476 839.97 641.828C832.718 639.088 830.287 632.281 839.017 629.562Z" /><path fill="#050303" d="M782.891 766.746C787.15 767.791 793.5 772.753 793.309 777.637C783.659 777.949 781.017 776.55 782.891 766.746Z" /><path fill="#050303" d="M828.905 777.937C831.957 778.172 838.032 779.38 837.789 783.322C836.83 784.834 835.85 785.012 834.175 785.707C830.888 786.496 829.194 786.873 826.448 784.59C824.928 781.304 826.401 779.987 828.905 777.937Z" /><path fill="#F5892A" d="M828.583 779.783C829.8 779.962 831.007 780.205 832.198 780.511C833.974 780.968 834.9 781.191 835.784 782.626L834.942 783.641C832.301 784.345 830.48 785.263 828.225 783.446C827.709 781.857 828.048 781.373 828.583 779.783Z" /><path fill="#050303" d="M805.129 777.501C808.579 777.435 815.277 778.412 813.897 783.318C812.555 784.157 812.522 783.987 810.891 783.866C807.828 783.48 803.3 783.289 801.208 781.048L801.29 779.908C802.457 778.455 803.417 778.236 805.129 777.501Z" /><path fill="#F17033" d="M807.442 779.168C809.417 779.553 810.918 779.479 811.619 781.555C810.274 782.373 811.019 782.076 808.887 781.674C806.981 780.696 805.959 781.094 803.798 780.66L803.783 780.171C805.452 779.541 805.759 779.491 807.442 779.168Z" /><path fill="#050303" d="M839.389 788.565C841.61 788.771 842.322 788.981 843.635 790.789C844.226 794.696 842.304 794.819 839.231 795.453C837.076 794.816 836.076 794.65 834.638 793.02C834.182 791.221 834.099 792.07 834.907 790.388C836.628 788.956 837.096 789.024 839.389 788.565Z" /><path fill="#FAA330" d="M838.471 790.16C840.023 790.369 840.159 790.212 841.281 791.218C841.371 792.948 841.329 792.419 840.169 794.19C838.543 793.629 838.432 793.643 836.936 792.657C837.011 791.125 837.012 791.598 838.471 790.16Z" /><path fill="#050303" d="M815.614 768.317C818.604 768.704 818.981 769.134 820.56 771.699C820.768 773.691 821.04 772.873 819.967 774.31L818.125 774.527C816.052 774.611 814.888 774.878 813.078 774.04C811.716 772.504 811.975 773.353 812.077 771.473C813.237 769.602 813.658 769.512 815.614 768.317Z" /><path fill="#F17033" d="M816.179 769.746C817.926 770.042 818.967 770.365 819.263 772.198L818.457 773.036C816.759 773.078 815.815 773.266 814.295 772.515C814.461 770.97 814.783 771.156 816.179 769.746Z" /><path fill="#050303" d="M817.012 786.954C819.825 787.402 822.145 788.493 822.817 791.516C821.9 792.934 822.521 792.336 820.582 792.999L819.798 793.037C817.077 793.157 813.722 793.375 813.658 789.757C814.666 788.029 815.261 787.895 817.012 786.954Z" /><path fill="#BC6A29" d="M816.475 788.928C818.101 789.169 819.761 789.234 820.484 790.744L819.911 791.529C818.525 791.695 817.662 791.934 816.345 791.473C815.766 789.996 815.913 790.788 816.475 788.928Z" /><path fill="#050303" d="M860.014 786.773C861.516 786.338 863.091 787.185 863.555 788.679C864.019 790.173 863.203 791.763 861.718 792.257C860.732 792.584 859.646 792.354 858.878 791.654C858.11 790.953 857.78 789.893 858.016 788.881C858.251 787.869 859.015 787.063 860.014 786.773Z" /><path fill="#F17033" d="M791.468 686.742C793.557 687.376 794.193 687.601 795.294 689.272C795.491 691.059 794.946 691.707 794.123 693.317C791.936 692.981 791.527 692.757 790.394 691.269C790.172 689.255 790.627 688.691 791.468 686.742Z" /></svg>