<?xml version='1.0' encoding='utf-8'?>
<svg xmlns="http://www.w3.org/2000/svg" width="190" height="210" viewBox="315 600 190 210" fill="none"><path fill="#FDAB32" d="M343.888 737.365C335.961 729.958 324.413 718.191 334.185 707.46C340.823 700.171 353.107 701.605 352.462 689.359C352.176 678.782 346.647 654.755 364.009 655.254C372.656 655.496 379.781 659.526 386.996 652.522C390.634 648.992 393.171 645.807 396.956 641.801C405.96 632.27 419.391 621.279 432.924 619.833C435.632 619.543 440.185 623.403 441.615 625.369C447.045 632.598 449.143 644.186 450.091 653.02C450.564 657.436 449.961 661.044 451.748 665.305C453.411 669.269 461.323 674.455 461.138 678.025C460.847 683.667 450.543 689.31 452.67 694.71C457.198 697.966 467.136 691.144 474.068 696.794C482.33 703.529 481.58 709.356 475.346 717.661C468.805 726.008 459.16 729.316 451.389 735.379C444.777 740.538 465.186 751.104 457.769 760.844C449.479 772.655 431.069 770.753 418.58 770.241C413.851 770.048 400.409 767.761 397.898 772.396C392.695 782.004 396.446 792.06 382.944 795.805C366.723 791.051 364.443 780.849 367.135 765.452C363.738 752.115 352.619 747.122 344.374 737.914L343.888 737.365Z" /><path fill="#E35E28" d="M343.888 737.365C341.472 729.326 337.027 722.041 341.358 713.498C347.453 701.474 369.188 709.192 364.429 691.254C362.768 684.718 355.72 669.406 365.874 666.646C369.849 665.565 377.785 666.869 382.11 664.158C396.678 655.027 431.566 603.633 440.453 646.534C441.98 653.905 436.818 665.772 444.907 670.853C448.352 673.819 449.693 673.314 451.326 677.306C453.324 682.189 439.643 696.811 444.235 699.263C450.485 702.6 470.315 700.861 460.643 716.602C456.843 722.788 442.134 725.427 443.965 736.212C444.61 742.167 448.029 747.475 449.254 753.77C443.418 769.086 419.88 757.305 406.093 761.96C392.297 766.617 393.349 777.663 388.304 779.186C383.851 776.524 390.26 765.941 392.526 763.23C397.468 757.316 404.981 755.127 412.372 754.594C421.549 753.524 437.577 759.764 444.233 753.841C446.443 748.867 436.444 736.842 441.025 727.928C444.957 719.889 461.493 718.838 458.743 707.571C458.677 706.816 457.311 705.89 456.621 705.695C449.597 703.718 436.456 706.054 439.882 694.195C440.676 691.449 442.488 689.161 443.999 686.807C445.168 684.987 448.416 680.733 447.267 678.504C444.615 673.832 439.357 673.058 437.476 667.691C433.834 657.299 439.709 648.36 433.712 638.205C429.369 630.851 422.35 634.465 416.533 638.056C411.733 641.019 407.087 645.375 403.282 649.514C397.918 655.54 393.62 662.346 386.688 666.722C384.246 668.293 381.566 669.457 378.751 670.17C376.096 670.821 365.398 670.954 365.143 673.508C364.132 683.63 376.013 697.647 364.284 705.204C357.823 709.635 346.712 709.173 344.732 717.682C343.886 721.467 344.599 725.432 346.708 728.686C352.839 738.171 371.176 746.553 368.724 761.087C368.469 762.628 367.931 764.108 367.135 765.452C363.738 752.115 352.619 747.122 344.374 737.914L343.888 737.365Z" /><path fill="#050303" d="M426.153 643.116L427.685 644.126C427.793 645.621 423.451 654.546 422.543 656.642C416.405 670.748 410.713 685.044 405.476 699.509C408.579 697.941 411.653 696.271 414.402 694.084C417.673 691.482 420.657 681.514 423.552 680.348C423.814 682.714 420.411 688.46 419.137 691.013C425.593 687.533 429.578 683.85 436.88 681.369C432.607 685.933 425.179 690.011 419.718 693.331C424.797 693.327 428.346 693.345 433.439 693.847C427.101 695.628 423.515 695.576 416.933 695.496C412.655 697.862 408.407 700.281 404.19 702.752C400.976 708.626 391.591 735.925 390.071 742.633C401.432 735.564 409.529 731.234 417.71 720.436C419.41 718.193 422.205 713.75 424.986 713.353C424.582 716.418 415.759 725.199 413.182 728.776L412.755 729.373C417.052 727.859 437.658 718.176 440.025 718.4L440.193 719.088C438.247 721.451 416.037 730.155 411.905 731.619C415.291 733.331 424.039 735.509 425.318 736.919C421.018 737.355 413.624 734.815 409.254 733.536C404.497 735.524 393.788 742.763 389.365 745.879C385.158 756.788 381.637 768.478 380.545 780.149C380.301 782.76 381.301 786.119 378.925 787.6L378.367 787.224C377.669 785.145 377.967 782.919 378.051 780.675C379.233 769.162 382.79 758.648 386.123 747.677C384.45 745.665 382.031 741.733 380.525 739.427C376.204 737.526 356.734 730.908 355.584 727.786C358.052 727.296 374.59 734.668 378.334 736.111C375.199 731.013 363.526 718.913 363.747 715.153L364.419 715.064C366.561 716.645 376.537 729.756 378.846 732.665C378.828 731.361 378.289 721.553 378.45 721.081C382.547 722.824 379.593 732.325 381.308 736.066C382.752 739.216 385.043 742.538 386.907 745.445C387.928 742.965 388.638 740.381 389.358 737.801C391.445 730.326 394.114 723.082 396.792 715.799L391.096 702.968C385.739 700.845 380.013 697.957 375.421 694.466C380.294 695.726 384.514 697.646 389.139 699.576C385.808 694.589 379.513 684.887 376.701 679.854L376.972 679.091L377.923 679.132C380.847 681.49 388.559 695.324 391.036 699.467C391.404 695.732 391.136 684.216 392.541 682.184C394.522 685.856 392.689 696.704 393.533 701.554C394.41 706.594 395.411 708.199 397.564 712.912C402.272 699.236 409.274 683.54 414.612 669.688C413.437 666.567 408.591 655.507 409.285 653.048L410.075 653.289C412.144 655.469 414.645 663.871 415.806 667.192C419.062 659.189 422.798 651.16 426.153 643.116Z" /><path fill="#E35E28" d="M373.838 762.355C375.501 762.498 375.855 762.378 377.265 763.268C376.636 765.503 375.14 768.532 374.728 770.218C374.315 771.907 374.552 778.251 374.596 780.226C367.898 777.781 371.731 767.031 373.838 762.355Z" /><path fill="#E35E28" d="M465.015 698.7C473.308 699.389 472.129 713.659 467.727 719.314L466.504 718.839C465.632 716.564 468.917 710.773 468.884 708.096C468.823 703.224 464.995 703.164 465.015 698.7Z" /><path fill="#E35E28" d="M359.315 689.842C362.565 692.642 361.541 699.672 356.734 701.944L355.505 701.209C354.856 698.489 358.005 692.734 359.315 689.842Z" /><path fill="#E35E28" d="M424.262 747.848C426.328 748.021 434.542 749.457 436.808 750.155C437.296 750.305 437.189 751.141 437.254 751.862C433.545 752.849 424.928 752.554 424.262 747.848Z" /><path fill="#E35E28" d="M365.22 658.459C368.134 658.43 376 659.22 377.614 661.546L376.602 662.802C373.132 662.478 369.69 660.378 366.705 661.579C365.434 662.09 366.131 662.033 364.802 661.81C364.295 660.499 364.736 660.168 365.22 658.459Z" /><path fill="#E35E28" d="M360.676 627.856L360.828 627.294C361.83 623.452 361.997 618.941 363.107 615.757C365.418 617.068 363.669 628.49 368.567 630.089C370.292 630.652 372.631 631.424 373.857 632.714L374.071 633.482C368.809 636.909 369.611 633.779 364.795 640.345C364.639 643.48 364.795 646.265 363.655 649.131C360.457 644.385 364.048 640.153 355.766 635.08C352.885 634.378 351.263 633.757 348.545 632.715C351.189 632.027 354.416 631.592 357.145 631.213L360.676 627.856Z" /><path fill="#E35E28" d="M357.145 631.213C356.699 632.506 356.239 633.795 355.766 635.08C352.885 634.378 351.263 633.757 348.545 632.715C351.189 632.027 354.416 631.592 357.145 631.213Z" /><path fill="#F17033" d="M331.726 752.695C334.196 753.938 333.635 760.918 335.036 763.404C335.739 764.651 340.078 766.875 341.687 768.036C340.823 769.813 335.781 771.101 334.581 773.11C332.786 776.114 334.324 782.122 332.036 784.713C329.504 773.806 331.471 773.065 320.22 768.665C332.424 762.545 328.482 765.54 331.594 753.203L331.726 752.695Z" /><path fill="#FAA330" d="M472.499 631.297C476.723 636.24 468.956 641.294 482.864 646.503C479.229 648.682 477.56 650.112 474.337 652.943C473.589 656.186 473.874 660.649 472.3 662.606C470.126 659.207 472.3 657.01 468.431 650.406C466.478 649.32 462.954 647.842 460.799 646.87C465.632 644.832 466.795 644.461 470.65 641.22C471.126 638.094 471.876 634.432 472.499 631.297Z" /><path fill="#050303" d="M326.101 731.73C328.168 732.529 336.11 743.04 337.139 744.934C332.063 745.181 327.063 735.931 326.101 731.73Z" /><path fill="#F17033" d="M464.234 773.651C465.319 773.15 466.591 773.279 467.554 773.987C468.516 774.695 469.017 775.871 468.861 777.056C468.706 778.242 467.917 779.248 466.804 779.683C465.153 780.329 463.287 779.546 462.592 777.914C461.897 776.283 462.624 774.395 464.234 773.651Z" /><path fill="#F17033" d="M336.296 679.775C337.993 679.264 339.787 680.209 340.326 681.898C340.864 683.587 339.949 685.396 338.269 685.962C337.157 686.336 335.931 686.082 335.059 685.297C334.188 684.513 333.807 683.319 334.063 682.175C334.32 681.031 335.173 680.113 336.296 679.775Z" /><path fill="#F17033" d="M428.67 785.734C430.218 784.862 432.18 785.408 433.054 786.955C433.928 788.502 433.383 790.464 431.837 791.34C430.289 792.216 428.323 791.671 427.448 790.122C426.573 788.572 427.12 786.607 428.67 785.734Z" /><path fill="#050303" d="M477.019 736.314C478.695 735.875 480.415 736.86 480.884 738.528C481.353 740.196 480.4 741.933 478.741 742.433C477.64 742.765 476.446 742.477 475.618 741.679C474.79 740.881 474.457 739.699 474.748 738.586C475.038 737.474 475.906 736.605 477.019 736.314Z" /><path fill="#F5892A" d="M334.844 652.73C335.481 652.124 336.398 651.912 337.237 652.178C338.076 652.444 338.704 653.145 338.876 654.008C339.048 654.87 338.737 655.759 338.064 656.326C337.066 657.167 335.58 657.062 334.71 656.09C333.839 655.118 333.898 653.63 334.844 652.73Z" /><path fill="#FAA330" d="M474.994 680.8C475.968 680.244 477.206 680.539 477.824 681.475C478.442 682.411 478.226 683.666 477.331 684.342C476.699 684.82 475.854 684.906 475.139 684.567C474.423 684.228 473.955 683.519 473.925 682.728C473.894 681.936 474.306 681.194 474.994 680.8Z" /></svg>