<?xml version='1.0' encoding='utf-8'?>
<svg xmlns="http://www.w3.org/2000/svg" width="150" height="150" viewBox="450 80 150 150" fill="none"><path fill="#FAFAF6" d="M524.251 300.948C527.717 296.09 536.267 274.282 539.467 268.015C545.469 255.025 553.457 242.115 559.106 229.044C564.438 216.704 568.679 205.549 574.741 193.377C579.079 202.285 590.832 221.078 596.322 229.196C594.04 233.275 590.862 238.374 589.038 242.635C585.088 251.862 580.506 260.769 576.236 269.813C573.987 274.577 573.148 281.238 571.417 286.298C569.382 293.011 567.346 298.824 565.737 305.69C564.802 305.613 557.742 303.658 556.302 303.309C549.259 301.603 540.925 301.034 533.935 302.52C530.594 303.229 525.934 304.363 524.023 303.011L524.251 300.948Z" /><path fill="#050303" d="M574.741 193.377C574.402 192.687 574.536 192.384 574.526 191.488C575.67 190.037 574.964 190.505 576.678 189.977C579.427 194.589 582.206 199.167 584.811 203.863C589.443 212.215 592.511 220.96 599.521 227.665C595.526 238.278 591.54 249.046 587.481 259.634C581.056 276.397 573.316 289.456 568.082 307.088C566.329 306.661 567.113 307.059 565.737 305.69C567.346 298.824 569.382 293.011 571.417 286.298C573.148 281.238 573.987 274.577 576.236 269.813C580.506 260.769 585.088 251.862 589.038 242.635C590.862 238.374 594.04 233.275 596.322 229.196C590.832 221.078 579.079 202.285 574.741 193.377Z" /><path fill="#F17033" d="M481.664 105.063C483.802 105.912 488.398 108.098 490.424 107.289C496.335 104.931 499.963 90.2077 504.371 88.4033C506.568 89.702 510.96 108.57 510.873 111.998C510.648 120.822 516.749 129.798 523.537 118.435C526.862 112.87 528.707 98.2299 533.522 93.3973C537.718 95.3433 537.073 101.844 547.118 98.1654C554.176 95.5808 558.373 90.6308 564.369 87.0751C563.024 93.2058 558.562 104.307 561.336 110.169C562.411 112.44 569.237 111.939 571.741 112.152C566.887 120.343 549.673 133.899 549.45 142.161C549.913 142.966 550.316 143.946 551.447 143.942C560.179 143.916 567.926 137.309 576.957 135.699C573.644 145.285 574.975 145.191 584.167 148.359C575.908 155.139 565.895 157.627 558.961 166.988C559.919 170.256 560.725 172.757 561.923 175.94L561.101 175.934C555.745 175.869 550.665 174.93 545.365 174.639C528.959 173.737 533.728 188.79 536.688 199.359C529.594 194.824 522.598 188.995 514.678 187.922C513.881 189.554 513.489 190.953 511.957 191.772C509.249 190.637 507.687 175.437 505.752 170.883C503.092 170.152 502.072 169.761 499.274 169.679L497.42 168.957C497.113 168.68 496.806 168.403 496.499 168.126C488.317 167.28 481.73 167.914 473.857 165.322C479.038 157.572 481.463 153.106 475.487 144.554C471.801 139.281 468.65 135.028 467.479 128.471C493.835 132.624 484.878 123.471 481.664 105.063Z" /><path fill="#050303" d="M552.966 100.803C553.49 101.094 553.143 100.863 553.821 101.713C553.335 103.883 539.467 119.261 536.86 122.361C541.094 121.242 554.023 115.677 556.818 116.93C556.572 119.372 537.271 122.599 534.771 125.416C526.026 135.273 516.074 146.854 508.501 157.514C516.693 157.978 525.423 158.347 533.57 157.132C536.658 156.672 540.303 152.881 543.322 151.159L543.652 151.99C542.573 153.997 541.091 154.882 539.277 156.309C541.742 156.034 548.097 155.416 550.197 154.744C556.883 152.604 560.498 147.58 567.567 144.7C564.142 148.18 560.683 150.707 556.839 153.663C559.397 153.46 568.517 152.093 569.786 154.24C568.417 155.216 563.64 154.822 561.519 154.989C554.078 155.576 546.372 156.889 539.009 158.139C542.951 161.245 549.282 165.837 552.21 169.618C547.844 167.244 539.526 161.808 536.225 158.305C531.163 159.285 526.01 159.712 520.856 159.579C517.259 159.496 508.363 158.296 506.334 161.045C507.213 162.964 508.691 163.795 509.85 165.156C515.854 172.203 520.41 171.405 527.817 174.796L527.695 175.21C523.028 175.364 520.994 174.551 516.606 173.172C519.236 179.125 523.603 182.422 526.763 189.939C523.76 187.638 522.692 185.579 520.619 182.435C515.761 176.233 512.06 166.228 504.501 162.661C504.003 162.968 503.505 163.275 503.007 163.582L502.162 164.127C501.855 162.991 502.291 162.772 502.95 161.371C501.405 159.252 500.764 157.992 499.545 155.711C498.155 155.277 496.776 154.808 495.41 154.302C489.982 152.247 481.828 147.018 479.354 141.603L479.621 141.056C481.501 141.406 483.63 145.119 485.573 146.729C489.717 150.165 493.951 152.057 498.902 153.877C495.406 140.544 496.261 134.122 497.285 120.411C493.99 118.389 492.854 117.33 490.511 114.27L490.709 113.212L490.257 113.876L490.352 113.987L489.956 113.203L490.389 112.908C493.311 114.331 495.041 116.541 497.369 118.892C497.753 116.678 499.099 107.267 500.767 106.384C500.853 110.839 500.271 113.392 499.46 117.822C502.105 114.833 506.001 109.894 509.173 107.894C506.152 112.775 502.562 116.415 498.735 120.642C498.169 126.911 497.821 132.504 497.959 138.795C501.578 135.576 502.463 133.398 507.206 129.943C506.477 131.98 499.625 139.562 498.032 141.265C499.208 147.917 500.252 154.539 504.449 159.963C508.488 153.822 514.777 146.55 519.474 140.695C523.959 135.106 529.147 128.241 534.054 123.24C534.041 118.401 534.093 112.767 535.518 108.133C536.205 109.74 535.921 117.929 535.903 120.255C541.154 113.874 547.381 106.936 552.966 100.803Z" /><path fill="#050303" d="M454.559 76.6894C456.882 77.8193 456.55 83.5306 457.31 86.3112C458.703 91.4041 464.04 89.908 466.761 92.9356C464.823 97.6764 458.377 93.9339 456.341 109.867L455.493 109.989C453.68 108.486 452.937 102.495 452.46 100.018C450.289 98.1573 445.84 96.4651 445.264 94.3987C446.409 92.7985 449.509 91.5348 451.347 90.4271C453.489 84.3951 453.122 82.3338 454.559 76.6894Z" /><path fill="#F17033" d="M499.274 169.679C493.156 176.19 485.734 187.902 480.28 195.353C478.654 197.574 474.623 205.998 473.266 206.869C469.836 203.154 493.478 173.282 497.42 168.957L499.274 169.679Z" /><path fill="#F17033" d="M594.74 81.2334C596.091 80.8347 597.552 81.2003 598.556 82.1882C599.561 83.1762 599.95 84.6311 599.574 85.9887C599.197 87.3463 598.114 88.393 596.745 88.7228C594.7 89.2151 592.635 87.9874 592.091 85.9556C591.547 83.9237 592.722 81.8287 594.74 81.2334Z" /><path fill="#F5892A" d="M518.216 209.367C521.332 209.247 523.429 209.467 524.575 212.697C524.313 214.711 524.215 214.621 522.818 216.212C519.743 216.209 517.658 215.994 516.585 212.792C516.741 210.987 517.09 210.764 518.216 209.367Z" /><path fill="#050303" d="M460.59 99.8994C463.139 100.887 464.249 101.85 464.239 104.709C461.543 104.163 461.139 102.334 460.59 99.8994Z" /></svg>