<?xml version='1.0' encoding='utf-8'?>
<svg xmlns="http://www.w3.org/2000/svg" width="150" height="100" viewBox="660 110 150 100" fill="none"><path fill="#F17033" d="M672.457 135.962C684.887 129.133 701.834 127.447 715.809 127.133C719.125 127.348 727.173 125.71 729.325 128.782C730.694 130.738 729.29 132.372 732.506 133.883C741.943 138.319 754.229 141.531 763.16 146.61L760.854 151.379C766.255 164.972 783.942 171.595 791.388 182.052C778.474 181.229 759.056 176.227 747.373 177.592L744.287 184.819C739.229 180.699 727.343 169.34 721.062 170.183C720.123 170.309 719.202 171.095 718.456 171.665L717.903 174.11L717.776 174.862L717.027 175.347C709.168 173.211 694.403 153.568 687.985 148.069C683.774 144.462 678.794 141.795 674.607 138.156C673.04 137.651 672.965 137.25 672.457 135.962Z" /><path fill="#050303" d="M701.632 141.546C707.032 139.231 719.068 131.565 723.077 131.361L723.174 131.853C720.915 133.963 707.527 140.952 703.962 142.763C711.363 144.906 717.127 146.706 724.313 149.767C730.483 148.325 743.178 145.456 749.059 146.088L749.618 146.735C748.172 148.096 730.941 150.15 726.866 151.002C733.754 153.247 766.024 166.924 770.493 171.023L770.624 171.833C768.896 172.298 754.993 164.856 751.807 163.368C754.259 167.444 760.188 175 761.275 178.509C755.754 173.065 753.271 168.647 749.022 162.93C746.218 159.157 731.179 154.372 725.789 152.393C731.738 160.392 739.502 169.912 742.157 179.453C740.273 177.403 739.127 175.495 737.726 173.112C733.347 165.665 728.297 158.603 723.297 151.565C717.885 149.095 707.983 145.634 702.163 143.888C707.369 151.726 715.217 163.108 718.456 171.665L717.903 174.11L717.776 174.862L717.027 175.347C709.168 173.211 694.403 153.568 687.985 148.069C683.774 144.462 678.794 141.795 674.607 138.156C673.04 137.651 672.965 137.25 672.457 135.962C681.42 137.08 692.776 139.65 701.632 141.546Z" /><path fill="#F17033" d="M674.607 138.156C682.313 139.556 692.209 141.526 699.802 143.211C706.033 154.692 711.933 161.2 717.903 174.11L717.776 174.862L717.027 175.347C709.168 173.211 694.403 153.568 687.985 148.069C683.774 144.462 678.794 141.795 674.607 138.156Z" /><path fill="#F17033" d="M824.936 153.157C825.868 150.183 826.665 147.469 826.446 144.319C826.141 139.464 823.774 134.972 819.943 131.974C814.225 127.459 806.792 127.206 800.614 131.002C798.427 132.346 797.247 134.172 795.264 134.366L794.975 133.589C799.334 126.401 810.821 124.856 817.998 128.481C822.774 130.939 826.332 135.248 827.843 140.401C829.238 145.294 828.305 150.516 825.909 154.933L825.7 155.963C829.868 164.779 826.82 177.3 824.164 186.169C823.271 189.15 819.735 199.942 816.698 200.766C816.827 198.898 818.774 194.028 819.668 192.162C822.355 186.552 829.568 163.14 823.924 158.762C818.459 162.207 815.652 163.833 808.565 163.673C799.789 164.299 796.73 148.521 803.137 144.855C811.635 139.991 820.567 146.746 824.936 153.157Z" /><path fill="#FAFAF6" d="M822.222 157.068C818.493 158.197 818.048 161.796 811.261 161.676C803.147 162.695 798.428 151.506 804.824 146.773C811.982 141.475 819.828 149.898 823.172 154.515L822.222 157.068Z" /><path fill="#F17033" d="M797.033 197.785C799.221 200.707 797.853 209.221 799.572 213.49C801.764 218.93 808.456 215.983 809.708 219.723C792.057 225.425 800.023 234.026 796.082 240.135L795.052 240.249C793.673 233.71 795.181 226.994 788.143 222.319C786.402 221.163 783.586 221.333 781.697 219.699C783.127 217.65 790.948 216.355 792.45 213.747C795.241 208.902 794.299 202.963 797.033 197.785Z" /><path fill="#F17033" d="M789.392 114.643C790.066 114.57 790.742 114.513 791.419 114.473C794.265 114.313 803.936 115.853 804.08 119.106C799.219 118.773 795.881 116.552 790.696 116.383C784.747 117.559 783.761 119.299 778.756 122.558L778.195 121.788C779.388 117.174 785.22 115.334 789.392 114.643Z" /><path fill="#050303" d="M662.539 164.707C663.703 164.162 665.072 164.297 666.107 165.059C667.142 165.822 667.677 167.089 667.502 168.362C667.327 169.635 666.47 170.711 665.268 171.166C663.504 171.833 661.529 170.987 660.795 169.25C660.061 167.513 660.831 165.507 662.539 164.707Z" /><path fill="#E35E28" d="M698.383 114.798C700.014 114.189 701.832 115.002 702.466 116.624C703.1 118.245 702.316 120.076 700.705 120.736C699.64 121.172 698.422 121.001 697.519 120.286C696.616 119.572 696.168 118.427 696.347 117.289C696.526 116.152 697.304 115.2 698.383 114.798Z" /></svg>