<?xml version='1.0' encoding='utf-8'?>
<svg xmlns="http://www.w3.org/2000/svg" width="170" height="190" viewBox="550 610 170 190" fill="none"><path fill="#FDAB32" d="M640.443 633.067C621.508 617.369 662.475 616.461 651.721 651.023C664.523 653.234 678.966 663.935 686.826 674.163C695.261 685.139 695.991 704.308 687.138 715.298C685.865 716.604 685.018 717.674 683.393 718.503C679.168 735.808 675.223 746.565 663.602 760.744C651.189 775.89 623.104 786.472 604.822 776.431C597.116 774.526 586.805 770.39 581.663 764.164C570.051 749.535 566.717 741.941 567.326 722.823C567.776 708.723 570.322 699.074 576.464 686.315L576.469 686.152C563.231 672.79 575.399 661.761 587.122 654.154C601.705 644.692 623.07 641.591 639.75 645.746C643.131 641.523 641.523 638.054 640.443 633.067Z" /><path fill="#F17033" d="M640.443 633.067C621.508 617.369 662.475 616.461 651.721 651.023C664.523 653.234 678.966 663.935 686.826 674.163C695.261 685.139 695.991 704.308 687.138 715.298C685.865 716.604 685.018 717.674 683.393 718.503C673.628 720.919 659.607 718.195 654.359 710.354C647.052 699.437 648.776 699.19 635.469 704.184C633.025 705.1 629.917 704.354 627.343 703.653C619.068 701.399 619.23 692.885 613.47 688.358C607.849 685.571 601.465 688.762 595.84 690.131C588.006 692.036 583.036 690.254 576.464 686.315L576.469 686.152C563.231 672.79 575.399 661.761 587.122 654.154C601.705 644.692 623.07 641.591 639.75 645.746C643.131 641.523 641.523 638.054 640.443 633.067Z" /><path fill="#E35E28" d="M576.469 686.152C576.88 684.452 576.677 683.834 577.75 683.021C583.27 683.98 582.183 685.182 588.517 685.133C599.492 685.049 606.957 679.582 617.176 685.058C620.756 691.036 622.669 695.455 628.896 698.992C637.471 699.418 648.05 692.599 652.9 699.247C658.983 707.587 662.266 713.521 673.763 715.118C678.583 715.787 685.305 711.28 687.138 715.298C685.865 716.604 685.018 717.674 683.393 718.503C673.628 720.919 659.607 718.195 654.359 710.354C647.052 699.437 648.776 699.19 635.469 704.184C633.025 705.1 629.917 704.354 627.343 703.653C619.068 701.399 619.23 692.885 613.47 688.358C607.849 685.571 601.465 688.762 595.84 690.131C588.006 692.036 583.036 690.254 576.464 686.315L576.469 686.152Z" /><path fill="#E35E28" d="M640.443 633.067C621.508 617.369 662.475 616.461 651.721 651.023C651.046 652.189 650.101 653.175 648.964 653.898C642.725 657.815 636.674 653.812 639.75 645.746C643.131 641.523 641.523 638.054 640.443 633.067Z" /><path fill="#E35E28" d="M666.678 671.284C669.102 671.57 673.677 674.946 675.043 676.941C679.698 683.741 677.035 687.869 671.636 691.977C675.735 699.306 679.75 701.067 682.377 705.923L681.786 707.467C678.92 708.398 678.557 704.011 675.772 702.991L675.509 703.717C674.864 706.13 673.188 710.844 670.275 710.776C669.358 708.952 671.055 703.139 670.697 700.497C670.136 696.345 662.774 691.039 663.849 687.451C666.264 685.888 672.249 687.903 673.258 684.445C674.794 679.184 668.661 676.652 666.678 671.284Z" /><path fill="#E35E28" d="M650.784 660.726C652.431 661.715 652.95 662.079 653.328 664.027C655.881 677.204 652.911 677.009 642.306 678.354C642.255 681.062 642.859 687.767 640.753 689.018L639.668 688.635C637.936 685.984 639.662 685.778 638.436 683.21C635.23 684.146 633.936 684.501 630.585 684.955C628.849 684.888 627.615 685.056 626.548 683.557C628.367 681.458 634.344 680.811 637.761 679.645L638.4 679.423L638.221 670.139C639.478 671.638 640.585 673.347 641.694 674.966C644.975 674.187 648.315 673.895 650.35 671.282C651.406 667.555 647.322 665.015 650.784 660.726Z" /><path fill="#E35E28" d="M625.049 654.567C627.156 654.45 630.892 653.897 632.389 655.332C632.34 659.554 627.374 656.946 624.817 659.871C621.904 663.204 623.353 668.016 621.05 670.684C617.733 672.56 614.812 672.11 610.976 672.049C610.539 675.036 610.367 676.957 609.266 679.814C607.963 680.658 607.101 681.18 605.651 680.706C604.818 675.809 609.796 674.797 605.565 670.024L605.655 669.035C607.882 666.728 613.361 668.865 617.75 667.855C623.041 664.136 616.151 658.711 625.049 654.567Z" /><path fill="#E35E28" d="M602.097 657.493C605.123 657.333 606.727 657.456 608.801 659.846C607.634 661.173 604.063 660.738 603.56 661.466C599.499 667.35 604.842 667.69 595.225 669.338C594.445 674.243 595.818 677.779 590.576 679.633C588.956 676.763 590.76 672.521 591.384 668.381C589.416 668.068 586.492 667.656 585.212 666.124L585.563 665.079C588.107 663.508 594.61 664.434 598.332 664.46C599.423 661.356 599.79 659.839 602.097 657.493Z" /><path fill="#E35E28" d="M581.663 764.164C582.796 762.744 583.059 762.186 584.738 761.446C587.39 761.497 589.987 765.007 593.526 766.547C618.455 777.396 653.345 766.779 663.385 740.215C664.753 736.594 665.723 730.941 669.219 729.083C674.813 729.666 670.077 738.936 668.979 741.443C664.915 750.726 659.38 759.355 650.775 765.045C640.924 771.565 629.457 774.989 617.701 776.045C613.998 776.378 608.309 775.788 604.822 776.431C597.116 774.526 586.805 770.39 581.663 764.164Z" /><path fill="#E35E28" d="M583.38 698.685C585.247 699.179 584.615 698.648 585.69 699.889C586.173 703.138 582.68 710.264 581.404 713.786C579.832 718.126 580.971 730.905 579.205 733.499C577.397 732.746 576.06 732.086 575.696 730.039C573.865 719.757 577.954 707.178 583.38 698.685Z" /><path fill="#E35E28" d="M629.996 759.073L631.068 759.327L631.603 760.3C628.511 766.488 613.512 765.345 607.591 763.818C606.53 763.322 606.479 763.23 605.566 762.473L605.77 761.696C607.078 761.235 615.284 761.405 617.452 761.278C622.937 760.955 624.698 760.654 629.996 759.073Z" /><path fill="#E35E28" d="M584.443 741.678C585.569 742.212 593.753 753.562 596.72 754.85C597.215 755.065 596.787 756.356 596.688 756.957C591.469 756.236 585.487 750.266 583.775 745.367C583.202 743.728 583.756 743.117 584.443 741.678Z" /><path fill="#E35E28" d="M590.323 701.272C591.83 702.426 591.386 701.714 591.934 703.309C588.14 710.636 587.061 715.095 585.648 723.143C580.128 718.721 587.09 705.799 590.323 701.272Z" /><path fill="#050303" d="M672.726 769.995C677.991 759.069 679.409 763.94 688.947 761.631C694.381 760.316 704.333 747.004 711.335 751.174C718.477 755.427 717.963 764.552 715.458 770.938L714.873 772.72C712.973 776.759 709.517 780.105 706.048 782.874L704.578 783.937C700.975 786.756 695.8 788.195 691.381 789.344C690.49 789.398 689.67 789.454 688.779 789.472C682.453 790.477 679.379 789.465 674.276 785.843L673.225 785.13C670.374 780.084 670.343 775.667 672.531 770.321L672.726 769.995Z" /><path fill="#F17033" d="M672.726 769.995L673.666 770.038C678.757 770.245 683.125 768.77 685.768 769.02L685.362 768.806L685.198 769.511C682.108 770.959 680.96 771.239 677.688 772.095C679.651 774.659 680.357 775.804 681.925 778.566C684.864 778.522 687.63 778.459 690.569 778.613C693.981 776.377 695.052 775.699 698.795 774.17C696.784 776.033 693.162 779.544 690.636 780.486C690.452 783.362 690.13 785.841 690.628 788.675L691.381 789.344C690.49 789.398 689.67 789.454 688.779 789.472C682.453 790.477 679.379 789.465 674.276 785.843L673.225 785.13C670.374 780.084 670.343 775.667 672.531 770.321L672.726 769.995Z" /><path fill="#050303" d="M674.276 785.843C683.997 777.775 675.342 779.595 688.989 780.071L690.636 780.486C690.452 783.362 690.13 785.841 690.628 788.675L691.381 789.344C690.49 789.398 689.67 789.454 688.779 789.472C682.453 790.477 679.379 789.465 674.276 785.843Z" /><path fill="#F5892A" d="M688.989 780.071L690.636 780.486C690.452 783.362 690.13 785.841 690.628 788.675L691.381 789.344C690.49 789.398 689.67 789.454 688.779 789.472C688.797 786.384 688.918 783.17 688.989 780.071Z" /><path fill="#050303" d="M672.531 770.321C679.476 775.879 679.163 778.661 673.225 785.13C670.374 780.084 670.343 775.667 672.531 770.321Z" /><path fill="#050303" d="M706.048 782.874C703.131 772.252 701.442 776.095 708.781 768.08C710.794 769.649 712.825 771.196 714.873 772.72C712.973 776.759 709.517 780.105 706.048 782.874Z" /><path fill="#F17033" d="M704.578 783.937C703.346 780.971 702.224 773.97 700.106 772.619C697.399 773.05 696.345 773.684 694.322 771.792C693.488 769.294 693.355 767.905 694.294 765.407L694.933 765.21C695.899 767.081 695.591 768.919 695.538 771.097C698.708 771.017 702.045 771.351 704.409 769.321C705.126 767.577 705.292 766.698 706.778 765.537C709.064 765.955 713.884 769.047 715.458 770.938L714.873 772.72C712.825 771.196 710.794 769.649 708.781 768.08C701.442 776.095 703.131 772.252 706.048 782.874L704.578 783.937Z" /><path fill="#F5892A" d="M703.721 753.315C704.463 753.81 707.305 757.915 709.243 759.744C710.915 759.033 713.416 757.764 715.131 757.768C714.302 759.064 714.346 758.805 712.939 759.7C706.957 762.535 709.033 760.351 704.219 758.703C703.369 759.474 703 759.803 702.061 760.453C701.65 758.531 702.992 755.205 703.721 753.315Z" /><path fill="#050303" d="M554.317 632.208C559.913 629.8 564.75 631.011 570.255 633.017C575.059 634.767 577.861 643.665 575.656 647.992C572.475 654.238 563.101 654.187 558.61 658.94C555.482 662.091 552.488 668.368 548.522 669.514C546.449 670.134 544.211 669.869 542.34 668.782C534.065 663.936 535.653 649.381 540.142 642.189L540.55 640.875C544.607 636.731 547.158 634.646 552.518 632.535L554.317 632.208Z" /><path fill="#F17033" d="M540.55 640.875C542.792 643.481 545.336 646.573 547.65 649.061L552.125 646.166C554.36 647.335 556.693 647.928 558.212 649.848C558.621 651.484 558.727 651.439 558.379 653.052L557.607 652.964C556.099 651.013 555.232 648.878 553.381 647.861C550.178 647.906 548.671 650.071 547.115 652.579C544.749 648.822 542.767 645.755 540.142 642.189L540.55 640.875Z" /><path fill="#E35E28" d="M554.317 632.208C554.432 634.117 554.42 637.821 555.249 639.328C557.396 639.384 557.735 638.792 559.986 639.477L560.054 640.246C558.248 642.079 556.143 642.787 554.133 640.759C553.214 637.321 553.982 635.343 552.518 632.535L554.317 632.208Z" /><path fill="#B15325" d="M565.584 642.745L566.235 643.293C566.681 645.283 567.395 649.782 567.02 651.684C564.124 648.403 564.278 646.854 565.584 642.745Z" /><path fill="#F17033" d="M565.096 635.043L566.228 635.974C566.318 637.895 567.082 637.861 567.149 639.902C565.486 639.342 566.271 639.751 564.894 638.26C564.465 636.596 564.543 636.698 565.096 635.043Z" /><path fill="#CC8258" d="M565.096 635.043C566.162 633.972 566.539 633.169 567.718 633.001C567.317 634.553 567.116 634.674 566.228 635.974L565.096 635.043Z" /><path fill="#FDAB32" d="M706.604 640.915C716.029 648.943 718.024 665.728 700.92 664.172C694.893 663.624 684.148 650.584 679.605 646.666C677.952 645.2 667.178 641.121 669.569 637.572C676.329 627.541 688.627 629.152 696.18 632.964C699.882 634.843 704.31 637.359 706.604 640.915Z" /><path fill="#050303" d="M686.399 635.888C689.696 634.992 693.012 633.336 696.18 632.964C699.882 634.843 704.31 637.359 706.604 640.915L706.447 641.576C705.151 642.629 702.055 642.589 700.049 642.809C703.05 645.649 708.71 652.491 709.18 656.617L708.816 656.085C707.729 655.778 705.94 652.018 705.255 650.795C704.702 653.169 704.715 653.618 703.425 655.603L702.877 655.685C702.441 653.581 703.329 651.697 703.998 649.561C701.231 645.837 699.915 644.469 696.28 641.862C696.27 644.379 696.235 646.297 696.033 648.826L695.998 648.519L695.348 650.303L695.221 649.842L695.619 650.512L695.217 650.342C694.489 647.507 694.775 644.128 694.862 641.159C692.516 639.866 689.614 638.334 687.043 637.712L686.516 638.155C686.083 641.52 687.849 643.454 687.567 647.168L686.923 647.658C683.857 645.108 687.241 641.739 684.86 638.275C682.617 635.012 675.893 635.733 674.373 634.468L674.946 633.957C678.5 633.414 682.984 634.874 686.399 635.888Z" /><path fill="#FDAB32" d="M696.18 632.964C699.882 634.843 704.31 637.359 706.604 640.915L706.447 641.576C704.283 640.849 701.563 641.445 699.272 641.783C695.318 639.263 693.107 638.352 688.775 636.526C689.207 636.42 689.638 636.312 690.069 636.201C692.617 635.544 694.825 635.254 696.18 632.964Z" /><path fill="#FDAB32" d="M541.427 763.65C544.47 757.583 549.121 753.19 556.653 756.114C558.585 756.863 561.501 761.448 561.857 763.366C564.463 768.299 570.552 775.246 574.858 778.472C577.593 783.961 574.357 788.491 569.013 790.401L566.999 790.555L563.533 790.322C560.494 789.123 559.242 788.49 556.41 786.884C554.986 785.787 553.613 784.624 552.297 783.4C546.422 777.851 541.633 773.012 541.349 764.882L541.427 763.65Z" /><path fill="#E35E28" d="M541.427 763.65C542.568 763.31 544.49 762.763 545.525 762.279C547.367 761.417 549.976 757.881 552.265 758.545C551.666 762.022 549.388 761.911 550.245 763.985C555.047 766.172 558.045 764.573 560.971 765.097C559.719 766.341 557.212 767.204 555.531 768.041C556.202 770.342 556.43 771.915 557.992 773.711C558.705 774.055 559.07 774.275 559.827 774.506C559.352 775.065 558.438 776.212 557.956 776.672L557.775 776.989C556.808 778.373 556.709 778.981 556.214 780.561C555.517 782.845 554.999 783.187 556.804 785.192L556.41 786.884C554.986 785.787 553.613 784.624 552.297 783.4C546.422 777.851 541.633 773.012 541.349 764.882L541.427 763.65Z" /><path fill="#FDAB32" d="M541.349 764.882C542.828 764.644 543.46 764.37 544.761 765.076C544.323 767.279 543.399 767.084 543.72 769.507L544.319 769.542C545.941 767.374 546.099 766.757 547.01 764.175C548.439 765.148 550.085 766.208 551.463 767.212C550.762 769.365 549.541 773.491 550.377 775.672C551.055 775.255 550.86 775.522 551.103 774.997C552.363 777.298 554.065 779.052 556.214 780.561C555.517 782.845 554.999 783.187 556.804 785.192L556.41 786.884C554.986 785.787 553.613 784.624 552.297 783.4C546.422 777.851 541.633 773.012 541.349 764.882Z" /><path fill="#FAA330" d="M551.103 774.997C551.889 772.834 552.344 771.392 553.486 769.366L557.956 776.672L557.775 776.989C556.808 778.373 556.709 778.981 556.214 780.561C554.065 779.052 552.363 777.298 551.103 774.997Z" /><path fill="#FAA330" d="M556.214 780.561C556.709 778.981 556.808 778.373 557.775 776.989C558.81 778.403 558.228 778.194 559.455 778.498C560.645 779.21 562.496 780.4 563.682 781.005C565.032 782.828 564.717 781.858 564.902 783.928C565.464 784.926 565.102 784.6 565.835 785.053C567.963 785.83 567.537 785.948 569.23 787.979C568.574 789.694 568.53 788.91 569.013 790.401L566.999 790.555L563.533 790.322C560.494 789.123 559.242 788.49 556.41 786.884L556.804 785.192C554.999 783.187 555.517 782.845 556.214 780.561Z" /><path fill="#E35E28" d="M556.214 780.561C556.709 778.981 556.808 778.373 557.775 776.989C558.81 778.403 558.228 778.194 559.455 778.498C558.76 780.439 557.785 783.493 556.804 785.192C554.999 783.187 555.517 782.845 556.214 780.561Z" /><path fill="#FAA330" d="M565.835 785.053C567.963 785.83 567.537 785.948 569.23 787.979C568.574 789.694 568.53 788.91 569.013 790.401L566.999 790.555C565.945 787.607 565.518 788.384 565.835 785.053Z" /><path fill="#F17033" d="M563.533 790.322C563.312 787.815 563.952 786.175 564.902 783.928C565.464 784.926 565.102 784.6 565.835 785.053C565.518 788.384 565.945 787.607 566.999 790.555L563.533 790.322Z" /><path fill="#FDAB32" d="M572.12 780.646L574.858 778.472C577.593 783.961 574.357 788.491 569.013 790.401C568.53 788.91 568.574 789.694 569.23 787.979C567.537 785.948 567.963 785.83 565.835 785.053C565.102 784.6 565.464 784.926 564.902 783.928C564.717 781.858 565.032 782.828 563.682 781.005L564.417 780.712C566.087 781.596 570.003 780.861 572.12 780.646Z" /><path fill="#E35E28" d="M564.417 780.712C566.087 781.596 570.003 780.861 572.12 780.646L573.444 781.137L573.438 781.88C571.798 782.764 571.011 783.139 569.573 784.29C569.515 785.593 569.547 785.503 570.228 786.634C569.932 787.046 569.556 787.615 569.23 787.979C567.537 785.948 567.963 785.83 565.835 785.053C565.102 784.6 565.464 784.926 564.902 783.928C564.717 781.858 565.032 782.828 563.682 781.005L564.417 780.712Z" /><path fill="#E35E28" d="M559.827 774.506L560.237 774.665C562.373 775.47 563.855 775.332 565.028 775.861C563.305 776.823 564.005 776.182 562.933 777.944C563.308 779.285 563.627 779.571 564.417 780.712L563.682 781.005C562.496 780.4 560.645 779.21 559.455 778.498C558.228 778.194 558.81 778.403 557.775 776.989L557.956 776.672C558.438 776.212 559.352 775.065 559.827 774.506Z" /><path fill="#F17033" d="M598.953 620.464C602.572 620.177 606.569 621.05 608.809 624.171C609.898 625.678 610.262 627.591 609.802 629.392C609.08 632.302 606.902 633.787 604.545 635.271C594.46 637.188 589.892 627.253 598.953 620.464Z" /><path fill="#F17033" d="M548.707 684.881C550.097 686.449 549.068 690.659 552.62 696.192C554.912 697.532 557.41 698.446 559.876 699.452C551.114 703.778 551.001 703.94 549.723 713.61C548.157 712.735 547.094 706.053 546.032 703.077C542.534 702.012 541.369 701.452 538.096 699.804C550.203 695.372 545.348 694.671 548.707 684.881Z" /><path fill="#050303" d="M698.68 728.719C699.587 729.296 699.26 729.028 699.861 730.014C699.388 734.652 692.007 743.005 688.466 746.046C687.894 745.745 688.229 745.988 687.708 745.06C688.244 743.439 696.837 731.814 698.68 728.719Z" /><path fill="#FAA330" d="M643.221 791.6C644.563 791.089 646.079 791.377 647.138 792.346C648.198 793.315 648.621 794.799 648.231 796.181C647.842 797.564 646.706 798.608 645.296 798.881C643.361 799.255 641.461 798.087 640.921 796.192C640.381 794.296 641.38 792.302 643.221 791.6Z" /><path fill="#050303" d="M707.146 701.199C710.65 703.644 706.186 715.077 704.032 718.094L703.005 717.173C702.984 715.789 706.612 703.577 707.146 701.199Z" /><path fill="#050303" d="M703.928 677.408C707.102 679.743 708.433 686.161 707.872 689.901C706.03 688.557 703.462 679.796 703.928 677.408Z" /><path fill="#F17033" d="M595.781 784.729C597.029 784.226 598.449 784.818 598.971 786.057C599.493 787.296 598.924 788.725 597.693 789.267C596.879 789.625 595.936 789.517 595.224 788.984C594.513 788.451 594.144 787.575 594.259 786.693C594.375 785.812 594.956 785.061 595.781 784.729Z" /></svg>