<?xml version='1.0' encoding='utf-8'?>
<svg xmlns="http://www.w3.org/2000/svg" width="360" height="350" viewBox="430 175 360 350" fill="none"><path fill="#F17033" d="M575.354 185.448C579.269 185.794 586.483 184.905 588.841 185.358C598.006 186.759 610.531 191.662 619.596 192.2C654.271 194.257 688.695 199.557 723.334 201.863C734.247 202.59 746.1 207.452 756.103 208.019C756.2 208.189 756.297 208.359 756.394 208.529L756.857 209.388C759.857 214.841 764.191 229.663 766.663 236.142C767.876 239.322 768.29 246.38 770.259 250.039C771.25 254.811 762.183 269.404 760.12 274.026C758.575 277.489 756.303 281.728 754.744 285.284C748.187 296.59 741.534 307.766 735.21 319.206C732.17 324.705 731.338 329.857 727.497 336.045C722.688 343.794 714.12 351.946 710.353 359.565C709.159 361.979 708.396 375.432 708.015 379.278L705.359 403.654C703.429 421.309 700.807 439.037 698.786 456.886C686.907 462.327 677.02 469.372 665.835 475.666C657.261 480.491 644.906 483.469 635.927 487.941C628.078 491.937 620.06 496.652 612.099 500.746C609.076 500.062 607.479 499.72 604.268 499.293C590.284 497.432 575.859 494.88 561.996 492.344C543.33 488.929 524.643 487.385 506.184 483.255C503.54 482.663 500.934 481.941 498.239 481.573C479.472 479.062 461.394 477.024 443.03 472.083C440.097 456.06 442.3 438.786 441.643 422.448C441.259 412.913 441.852 403.96 440.808 394.295C439.667 383.725 440.941 371.872 441.339 361.125C457.88 348.84 473.448 341.805 492.171 333.454C498.473 319.82 506.015 310.601 520.445 305.08C521.881 298.794 524.577 292.279 527.186 286.395C527.75 284.07 531.984 276.076 533.242 273.404L547.115 243.726C548.807 240.188 550.043 236.364 551.657 232.794C558.426 217.815 566.189 198.987 575.354 185.448Z" /><path fill="#FAFAF6" d="M575.354 185.448C579.269 185.794 586.483 184.905 588.841 185.358C598.006 186.759 610.531 191.662 619.596 192.2C654.271 194.257 688.695 199.557 723.334 201.863C734.247 202.59 746.1 207.452 756.103 208.019C756.2 208.189 756.297 208.359 756.394 208.529L756.857 209.388C759.857 214.841 764.191 229.663 766.663 236.142C767.876 239.322 768.29 246.38 770.259 250.039L768.413 251.965C761.661 263.593 753.474 274.06 747.294 286.126C745.41 289.804 742.83 295.75 740.753 299.001C735.529 307.177 732.346 316.069 727.903 324.39C722.454 334.594 715.952 345.01 709.675 354.703C708.785 351.532 700.972 338.096 698.995 336.247C697.636 335.681 697.293 335.438 696.072 334.675C690.365 334.141 679.559 333.708 673.799 333.561C654.241 313.383 633.085 310.147 607.829 321.746C597.479 318.814 593.14 318.897 582.873 316.885C577.894 312.673 572.181 310.442 568.082 307.088C566.329 306.661 567.113 307.059 565.737 305.69C564.802 305.613 557.742 303.658 556.302 303.309C549.259 301.603 540.925 301.034 533.935 302.52C530.594 303.229 525.934 304.363 524.023 303.011L524.251 300.948C523.805 298.974 527.051 294.992 527.134 290.679L527.186 286.395C527.75 284.07 531.984 276.076 533.242 273.404L547.115 243.726C548.807 240.188 550.043 236.364 551.657 232.794C558.426 217.815 566.189 198.987 575.354 185.448Z" /><path fill="#FAFAF6" d="M524.251 300.948C527.717 296.09 536.267 274.282 539.467 268.015C545.469 255.025 553.457 242.115 559.106 229.044C564.438 216.704 568.679 205.549 574.741 193.377C579.079 202.285 590.832 221.078 596.322 229.196C594.04 233.275 590.862 238.374 589.038 242.635C585.088 251.862 580.506 260.769 576.236 269.813C573.987 274.577 573.148 281.238 571.417 286.298C569.382 293.011 567.346 298.824 565.737 305.69C564.802 305.613 557.742 303.658 556.302 303.309C549.259 301.603 540.925 301.034 533.935 302.52C530.594 303.229 525.934 304.363 524.023 303.011L524.251 300.948Z" /><path fill="#FAFAF6" d="M755.867 216.474C758.533 229.892 761.231 240.173 768.413 251.965C761.661 263.593 753.474 274.06 747.294 286.126C745.41 289.804 742.83 295.75 740.753 299.001C735.529 307.177 732.346 316.069 727.903 324.39C722.454 334.594 715.952 345.01 709.675 354.703C708.785 351.532 700.972 338.096 698.995 336.247C700.859 329.001 709.723 315.582 713.219 308.488C717.39 300.023 721.837 291.565 726.125 283.184C737.244 261.504 747.173 239.234 755.867 216.474Z" /><path fill="#F17033" d="M575.354 185.448C579.269 185.794 586.483 184.905 588.841 185.358C598.006 186.759 610.531 191.662 619.596 192.2C654.271 194.257 688.695 199.557 723.334 201.863C734.247 202.59 746.1 207.452 756.103 208.019C756.2 208.189 756.297 208.359 756.394 208.529L756.857 209.388C759.857 214.841 764.191 229.663 766.663 236.142C767.876 239.322 768.29 246.38 770.259 250.039L768.413 251.965C761.231 240.173 758.533 229.892 755.867 216.474C747.173 239.234 737.244 261.504 726.125 283.184C721.837 291.565 717.39 300.023 713.219 308.488C709.723 315.582 700.859 329.001 698.995 336.247C697.636 335.681 697.293 335.438 696.072 334.675C700.644 321.44 708.305 308.802 714.359 296.014C722.398 279.031 730.683 261.281 739.517 244.691L740.613 242.181C741.4 240.823 743.418 235.185 744.196 233.273C747.052 226.215 749.995 219.192 753.023 212.206C745.319 210.938 737.644 208.925 729.964 207.765C724.078 206.597 716.123 207.432 710.434 206.268C697.507 203.621 683.993 203.957 671.257 202.233C646.879 198.932 622.492 195.47 598.014 192.781C592.521 192.178 581.63 189.195 576.678 189.977C574.964 190.505 575.67 190.037 574.526 191.488C574.536 192.384 574.402 192.687 574.741 193.377C568.679 205.549 564.438 216.704 559.106 229.044C553.457 242.115 545.469 255.025 539.467 268.015C536.267 274.282 527.717 296.09 524.251 300.948C523.805 298.974 527.051 294.992 527.134 290.679L527.186 286.395C527.75 284.07 531.984 276.076 533.242 273.404L547.115 243.726C548.807 240.188 550.043 236.364 551.657 232.794C558.426 217.815 566.189 198.987 575.354 185.448Z" /><path fill="#050303" d="M574.741 193.377C574.402 192.687 574.536 192.384 574.526 191.488C575.67 190.037 574.964 190.505 576.678 189.977C579.427 194.589 582.206 199.167 584.811 203.863C589.443 212.215 592.511 220.96 599.521 227.665C595.526 238.278 591.54 249.046 587.481 259.634C581.056 276.397 573.316 289.456 568.082 307.088C566.329 306.661 567.113 307.059 565.737 305.69C567.346 298.824 569.382 293.011 571.417 286.298C573.148 281.238 573.987 274.577 576.236 269.813C580.506 260.769 585.088 251.862 589.038 242.635C590.862 238.374 594.04 233.275 596.322 229.196C590.832 221.078 579.079 202.285 574.741 193.377Z" /><path fill="#050303" d="M739.517 244.691C717.391 240.239 692.559 239.545 670.015 237.93C657.785 237.054 645.382 234.548 633.195 232.773C623.499 231.361 610.282 230.931 601.055 228.574L600.866 227.789L600.2 227.975C603.537 225.677 643.164 230.929 649.751 231.239C656.056 231.536 666.267 231.981 672.962 232.315C678.258 232.578 686.867 234.379 692.02 235.184L717.562 238.969C725.321 240.177 732.869 240.781 740.613 242.181L739.517 244.691Z" /><path fill="#050303" d="M770.259 250.039C771.25 254.811 762.183 269.404 760.12 274.026C758.575 277.489 756.303 281.728 754.744 285.284C748.187 296.59 741.534 307.766 735.21 319.206C732.17 324.705 731.338 329.857 727.497 336.045C722.688 343.794 714.12 351.946 710.353 359.565C709.159 361.979 708.396 375.432 708.015 379.278L705.359 403.654C703.429 421.309 700.807 439.037 698.786 456.886C686.907 462.327 677.02 469.372 665.835 475.666C657.261 480.491 644.906 483.469 635.927 487.941C628.078 491.937 620.06 496.652 612.099 500.746C612.22 499.57 612.775 497.789 613.106 496.554C612.232 487.428 615.421 478.273 616.636 469.437C619.793 446.492 622.062 423.337 622.611 400.154C620.431 398.425 617.774 398.479 614.896 398.1C614.921 394.199 615.029 386.461 613.591 382.908C601.069 351.96 551.551 347.45 531.622 373.463C529.269 376.535 527.255 380.964 525.517 384.457C511.3 382.27 489.31 379.907 477.605 371.073C488.773 345.052 520.724 332.789 546.444 344.85C548.498 345.813 558.335 350.826 560.045 350.591C573.358 344.636 585.668 341.836 599.28 347.685C600.782 348.33 606.689 350.935 607.828 351.312C608.837 350.03 608.733 349.973 610.196 349.334C607.507 345.054 602.388 343.529 597.666 341.265C596.892 337.196 596.314 334.974 595.077 331.015C592.774 328.683 590.539 323.841 586.63 319.896C584.815 318.686 584.418 318.399 582.873 316.885C593.14 318.897 597.479 318.814 607.829 321.746C633.085 310.147 654.241 313.383 673.799 333.561C679.559 333.708 690.365 334.141 696.072 334.675C697.293 335.438 697.636 335.681 698.995 336.247C700.972 338.096 708.785 351.532 709.675 354.703C715.952 345.01 722.454 334.594 727.903 324.39C732.346 316.069 735.529 307.177 740.753 299.001C742.83 295.75 745.41 289.804 747.294 286.126C753.474 274.06 761.661 263.593 768.413 251.965L770.259 250.039Z" /><path fill="#FAFAF6" d="M622.611 400.154C633.493 395.459 644.221 391.724 654.878 386.388C660.034 383.806 664.746 379.944 669.543 377.825C683.005 371.877 694.285 368.044 706.98 360.157C704.355 374.625 702.654 389.625 699.953 404.162C698.626 411.302 699.613 419.614 697.185 426.853C695.065 434.119 695.155 440.848 696.065 448.273C696.429 451.241 696.642 454.014 693.836 455.535C675.561 465.444 656.407 473.387 638.272 483.715C630.148 488.342 621.07 491.147 613.106 496.554C612.232 487.428 615.421 478.273 616.636 469.437C619.793 446.492 622.062 423.337 622.611 400.154Z" /><path fill="#E35E28" d="M698.893 370.04C699.928 371.206 696.209 407.563 694.882 408.832C693.655 406.738 695.614 394.978 696.038 392.084C696.856 385.176 697.565 378.256 698.165 371.326C694.102 375.183 691.66 376.381 686.364 377.672L686.007 377.387C689.138 375.115 694.788 372.672 698.893 370.04Z" /><path fill="#F17033" d="M695.411 375.396L695.765 375.75C695.998 379.369 691.64 378.214 694.781 383.028C692.756 382.703 692.52 382.574 691.972 380.786C692.536 378.59 693.96 377.204 695.411 375.396Z" /><path fill="#FDAB32" d="M610.196 349.334C626.692 334.39 659.018 333.383 674.066 350.681C678.73 356.043 680.76 361.993 683.186 368.501C675.446 371.577 667.103 374.742 659.571 378.213C648.856 383.151 640.891 390.182 629.413 393.32C630.343 375.102 624.386 360.503 607.828 351.312C608.837 350.03 608.733 349.973 610.196 349.334Z" /><path fill="#050303" d="M639.938 365.018C647.863 364.571 650.146 369.956 643.683 374.59C636.547 374.735 632.348 369.252 639.938 365.018Z" /><path fill="#050303" d="M649.529 348.019C650.828 347.224 652.456 347.2 653.778 347.957C655.1 348.713 655.905 350.129 655.878 351.651C655.852 353.174 654.998 354.561 653.651 355.271C651.658 356.32 649.192 355.599 648.079 353.641C646.966 351.683 647.607 349.195 649.529 348.019Z" /><path fill="#050303" d="M626.312 347.035C627.538 346.395 629.018 346.491 630.151 347.283C631.284 348.076 631.881 349.433 631.7 350.804C631.519 352.175 630.59 353.331 629.29 353.802C627.457 354.467 625.421 353.597 624.636 351.812C623.85 350.026 624.583 347.938 626.312 347.035Z" /><path fill="#050303" d="M665.104 362.861C666.804 361.714 669.113 362.17 670.25 363.877C671.387 365.584 670.918 367.891 669.204 369.018C667.504 370.135 665.221 369.67 664.094 367.977C662.966 366.284 663.417 363.998 665.104 362.861Z" /><path fill="#FAFAF6" d="M586.63 319.896C590.185 320.124 600.717 320.603 602.888 323.051C603.158 326.311 597.627 329.225 595.077 331.015C592.774 328.683 590.539 323.841 586.63 319.896Z" /><path fill="#FAFAF6" d="M695.668 336.293C696.2 336.216 695.836 336.22 696.692 336.672C698.045 342.859 700.216 344.51 703.119 350.027C704.066 351.827 705.027 355.1 705.637 357.143L705.603 357.143C703.101 353.959 697.157 353.77 692.942 353.108C690.354 352.574 686.824 352.148 684.135 351.754C681.658 345.734 679.44 341.706 675.846 336.285C683.21 336.672 688.387 336.797 695.668 336.293Z" /><path fill="#FAFAF6" d="M684.874 354.622C688.34 355.577 698.733 356.858 700.492 358.554L700.917 360.553C695.687 362.611 690.342 365.186 685.266 367.614C686.149 362.24 685.722 359.929 684.874 354.622Z" /><path fill="#FAFAF6" d="M495.471 362.867C497.955 362.068 500.628 363.371 501.528 365.82C502.428 368.27 501.236 370.993 498.825 371.993C497.176 372.678 495.284 372.403 493.896 371.278C492.509 370.154 491.85 368.359 492.178 366.604C492.507 364.848 493.771 363.414 495.471 362.867Z" /><path fill="#FAFAF6" d="M518.937 372.152C520.312 371.436 521.969 371.532 523.252 372.403C524.535 373.274 525.237 374.778 525.079 376.321C524.921 377.864 523.93 379.195 522.497 379.788C520.412 380.651 518.016 379.719 517.062 377.674C516.109 375.628 516.935 373.194 518.937 372.152Z" /><path fill="#FAFAF6" d="M517.171 350.881C519.322 350.36 521.508 351.593 522.175 353.702C522.842 355.812 521.761 358.077 519.702 358.887C518.239 359.463 516.577 359.174 515.393 358.14C514.209 357.105 513.701 355.497 514.075 353.969C514.449 352.442 515.643 351.251 517.171 350.881Z" /><path fill="#FAFAF6" d="M541.65 349.17C543.598 348.703 545.556 349.903 546.023 351.852C546.491 353.8 545.291 355.758 543.342 356.226C541.394 356.693 539.435 355.493 538.968 353.544C538.5 351.595 539.701 349.637 541.65 349.17Z" /><path fill="#FAFAF6" d="M624.597 330.698C626.383 329.872 628.502 330.624 629.367 332.392C630.232 334.159 629.527 336.294 627.779 337.198C626.613 337.801 625.213 337.726 624.118 337.002C623.024 336.277 622.408 335.018 622.507 333.709C622.606 332.401 623.406 331.249 624.597 330.698Z" /><path fill="#FAFAF6" d="M593.891 351.211C599.008 352.056 599.924 355.148 597.061 359.056C594.199 358.393 592.757 357.994 591.854 355.065C592.169 353.03 592.496 352.862 593.891 351.211Z" /><path fill="#FAFAF6" d="M636.78 321.711C638.324 320.643 640.441 321.021 641.519 322.558C642.597 324.095 642.232 326.214 640.701 327.302C639.158 328.399 637.016 328.03 635.929 326.479C634.841 324.929 635.223 322.789 636.78 321.711Z" /><path fill="#FAFAF6" d="M655.146 327.74C656.789 327.124 658.626 327.91 659.315 329.523C660.004 331.137 659.301 333.007 657.72 333.768C656.632 334.291 655.345 334.175 654.368 333.465C653.392 332.755 652.884 331.566 653.047 330.37C653.209 329.174 654.016 328.163 655.146 327.74Z" /><path fill="#FAFAF6" d="M608.956 330.245C611.511 330.859 612.569 331.074 613.365 333.71C612.984 335.454 612.69 335.476 611.353 336.664C608.557 336.554 607.138 336.726 606.446 333.855C607.057 331.839 607.341 331.741 608.956 330.245Z" /><path fill="#FAFAF6" d="M608.046 361.341C608.964 360.606 610.213 360.438 611.292 360.906C612.372 361.373 613.105 362.399 613.197 363.571C613.289 364.744 612.726 365.871 611.732 366.501C610.309 367.405 608.427 367.038 607.447 365.666C606.467 364.294 606.73 362.395 608.046 361.341Z" /><path fill="#FAFAF6" d="M615.071 373.17C616.561 372.28 618.491 372.77 619.378 374.262C620.265 375.755 619.772 377.684 618.278 378.568C616.788 379.45 614.865 378.958 613.981 377.47C613.096 375.981 613.584 374.058 615.071 373.17Z" /><path fill="#FAFAF6" d="M577.346 349.825C579.914 350.08 581.132 350.187 582.056 352.715C581.611 354.708 581.837 354.028 580.257 355.678C577.674 355.41 576.371 355.669 575.317 353.084C575.559 351.385 576.135 351.055 577.346 349.825Z" /><path fill="#FAFAF6" d="M667.321 337.793C668.114 337.163 669.189 337.021 670.119 337.423C671.048 337.825 671.68 338.707 671.763 339.716C671.846 340.725 671.366 341.698 670.515 342.247C669.286 343.039 667.651 342.728 666.799 341.54C665.947 340.351 666.176 338.703 667.321 337.793Z" /><path fill="#FAFAF6" d="M620.877 386.156C621.629 385.616 622.619 385.541 623.444 385.961C624.269 386.382 624.791 387.227 624.797 388.153C624.802 389.079 624.291 389.93 623.471 390.36C622.319 390.964 620.897 390.575 620.214 389.468C619.531 388.361 619.82 386.915 620.877 386.156Z" /><path fill="#F9F0EB" d="M700.492 358.554C702.403 357.889 701.475 357.939 703.371 358.26L703.277 359.157C702.225 359.861 702.055 360.034 700.917 360.553L700.492 358.554Z" /><path fill="#FAFAF6" d="M529.362 335.825C532.43 336.147 540.558 338.261 542.7 338.239C545.488 338.348 557.809 345.08 560.511 346.95C560.976 348.548 560.592 348.665 560.045 350.591C558.335 350.826 548.498 345.813 546.444 344.85C520.724 332.789 488.773 345.052 477.605 371.073C475.384 370.8 464.998 367 462.142 366.029C456.98 364.276 453.964 363.579 448.643 362.423C452.319 358.85 485.306 340.618 490.973 338.418C490.442 342.378 490.064 345.732 489.781 349.713C496.399 343.778 498.609 342.443 506.783 338.754L510.501 337.179C516.518 335.75 523.156 335.92 529.362 335.825Z" /><path fill="#050303" d="M529.362 335.825L528.737 335.217C529.802 328.348 541.609 323.849 542.7 338.239C540.558 338.261 532.43 336.147 529.362 335.825Z" /><path fill="#050303" d="M506.783 338.754C504.375 337.996 503.759 337.908 502.557 335.658C502.296 329.81 510.925 327.294 510.501 337.179L506.783 338.754Z" /><path fill="#FAFAF6" d="M444.39 363.731C457.312 368.719 471.086 376.374 483.817 380.21C509.253 387.188 534.755 387.194 560.445 392.918C579.37 397.135 599.822 398.282 619.245 401.371C620.007 412.844 615.649 431.016 614.002 442.684C613.437 446.69 613.718 451.202 613.295 455.183C612.171 465.764 610.971 476.327 609.647 486.883C609.354 490.146 609.082 493.411 608.832 496.678C596.425 494.318 583.784 492.04 571.343 489.669C561.427 487.619 548.205 487.272 538.533 484.614C516.731 478.621 496.149 475.603 473.699 473.352C464.528 472.432 455.305 470.394 446.019 469.375C446.097 460.678 445.606 452.763 445.536 444.249L444.39 363.731Z" /><path fill="#F17033" d="M507.892 390.45L509.678 391.777C512.779 392.451 522.576 393.024 523.647 395.408C528.101 396.077 532.243 394.144 537.608 395.097C543.653 395.579 552.593 395.929 556.898 400.776C562.699 407.309 560.787 418.595 553.719 423.445C544.011 430.106 532.19 422.691 523.443 417.903C527.064 428.875 529.822 438.182 537.784 447.172C540.465 450.199 545.945 454.873 547.979 457.976C545.879 461.684 532.729 455.588 529.659 454.188C530.301 456.832 532.954 465.614 531.814 467.505C524.632 465.332 516.217 441.482 515.45 433.993C515.072 430.305 517.204 416.181 516.122 414.206L511.896 413.528C502.421 412.109 505.532 403.972 506.302 396.892C506.532 394.769 507.069 392.41 507.892 390.45Z" /><path fill="#F17033" d="M507.892 390.45L509.678 391.777C512.779 392.451 522.576 393.024 523.647 395.408C528.101 396.077 532.243 394.144 537.608 395.097C534.963 396.565 528.682 397.29 525.495 397.772C526.035 405.023 526.253 415.08 516.122 414.206L511.896 413.528C502.421 412.109 505.532 403.972 506.302 396.892C506.532 394.769 507.069 392.41 507.892 390.45Z" /><path fill="#050303" d="M507.892 390.45L509.678 391.777C509.091 395.977 506.664 405.685 508.184 409.22C509.432 412.121 518.348 413.184 520.749 411.003C524.571 407.605 522.644 399.994 523.647 395.408C528.101 396.077 532.243 394.144 537.608 395.097C534.963 396.565 528.682 397.29 525.495 397.772C526.035 405.023 526.253 415.08 516.122 414.206L511.896 413.528C502.421 412.109 505.532 403.972 506.302 396.892C506.532 394.769 507.069 392.41 507.892 390.45Z" /><path fill="#FAFAF6" d="M526.091 406.447C530.444 406.323 548.126 409.255 550.321 413.254C550.569 414.93 550.23 415.341 549.549 416.882C542.381 418.106 533.157 413.975 527.361 409.852C526.044 408.914 526.224 407.877 526.091 406.447Z" /><path fill="#F17033" d="M497.864 412.954C482.712 413.409 458.397 410.697 469.603 387.066C471.544 382.971 480.258 381.552 484.664 380.562C492.048 383.412 500.911 388.046 507.892 390.45C507.069 392.41 506.532 394.769 506.302 396.892C505.532 403.972 502.421 412.109 511.896 413.528C498.399 431.278 499.622 448.285 498.555 469.245C491.508 461.467 491.104 456.448 489.236 446.582C483.986 449.413 480.904 451.181 475.166 452.738C472.604 452.136 470.737 451.415 468.279 450.526C480.1 438.175 486.046 424.789 497.864 412.954Z" /><path fill="#FAFAF6" d="M477.621 394.035C478.271 393.998 478.922 393.97 479.573 393.951C483.892 393.827 499.711 397.581 503.758 400.196C504.204 400.484 503.962 400.996 503.863 401.641L502.817 402.384C497.193 402.636 478.38 403.024 475.926 397.07C476.101 395.436 476.504 395.276 477.621 394.035Z" /><path fill="#F17033" d="M604.427 479.795C604.596 477.834 604.85 471.081 606.065 469.972C606.797 473.65 605.996 486.911 605.865 491.542C597.681 489.437 589.759 486.913 581.285 484.693L581.319 484.205C584.812 483.159 594.918 486.673 599 487.813C599.084 487.492 599.128 486.241 599.151 485.855C601.048 484.332 600.194 483.19 601.846 481.603L602.306 482.095L602.994 482.088L604.427 479.795Z" /><path fill="#F9F0EB" d="M599 487.813C599.084 487.492 599.128 486.241 599.151 485.855C601.048 484.332 600.194 483.19 601.846 481.603L602.306 482.095L602.994 482.088L604.427 479.795C604.391 483.001 604.45 486.357 604.074 489.525L599 487.813Z" /><path fill="#E35E28" d="M453.954 444.279C455.71 445.882 454.119 460.41 453.891 463.479C460.785 463.868 469.595 463.39 476.617 466.275C477.422 466.605 477.234 466.871 477.531 467.977C474.923 467.729 471.39 466.806 468.555 466.453C463.087 465.773 457.811 465.293 452.318 464.861C452.911 459.37 452.754 448.624 453.954 444.279Z" /><path fill="#F17033" d="M456.765 458.868C459.742 459.508 459.942 460.692 461.088 463.287C458.455 462.389 458.015 461.251 456.765 458.868Z" /><path fill="#050303" d="M518.771 315.214C520.708 314.746 522.746 315.354 524.109 316.808C525.471 318.262 525.947 320.336 525.353 322.238C524.76 324.14 523.19 325.576 521.242 325.997C518.282 326.638 515.357 324.779 514.681 321.826C514.004 318.874 515.827 315.927 518.771 315.214Z" /><path fill="#050303" d="M576.912 382.879C584.099 382.46 586.29 387.437 580.706 392.257C572.932 392.857 571.733 387.728 576.912 382.879Z" /><path fill="#050303" d="M555.766 325.493C558.034 324.32 560.822 325.188 562.023 327.441C563.225 329.693 562.392 332.492 560.155 333.722C558.683 334.532 556.889 334.486 555.459 333.604C554.029 332.721 553.184 331.138 553.248 329.459C553.312 327.779 554.274 326.264 555.766 325.493Z" /><path fill="#050303" d="M543.568 309.792C545.908 309.158 548.33 310.493 549.044 312.81C549.759 315.127 548.509 317.593 546.219 318.388C544.664 318.927 542.939 318.575 541.721 317.47C540.502 316.365 539.983 314.683 540.368 313.083C540.753 311.484 541.98 310.221 543.568 309.792Z" /><path fill="#050303" d="M579.085 328.125C580.501 327.671 582.052 328.029 583.126 329.057C584.199 330.086 584.623 331.62 584.23 333.054C583.837 334.489 582.691 335.592 581.242 335.93C579.125 336.424 576.996 335.159 576.416 333.063C575.837 330.968 577.015 328.788 579.085 328.125Z" /><path fill="#050303" d="M581.181 366.386C582.97 365.22 585.362 365.685 586.583 367.437C587.804 369.189 587.412 371.594 585.698 372.869C584.542 373.729 583.009 373.891 581.698 373.292C580.387 372.694 579.506 371.429 579.399 369.992C579.291 368.555 579.974 367.173 581.181 366.386Z" /><path fill="#050303" d="M559.484 363.96C565.046 363.997 567.33 368.22 561.968 371.712C558.939 371.367 557.212 370.674 556.688 367.56C557.24 365.548 557.77 365.367 559.484 363.96Z" /><path fill="#050303" d="M598.619 377.786C600.405 377.284 602.269 378.284 602.84 380.049C603.411 381.815 602.484 383.716 600.742 384.355C599.553 384.79 598.222 384.541 597.271 383.705C596.321 382.868 595.904 381.579 596.185 380.345C596.466 379.111 597.4 378.129 598.619 377.786Z" /><path fill="#050303" d="M564.557 314.167C565.664 313.578 567.004 313.643 568.05 314.336C569.095 315.029 569.677 316.238 569.566 317.487C569.455 318.736 568.669 319.824 567.518 320.322C565.835 321.051 563.876 320.32 563.081 318.667C562.286 317.014 562.937 315.028 564.557 314.167Z" /><path fill="#050303" d="M539.452 377.116C540.434 376.57 541.635 376.601 542.587 377.197C543.54 377.792 544.093 378.858 544.033 379.98C543.972 381.101 543.307 382.101 542.296 382.591C540.792 383.318 538.983 382.717 538.213 381.235C537.443 379.753 537.993 377.927 539.452 377.116Z" /><path fill="#050303" d="M553.697 383.344C554.87 382.365 556.615 382.522 557.594 383.695C558.572 384.869 558.414 386.614 557.24 387.592C556.067 388.569 554.324 388.411 553.346 387.238C552.368 386.066 552.525 384.323 553.697 383.344Z" /><path fill="#F17033" d="M481.664 105.063C483.802 105.912 488.398 108.098 490.424 107.289C496.335 104.931 499.963 90.2077 504.371 88.4033C506.568 89.702 510.96 108.57 510.873 111.998C510.648 120.822 516.749 129.798 523.537 118.435C526.862 112.87 528.707 98.2299 533.522 93.3973C537.718 95.3433 537.073 101.844 547.118 98.1654C554.176 95.5808 558.373 90.6308 564.369 87.0751C563.024 93.2058 558.562 104.307 561.336 110.169C562.411 112.44 569.237 111.939 571.741 112.152C566.887 120.343 549.673 133.899 549.45 142.161C549.913 142.966 550.316 143.946 551.447 143.942C560.179 143.916 567.926 137.309 576.957 135.699C573.644 145.285 574.975 145.191 584.167 148.359C575.908 155.139 565.895 157.627 558.961 166.988C559.919 170.256 560.725 172.757 561.923 175.94L561.101 175.934C555.745 175.869 550.665 174.93 545.365 174.639C528.959 173.737 533.728 188.79 536.688 199.359C529.594 194.824 522.598 188.995 514.678 187.922C513.881 189.554 513.489 190.953 511.957 191.772C509.249 190.637 507.687 175.437 505.752 170.883C503.092 170.152 502.072 169.761 499.274 169.679L497.42 168.957C497.113 168.68 496.806 168.403 496.499 168.126C488.317 167.28 481.73 167.914 473.857 165.322C479.038 157.572 481.463 153.106 475.487 144.554C471.801 139.281 468.65 135.028 467.479 128.471C493.835 132.624 484.878 123.471 481.664 105.063Z" /><path fill="#050303" d="M552.966 100.803C553.49 101.094 553.143 100.863 553.821 101.713C553.335 103.883 539.467 119.261 536.86 122.361C541.094 121.242 554.023 115.677 556.818 116.93C556.572 119.372 537.271 122.599 534.771 125.416C526.026 135.273 516.074 146.854 508.501 157.514C516.693 157.978 525.423 158.347 533.57 157.132C536.658 156.672 540.303 152.881 543.322 151.159L543.652 151.99C542.573 153.997 541.091 154.882 539.277 156.309C541.742 156.034 548.097 155.416 550.197 154.744C556.883 152.604 560.498 147.58 567.567 144.7C564.142 148.18 560.683 150.707 556.839 153.663C559.397 153.46 568.517 152.093 569.786 154.24C568.417 155.216 563.64 154.822 561.519 154.989C554.078 155.576 546.372 156.889 539.009 158.139C542.951 161.245 549.282 165.837 552.21 169.618C547.844 167.244 539.526 161.808 536.225 158.305C531.163 159.285 526.01 159.712 520.856 159.579C517.259 159.496 508.363 158.296 506.334 161.045C507.213 162.964 508.691 163.795 509.85 165.156C515.854 172.203 520.41 171.405 527.817 174.796L527.695 175.21C523.028 175.364 520.994 174.551 516.606 173.172C519.236 179.125 523.603 182.422 526.763 189.939C523.76 187.638 522.692 185.579 520.619 182.435C515.761 176.233 512.06 166.228 504.501 162.661C504.003 162.968 503.505 163.275 503.007 163.582L502.162 164.127C501.855 162.991 502.291 162.772 502.95 161.371C501.405 159.252 500.764 157.992 499.545 155.711C498.155 155.277 496.776 154.808 495.41 154.302C489.982 152.247 481.828 147.018 479.354 141.603L479.621 141.056C481.501 141.406 483.63 145.119 485.573 146.729C489.717 150.165 493.951 152.057 498.902 153.877C495.406 140.544 496.261 134.122 497.285 120.411C493.99 118.389 492.854 117.33 490.511 114.27L490.709 113.212L490.257 113.876L490.352 113.987L489.956 113.203L490.389 112.908C493.311 114.331 495.041 116.541 497.369 118.892C497.753 116.678 499.099 107.267 500.767 106.384C500.853 110.839 500.271 113.392 499.46 117.822C502.105 114.833 506.001 109.894 509.173 107.894C506.152 112.775 502.562 116.415 498.735 120.642C498.169 126.911 497.821 132.504 497.959 138.795C501.578 135.576 502.463 133.398 507.206 129.943C506.477 131.98 499.625 139.562 498.032 141.265C499.208 147.917 500.252 154.539 504.449 159.963C508.488 153.822 514.777 146.55 519.474 140.695C523.959 135.106 529.147 128.241 534.054 123.24C534.041 118.401 534.093 112.767 535.518 108.133C536.205 109.74 535.921 117.929 535.903 120.255C541.154 113.874 547.381 106.936 552.966 100.803Z" /><path fill="#050303" d="M375.319 181.687C381.983 167.347 396.314 158.132 412.127 158.017C427.939 157.903 442.402 166.91 449.274 181.152C456.145 195.394 454.195 212.32 444.265 224.626C431.283 240.714 408.34 244.592 390.793 233.663C373.245 222.735 366.606 200.434 375.319 181.687Z" /><path fill="#FDAB32" d="M375.319 181.687C381.983 167.347 396.314 158.132 412.127 158.017C427.939 157.903 442.402 166.91 449.274 181.152C456.145 195.394 454.195 212.32 444.265 224.626L442.822 220.562C450.172 209.138 450.664 194.604 444.105 182.709C437.545 170.813 424.991 163.474 411.408 163.592C397.824 163.711 385.4 171.27 379.05 183.278C376.131 183.045 377.28 185.716 374.503 187.586C374.846 185.493 374.944 185.148 375.719 183.141L375.916 182.64L375.319 181.687Z" /><path fill="#FAA330" d="M375.319 181.687L375.916 182.64L375.719 183.141C374.944 185.148 374.846 185.493 374.503 187.586C377.28 185.716 376.131 183.045 379.05 183.278C369.792 200.785 375.975 222.479 393.072 232.475C410.169 242.471 432.107 237.218 442.822 220.562L444.265 224.626C431.283 240.714 408.34 244.592 390.793 233.663C373.245 222.735 366.606 200.434 375.319 181.687Z" /><path fill="#FDAB32" d="M419.226 234.44C404.788 237.645 389.903 231.367 382.121 218.791C374.339 206.215 375.363 190.092 384.673 178.602C393.984 167.111 409.544 162.766 423.46 167.772C435.35 172.048 443.984 182.438 446.013 194.91C448.042 207.382 443.145 219.973 433.223 227.798C429.117 231.036 424.332 233.307 419.226 234.44Z" /><path fill="url(#gradient_0)" d="M423.46 167.772C435.35 172.048 443.984 182.438 446.013 194.91C448.042 207.382 443.145 219.973 433.223 227.798C431.194 227.559 431.723 228.377 429.449 227.985L429.042 227.28C429.911 226.847 430.411 226.58 431.231 226.062L430.768 225.261C429.331 225.175 429.436 225.152 428.298 224.241C431.89 220.652 434.085 220.699 436.693 218.296L435.525 218.499L435.346 218.022C437.572 213.814 439.632 209.495 441.748 205.237C442.312 204.898 442.875 204.558 443.438 204.219C441.176 201.605 438.604 196.056 440.116 192.654C438.911 186.005 436.357 184.445 431.388 180.09L427.964 177.369C428.735 175.757 428.456 175.745 427.813 174.315C425.891 172.017 426.751 171.362 423.711 170.38L423.46 167.772Z" /><path fill="#E35E28" d="M435.456 179.007C439.389 182.489 440.555 184.86 442.277 189.901C441.639 190.777 440.883 191.952 440.116 192.654C438.911 186.005 436.357 184.445 431.388 180.09C432.922 179.937 434.005 179.492 435.456 179.007Z" /><path fill="#E35E28" d="M440.116 192.654C440.883 191.952 441.639 190.777 442.277 189.901C442.705 191.995 443.366 194.509 443.279 196.591C441.497 198.166 441.907 196.238 441.485 198.041L441.882 198.605C442.631 199.688 444.844 202.909 443.438 204.219C441.176 201.605 438.604 196.056 440.116 192.654Z" /><path fill="#F17033" d="M427.813 174.315C431.317 174.978 432.822 176.651 435.456 179.007C434.005 179.492 432.922 179.937 431.388 180.09L427.964 177.369C428.735 175.757 428.456 175.745 427.813 174.315Z" /><path fill="#F5892A" d="M419.5 227.549C423.537 227.467 424.627 228.992 427.584 226.143C427.763 224.971 427.548 225.287 428.298 224.241C429.436 225.152 429.331 225.175 430.768 225.261L431.231 226.062C430.411 226.58 429.911 226.847 429.042 227.28L429.449 227.985C431.723 228.377 431.194 227.559 433.223 227.798C429.117 231.036 424.332 233.307 419.226 234.44L420.364 233.211C423.089 232.575 423.784 232.292 426.331 231.105C426.829 229.767 426.786 230.44 426.226 229.039L424.944 229.008L424.293 229.403C421.641 230.983 420.853 231.751 417.784 230.709C419.243 230.387 421.358 229.823 422.507 228.899L422.096 228.182L419.5 227.549Z" /><path fill="#050303" d="M410.753 178.202C418.652 177.748 428.614 181.021 432.881 187.816C447.207 210.572 416.664 235.064 399.502 211.477C389.996 198.413 405.101 182.413 417.435 187.165C420.24 188.216 422.462 190.416 423.541 193.21C427.065 202.357 417.459 212.109 409.898 207.646C408.302 206.706 407.183 205.13 406.821 203.313C406.485 201.65 406.833 199.921 407.785 198.517C410.535 194.507 416.826 194.106 416.617 200.483C415.579 202.373 416.274 201.609 414.375 202.787L414.086 202.508C414.4 200.914 414.992 199.316 414.315 197.98L413.147 197.71C400.499 201.273 416.116 213.587 421.553 201.1C426.039 190.798 414.634 186.519 405.883 190.579L405.269 190.869C386.513 203.326 411.203 228.129 426.561 215.02C430.17 211.94 434.569 204.818 434.462 199.999C433.871 173.52 389.652 173.834 390.142 201.517C390.304 212.266 395.755 220.357 406.504 223.302C408.355 223.809 411.096 223.675 412.226 224.812C411.694 226.249 412.156 225.757 410.901 226.429C380.102 222.301 380.191 180.603 410.753 178.202Z" /><path fill="#FDAB32" d="M772.065 437.5C769.545 431.135 758.568 409.262 760.596 404.234C763.558 400.698 771.009 402.309 769.729 393.676C769.022 388.905 767.384 376.828 775.478 375.396C778.65 374.835 781.469 381.734 784.394 383.38C791.173 382.644 784.43 348.387 800.316 360.342C804.388 363.407 805.029 369.467 809.721 370.146C816.264 368.289 825.473 345.721 832.693 363.566C835.774 371.179 820.864 382.863 826.477 388.646C830.054 390.054 845.293 386.593 840.117 395.696C835.404 403.984 826.546 409.686 821.373 418.558C824.04 420.33 834.67 426.797 830.92 431.668C826.23 437.76 815.145 436.236 808.787 439.047C807.36 439.657 804.723 443.999 803.058 445.54C790.128 443.945 786.491 442.859 774.758 437.281C771.791 441.327 767.427 447.746 763.83 450.948C765.926 445.4 768.639 442.211 772.065 437.5Z" /><path fill="#050303" d="M785.324 419.048C796.469 403.808 807.758 388.672 819.188 373.644C820.75 371.617 825.255 364.963 827.144 364.478L827.876 365.224C827.255 367.757 821.701 372.715 819.817 375.415C811.9 386.761 802.339 398.445 794.853 409.932C798.745 408.945 825.566 402.008 827.634 402.549C825.159 405.627 817.78 406.107 813.872 406.932C807.183 408.345 799.917 410.99 793.241 411.893C789.845 416.674 786.129 421.73 782.88 426.574C786.82 426.508 813.254 426.35 815.268 427.714L815.061 428.442C812.871 429.256 786.089 428.133 781.392 428.168C778.836 431.405 777.036 433.85 774.758 437.281C771.791 441.327 767.427 447.746 763.83 450.948C765.926 445.4 768.639 442.211 772.065 437.5C776.14 431.987 780.082 426.692 783.882 420.984C781.077 410.236 778.262 395.574 777.073 384.503L777.384 384.188C780.439 389.664 782.986 410.815 785.324 419.048Z" /><path fill="#050303" d="M830.756 251.078C839.484 250.014 843.716 252.941 845.813 261.035C844.44 266.018 842.845 269.047 840.552 273.978C838.057 279.345 830.414 287.687 829.782 293.009C829.796 297.512 838.274 295.146 839.69 298.156C847.448 314.654 819.478 312.844 815.815 316.27C816.883 318.744 822.612 320.621 822.72 322.951C823.102 331.224 809.195 330.367 804.216 330.675C797.601 331.084 791.682 331.357 785.539 332.179C782.314 335.803 779.273 340.153 775.928 343.782C772.208 347.817 768.098 351.473 764.045 355.17C762.864 356.167 762.951 356.158 761.507 356.664L760.463 356.092C760.182 354.43 768.007 348.245 769.733 346.802C775.926 341.625 779.963 335.026 784.527 328.466C781.287 323.168 772.53 306.155 774.696 299.032C775.801 295.396 782.061 299.744 784.965 298.891C788.937 294.231 778.445 284.781 783.87 279.712C789.686 274.278 792.037 282.649 797.19 282.758C804.613 279.651 799.002 264.289 805.227 259.367C809.431 256.042 815.29 264.739 817.111 267.285C822.706 260.069 820.926 253.778 830.756 251.078Z" /><path fill="#B15325" d="M782.958 305.869C784.657 307.487 787.42 317.897 788.023 320.613C785.577 317.954 783.441 309.48 782.958 305.869Z" /><path fill="#F17033" d="M672.457 135.962C684.887 129.133 701.834 127.447 715.809 127.133C719.125 127.348 727.173 125.71 729.325 128.782C730.694 130.738 729.29 132.372 732.506 133.883C741.943 138.319 754.229 141.531 763.16 146.61L760.854 151.379C766.255 164.972 783.942 171.595 791.388 182.052C778.474 181.229 759.056 176.227 747.373 177.592L744.287 184.819C739.229 180.699 727.343 169.34 721.062 170.183C720.123 170.309 719.202 171.095 718.456 171.665L717.903 174.11L717.776 174.862L717.027 175.347C709.168 173.211 694.403 153.568 687.985 148.069C683.774 144.462 678.794 141.795 674.607 138.156C673.04 137.651 672.965 137.25 672.457 135.962Z" /><path fill="#050303" d="M711.912 466.688C720.105 466.004 735.36 471.364 727.892 482.438C724.184 487.938 706.581 490.666 699.68 491.529C694.976 491.593 686.765 491.914 683.159 489.517C672.84 482.656 689.73 473.057 695.406 471.054C702.342 468.606 705.204 467.489 711.912 466.688Z" /><path fill="#FDAB32" d="M711.244 468.661C719.648 467.881 735.866 473.333 723.684 482.999C718.831 486.85 701.619 489.706 694.875 489.495C690.821 489.534 686.439 490.406 683.535 487.013C676.108 478.335 702.045 469.484 706.133 470.346L707.259 472.704L708.193 472.955C710.233 471.405 707.564 471.947 708.869 469.143L711.244 468.661Z" /><path fill="#050303" d="M695.076 475.826C695.69 475.392 696.493 475.33 697.167 475.665C697.84 476 698.276 476.677 698.301 477.429C698.325 478.181 697.936 478.886 697.286 479.264C696.34 479.815 695.127 479.524 694.536 478.603C693.944 477.682 694.182 476.458 695.076 475.826Z" /><path fill="#050303" d="M719.062 477.773C722.065 478.173 722.901 478.665 723.407 481.554C722.043 481.855 722.137 481.822 720.78 481.442C719.502 480.295 719.484 479.451 719.062 477.773Z" /><path fill="#050303" d="M408.85 486.467C416.605 486.533 426.558 495.919 433.042 499.908C444.099 506.71 440.431 510.647 431.545 516.475C426.551 518.794 420.521 519.693 415.057 520.041C409.46 512.364 396.461 493.583 408.85 486.467Z" /><path fill="#F17033" d="M420.122 501.018C423.722 501.081 427.323 501.091 430.923 501.047C433.528 502.842 436.13 504.786 438.111 507.259C433.185 506.912 423.73 504.632 420.122 501.018Z" /><path fill="#F17033" d="M432.601 508.098C434.39 508.359 435.59 508.131 436.39 509.779C435.695 511.376 433.748 512.615 432.314 513.75C430.432 514.498 430.646 514.808 429.294 514.229C429.032 512.149 431.319 509.58 432.601 508.098Z" /><path fill="#F17033" d="M501.053 226.638C506.057 226.265 511.024 227.73 515.026 230.757C519.378 233.954 522.25 238.776 522.989 244.125C524.513 255.334 515.752 269.04 504.082 270.017C495.567 270.729 489.408 267.363 488.767 258.202C488.476 254.052 489.81 248.895 492.603 245.749C496.245 241.955 504.858 239.08 509.094 243.455C511.352 245.793 512.225 251.56 509.548 253.898L508.679 253.775C507.823 251.494 509.436 250.22 508.78 246.811C503.393 238.172 493.368 246.275 491.806 254.145C489.011 268.237 502.808 270.349 511.93 263.655C516.98 259.95 519.5 254.661 520.416 248.658C520.607 234.975 508.304 225.051 495.716 230.669C472.165 241.181 468.033 274.805 474.711 296.803C475.428 299.166 477.56 303.291 476.651 305.568L475.844 305.583C473.363 303.008 471.831 296.622 471.026 293.119C467.296 276.881 469.186 256.483 478.408 242.236C483.557 234.208 491.717 228.587 501.053 226.638Z" /><path fill="#F17033" d="M732.901 410.359C735.278 412.664 735.759 416.165 736.34 419.276L737.3 418.757C739.882 417.375 741.856 415.825 744.582 416.645L744.935 417.694C744.468 419.92 742.817 421.875 741.476 423.81C745.417 424.357 746.75 425.432 749.895 427.676C747.133 429.083 744.416 430.019 741.519 431.103C742.496 432.964 743.768 434.735 742.029 436.331C739.854 436.475 737.206 435.155 735.057 434.321C734.559 437.469 734.471 438.629 733.121 441.613C730.747 440.284 730.384 437.21 729.779 434.73C727.509 435.614 723.805 437.686 721.937 435.842C721.939 434.002 723.212 432.612 724.297 431.041C722.061 429.789 718.318 428.198 715.869 427.082C718.834 424.822 719.771 424.339 723.122 422.697C721.773 420.608 720.345 418.935 720.811 416.529L721.742 416.161C724.335 416.451 726.736 418.096 729.096 419.404C729.799 415.33 730.516 413.708 732.901 410.359Z" /><path fill="#F17033" d="M797.033 197.785C799.221 200.707 797.853 209.221 799.572 213.49C801.764 218.93 808.456 215.983 809.708 219.723C792.057 225.425 800.023 234.026 796.082 240.135L795.052 240.249C793.673 233.71 795.181 226.994 788.143 222.319C786.402 221.163 783.586 221.333 781.697 219.699C783.127 217.65 790.948 216.355 792.45 213.747C795.241 208.902 794.299 202.963 797.033 197.785Z" /><path fill="#F17033" d="M464.2 485.349C464.571 488.603 465.087 491.498 467.109 494.221C483.575 516.389 517.864 491.379 535.415 511.608C536.206 512.52 535.424 513.925 535.008 514.85C517.861 495.466 493.137 513.958 472.688 502.794C466.634 499.489 460.05 492.476 464.2 485.349Z" /><path fill="#050303" d="M678.915 499.189C682.518 500.423 693.074 505.729 689.906 510.409C687.824 511.555 687.483 511.517 685.073 511.912C680.851 512.452 677.78 513.441 674.184 511.553C671.538 507.905 676.389 502.165 678.915 499.189Z" /><path fill="#F5892A" d="M679.514 502.579L680.278 502.043C682.721 502.783 686.647 505.484 688.336 507.409L688.668 508.613C687.001 509.874 681.343 509.994 678.927 510.093C677.756 510.089 677.111 510.013 675.943 509.874L675.269 508.998C675.315 507.181 677.041 505.081 678.119 503.456L679.514 502.579Z" /><path fill="#FAA330" d="M678.119 503.456C680.356 504.836 680.363 504.967 681.532 507.342C680.218 507.831 680.028 507.789 678.677 507.423L678.018 508.057C678.636 508.357 679.233 508.67 679.834 508.999C679.493 509.45 679.34 509.711 678.927 510.093C677.756 510.089 677.111 510.013 675.943 509.874L675.269 508.998C675.315 507.181 677.041 505.081 678.119 503.456Z" /><path fill="#050303" d="M679.514 502.579C681.013 503.956 682.741 505.157 683.484 506.945L683.081 507.529L681.532 507.342C680.363 504.967 680.356 504.836 678.119 503.456L679.514 502.579Z" /><path fill="#050303" d="M762.286 475.659C765.617 476.437 774.08 481.975 774.835 485.215L774.031 486.354C762.716 487.154 760.034 488.024 762.286 475.659Z" /><path fill="#FAA330" d="M764.049 478.235L771.061 483.478L771.157 484.247C768.642 484.526 766.126 484.791 763.608 485.043L764.049 478.235Z" /><path fill="#F17033" d="M499.274 169.679C493.156 176.19 485.734 187.902 480.28 195.353C478.654 197.574 474.623 205.998 473.266 206.869C469.836 203.154 493.478 173.282 497.42 168.957L499.274 169.679Z" /><path fill="#050303" d="M655.911 496.381C658.535 498.197 664.16 501.65 660.67 505.229C658.62 505.977 657.057 505.781 654.876 505.757C653.747 505.694 652.619 505.615 651.492 505.52C649.468 505.336 648.97 505.224 647.757 503.778C648.375 500.845 653.173 498.259 655.911 496.381Z" /><path fill="#F5892A" d="M656.583 499.047C657.809 499.664 658.914 500.755 659.426 502.069L658.951 502.855C656.852 503.944 655.282 503.601 652.875 503.486C651.354 503.561 651.903 503.676 650.513 503.149C651.334 501.711 654.936 499.983 656.583 499.047Z" /><path fill="#050303" d="M711.937 499.957C712.389 499.953 712.841 499.959 713.293 499.975C716.182 500.09 721.508 501.921 721.208 505.448C719.945 506.78 719.594 506.751 717.844 507.197C713.886 507.693 712.087 507.783 708.834 505.662C707.152 502.615 709.487 501.485 711.937 499.957Z" /><path fill="#F5892A" d="M712.969 501.921C715.006 502.005 716.721 502.71 718.294 503.958L718.32 504.763L716.958 505.466C714.848 505.461 711.996 505.768 710.576 504.079C711.271 502.649 711.408 502.918 712.969 501.921Z" /><path fill="#050303" d="M777.53 490.494C780.905 490.375 783.018 490.668 785.253 493.274C785.639 495.105 785.76 494.255 784.868 495.91C783.152 497.237 781.934 497.096 779.663 497.328C777.119 497.402 775.229 497.728 773.261 496.113C772.218 492.871 774.998 491.784 777.53 490.494Z" /><path fill="#FAA330" d="M777.104 492.398C779.087 492.219 782.452 492.547 783.292 494.613L782.384 495.426C780.432 495.5 776.7 495.968 775.255 494.982C775.441 493.45 775.635 493.756 777.104 492.398Z" /><path fill="#050303" d="M729.613 489.459C733.536 489.328 736.09 491.513 735.114 495.542C733.553 496.839 733.918 496.42 731.42 496.58C728.711 496.901 726.509 497.754 725.149 495.111C725.559 492.396 727.537 491.148 729.613 489.459Z" /><path fill="#F17033" d="M730.299 491.161C732.141 491.814 731.968 491.811 732.571 492.996C732.033 494.773 732.191 494.225 730.561 495.64C729.322 495.309 728.766 495.315 727.876 494.423C728.109 492.729 728.725 492.705 730.299 491.161Z" /><path fill="#F17033" d="M433.643 262.295C435.818 261.813 437.988 263.123 438.575 265.271C439.162 267.42 437.959 269.651 435.841 270.341C434.377 270.819 432.769 270.451 431.657 269.385C430.545 268.32 430.111 266.728 430.526 265.245C430.942 263.762 432.14 262.628 433.643 262.295Z" /><path fill="#050303" d="M662.382 488.108C664.449 488.341 665.797 488.247 666.774 490.253L666.384 491.337C663.276 494.048 662.357 493.791 658.301 494.349C656.607 494.602 655.633 494.807 654.638 493.348L655.043 492.081C657.8 489.256 658.509 488.977 662.382 488.108Z" /><path fill="#F17033" d="M659.918 490.04C662.022 489.743 662.666 489.584 664.339 490.744L664.041 491.477L662.54 491.898C660.448 492.205 659.95 492.357 657.896 492.106L657.984 491.398L659.918 490.04Z" /><path fill="#FAA330" d="M576.612 510.732C578.691 510.069 580.923 511.163 581.671 513.213C582.418 515.263 581.416 517.538 579.399 518.369C578.018 518.938 576.436 518.705 575.279 517.762C574.121 516.818 573.573 515.317 573.851 513.849C574.13 512.382 575.189 511.185 576.612 510.732Z" /><path fill="#050303" d="M745.685 483.328C748.752 484.265 751.049 486.364 749.551 489.711C748.229 490.815 747.338 490.612 745.584 490.639C742.992 490.489 742.805 490.843 740.905 489.589L740.728 488.431C741.807 486.256 743.777 484.931 745.685 483.328Z" /><path fill="#F5892A" d="M745.796 485.253C747.329 485.983 747.236 485.907 748.3 487.229C748.111 488.937 748.461 488.183 746.946 489.431C745.473 489.27 744.493 489.342 743.36 488.424C743.685 486.758 744.273 486.723 745.796 485.253Z" /><path fill="#050303" d="M756.129 500.443C759.537 500.486 763.393 502.205 762.852 506.144L761.675 506.959C758.815 507.173 755.039 508.145 754.048 504.94C754.392 502.965 755.056 502.197 756.129 500.443Z" /><path fill="#F5892A" d="M518.216 209.367C521.332 209.247 523.429 209.467 524.575 212.697C524.313 214.711 524.215 214.621 522.818 216.212C519.743 216.209 517.658 215.994 516.585 212.792C516.741 210.987 517.09 210.764 518.216 209.367Z" /><path fill="#704230" d="M755.825 331.515C758.738 331.227 760.895 330.943 762.234 334.004C762.174 335.955 761.914 336.178 760.923 337.813C755.988 338.652 752.435 336.244 755.825 331.515Z" /><path fill="#F17033" d="M734.158 381.007C735.31 380.686 736.546 381.013 737.389 381.862C738.231 382.711 738.549 383.949 738.219 385.099C737.888 386.249 736.962 387.13 735.798 387.403C734.048 387.813 732.292 386.748 731.846 385.008C731.4 383.268 732.427 381.49 734.158 381.007Z" /><path fill="#F17033" d="M617.976 506.2C619.07 505.825 620.28 506.074 621.138 506.849C621.995 507.625 622.363 508.804 622.1 509.93C621.836 511.055 620.982 511.949 619.87 512.263C618.214 512.73 616.487 511.795 615.974 510.153C615.461 508.51 616.349 506.758 617.976 506.2Z" /><path fill="#E35E28" d="M742.29 459.604C743.38 459.183 744.614 459.397 745.499 460.16C746.384 460.924 746.776 462.113 746.519 463.253C746.261 464.393 745.397 465.299 744.27 465.609C742.643 466.056 740.952 465.15 740.424 463.548C739.896 461.946 740.716 460.211 742.29 459.604Z" /><path fill="#050303" d="M446.783 301.245C448.356 300.844 449.957 301.792 450.359 303.365C450.762 304.938 449.815 306.539 448.243 306.944C446.669 307.349 445.064 306.4 444.66 304.825C444.257 303.25 445.208 301.647 446.783 301.245Z" /><path fill="#E35E28" d="M787.935 226.956L788.356 227.553C788.004 229.216 786.938 229.891 785.658 231.088L785.091 230.221C785.74 228.312 786.115 228.505 787.935 226.956Z" /></svg>