<?xml version='1.0' encoding='utf-8'?>
<svg xmlns="http://www.w3.org/2000/svg" width="190" height="170" viewBox="65 635 190 170" fill="none"><path fill="#F17033" d="M167.778 642.708C187.042 641.749 195.5 643.874 209.242 658.114C237.463 687.359 238.335 733.271 207.363 760.861C192.505 774.096 168.11 778.156 148.875 777.065C131.006 776.166 119.08 770.95 105.026 759.876C73.6704 735.167 81.7784 672.549 115.626 653.926C129.279 646.414 152.469 643.744 167.778 642.708Z" /><path fill="#FDAB32" d="M102.31 716.176C100.591 712.297 100.991 710.874 101.752 706.691C104.747 690.218 107.965 677.711 123.022 667.983C139.165 657.554 161.666 654.383 180.167 659.038C185.554 660.875 194.567 662.381 197.922 667.223C199.758 669.871 197.842 671.887 198.811 674.252C197.476 673.817 196.377 673.534 195.028 673.197C196.836 674.381 199.386 675.597 200.193 677.378C199.782 678.909 200.212 678.317 198.789 679.159C194.93 678.85 191.473 675.547 187.91 673.685C190.545 678.818 191.96 678.801 197.393 680.908C198.205 682.624 200.472 687.428 201.445 688.699C209.85 699.679 215.992 706.584 210.58 721.316C206 733.785 193.68 745.224 181.672 750.969C166.787 758.089 157.041 755.028 142.089 755.159L139.81 755.002C128.892 751.554 120.072 747.616 111.925 739.125C105.934 732.88 104.846 726.164 102.757 718.17L102.31 716.176Z" /><path fill="#050303" d="M180.927 707.731C178.804 714.981 174.883 719.395 167.607 721.214C134.354 729.526 124.134 689.602 157.554 681.336C168.364 678.663 178.513 682.743 187.742 688.122C192.498 691.274 198.3 700.512 198.757 706.276C202.884 758.374 119.24 751.351 113.602 707.668C112.488 699.035 117.284 688.229 123.082 681.912C124.855 679.98 127.741 679.224 128.986 677.568L128.186 676.401C129.073 675.589 129.773 675.234 130.799 674.622C147.195 665.033 166.743 662.392 185.096 667.287L188.457 668.165L187.962 667.526C190.661 670.44 191.543 671.371 195.028 673.197C196.836 674.381 199.386 675.597 200.193 677.378C199.782 678.909 200.212 678.317 198.789 679.159C194.93 678.85 191.473 675.547 187.91 673.685C187.027 672.748 186.409 672.178 185.744 671.053C178.643 670.568 171.486 669.65 164.405 669.267C160.789 669.072 156.339 670.821 152.761 671.532C143.043 673.395 136.743 675.426 129.103 682.154C122.869 687.592 119.059 695.289 118.513 703.543C117.426 720.43 134.813 735.444 150.73 737.501C160.805 738.803 177.039 740.326 184.596 731.862C189.14 728.54 191.03 724.292 193.301 719.386C194.748 715.716 195.127 714.316 194.939 710.39C196.403 701.068 188.777 695.342 183.754 688.704C180.568 688.401 175.74 686.322 172.514 684.893C158.916 678.959 139.247 689.004 140.474 705.043C141.344 720.824 167.316 724.742 175.275 712.558C183.415 700.095 157.791 696.497 153.882 702.829C154.419 704.679 155.501 704.929 157.315 706.555L156.817 707.177C155.053 707.86 155.919 707.846 154.13 707.219C152.18 705.02 151.788 703.412 151.617 700.48C154.501 696.081 170.583 697.146 175.597 699.22L176.242 699.493C178.717 702.159 179.618 704.47 180.927 707.731Z" /><path fill="#FAA330" d="M188.394 719.531C189.211 717.322 192.444 708.448 194.334 707.889C194.45 708.773 194.324 709.123 194.17 710.002L194.939 710.39C195.127 714.316 194.748 715.716 193.301 719.386C190.887 720.592 190.79 720.765 188.394 719.531Z" /><path fill="#F17033" d="M188.394 719.531C190.79 720.765 190.887 720.592 193.301 719.386C191.03 724.292 189.14 728.54 184.596 731.862C185.211 729.193 187.313 728.508 188.918 725.119L188.356 724.886C185.044 726.375 186.719 727.524 182.984 729.423C184.66 727.48 185.319 727.258 184.94 724.677L188.394 719.531Z" /><path fill="#E35E28" d="M184.94 724.677C185.319 727.258 184.66 727.48 182.984 729.423C179.783 731.629 176.434 731.286 172.537 732.327C173.415 730.764 173.321 730.822 174.703 729.703C179.059 728.242 181.132 727.096 184.94 724.677Z" /><path fill="#F17033" d="M172.537 732.327C170.605 732.772 169.342 733.18 167.491 732.422C168.675 730.81 171.179 730.379 173.016 729.154L174.703 729.703C173.321 730.822 173.415 730.764 172.537 732.327Z" /><path fill="#E35E28" d="M121.834 736.232C123.61 737.187 126.88 740.82 129.286 742.295C131.376 743.575 136.402 745.274 136.626 747.297C131.689 748.111 120.647 742.289 121.834 736.232Z" /><path fill="#E35E28" d="M198.804 727.186C199.687 727.541 199.463 727.339 200.046 727.927C200.542 728.428 200.584 728.997 200.441 729.702C199.724 733.232 193.727 737.266 190.716 738.872C189.702 738.236 189.687 738.32 189.119 737.29C194.203 733.724 195.137 732.215 198.804 727.186Z" /><path fill="#812706" d="M163.833 712.998C165.399 712.424 165.941 711.371 166.972 710.022L167.437 709.405L168.38 709.301L168.833 709.88C167.199 714.16 158.87 717.272 154.975 712.258C157.388 710.533 161.673 711.175 163.833 712.998Z" /><path fill="#FAA330" d="M154.975 712.258C157.388 710.533 161.673 711.175 163.833 712.998C159.766 714.004 158.694 714.002 154.975 712.258Z" /><path fill="#540C04" d="M123.74 707.739C125.597 709.189 126.548 716.669 128.723 719.565C131.602 723.4 136.617 724.737 139.141 727.885C131.174 726.516 122.883 715.532 123.74 707.739Z" /><path fill="#050303" d="M132.33 651.488C134.411 651.458 134.687 651.322 135.972 652.428C135.34 654.512 129.517 657.168 126.784 658.961C125.837 659.686 125.921 659.687 124.749 659.842C122.63 656.33 130.012 652.708 132.33 651.488Z" /><path fill="#050303" d="M202.815 661.621C207.684 662.315 207.789 666.124 206.896 670.018C204.531 670.122 205.555 670.413 203.651 669.368C201.882 666.867 202.487 664.651 202.815 661.621Z" /><path fill="#050303" d="M151.817 764.227L155.003 764.315C158.285 764.394 158.553 764.31 161.701 765.447L161.863 766.043C160.04 766.611 158.305 766.248 156.392 766.046C154.171 766.075 146.799 766.383 145.188 765.07C147.6 764.205 149.265 764.317 151.817 764.227Z" /><path fill="#050303" d="M92.1805 691.623C93.5862 692.169 93.5776 692.053 94.3741 693.303C94.8779 696.457 93.7221 698.676 92.5946 701.658C92.2716 701.608 91.6235 701.347 91.2848 701.226C89.5757 698 90.2687 694.592 92.1805 691.623Z" /><path fill="#050303" d="M91.8745 716.181C93.8229 717.491 95.7229 727.247 95.9836 729.815C92.8178 726.776 90.9618 720.491 91.8745 716.181Z" /><path fill="#050303" d="M177.367 647.683C180.492 647.539 188.085 647.132 188.269 651.151C185.601 650.528 178.742 649.768 177.257 648.797L177.367 647.683Z" /><path fill="#050303" d="M213.567 677.815C214.84 677.448 216.187 678.083 216.713 679.298C217.24 680.513 216.783 681.93 215.645 682.608C214.767 683.131 213.666 683.1 212.82 682.526C211.973 681.953 211.535 680.942 211.695 679.933C211.855 678.924 212.585 678.098 213.567 677.815Z" /><path fill="#050303" d="M182.916 756.205C184.78 756.456 185.276 756.501 186.235 757.999C186.024 759.642 185.172 760.21 183.992 761.417C182.009 760.994 181.913 760.744 181.077 759.478C181.42 757.363 181.276 758.051 182.916 756.205Z" /><path fill="#050303" d="M213.822 728.093C215.792 728.853 215.136 728.206 216.002 729.946C216.094 732.992 214.819 734.754 212.985 737.132L212.452 737.267C212.047 736.279 213.529 729.836 213.822 728.093Z" /><path fill="#050303" d="M102.757 718.17C102.479 719.005 102.377 718.979 101.839 719.725C100.199 720.108 101.016 720.152 99.3322 719.355C98.0703 717.656 97.5211 716.915 98.6213 715.126C100.67 714.878 100.103 715.011 102.31 716.176L102.757 718.17Z" /><path fill="#050303" d="M116.086 755.276C117.954 755.397 118.382 755.293 119.746 756.49C120.507 758.116 120.418 758.021 120.21 759.83C118.274 759.721 117.209 759.862 115.746 758.626C115.263 756.732 115.368 757.401 116.086 755.276Z" /><path fill="#050303" d="M195.268 746.842C197.033 746.987 197.863 746.942 199.507 747.66L199.537 748.455L197.582 749.915C195.864 750.363 195.16 750.631 193.733 749.708C193.943 747.983 193.974 748.432 195.268 746.842Z" /><path fill="#050303" d="M113.288 663.995C115.163 664.435 116.974 664.961 118.13 666.505L117.895 667.536C116.053 667.69 114.554 668.071 112.988 667.233C112.515 665.502 112.683 665.998 113.288 663.995Z" /><path fill="#050303" d="M127.128 767.316C127.799 766.909 128.638 766.897 129.32 767.286C130.002 767.675 130.419 768.403 130.41 769.188C130.401 769.973 129.967 770.691 129.277 771.064C128.246 771.621 126.958 771.254 126.375 770.238C125.792 769.221 126.127 767.925 127.128 767.316Z" /><path fill="#050303" d="M139.81 755.002L142.089 755.159C142.521 755.629 142.599 755.923 142.904 756.51C142.308 758.411 142.836 757.672 141.359 758.871C139.472 759.13 140.234 759.382 138.913 758.386C138.785 756.357 138.786 757.038 139.81 755.002Z" /><path fill="#050303" d="M218.928 717.274C220.077 717.922 220.015 718.022 220.79 719.13C220.975 720.901 220.556 721.308 219.682 722.861C217.807 721.842 218.503 722.539 217.458 720.752C217.47 719.056 217.949 718.663 218.928 717.274Z" /><path fill="#050303" d="M205.433 743.206C206.828 743.939 206.333 743.42 207.037 744.748C206.797 746.361 205.888 747.052 204.768 748.287C203.893 748.057 204.096 748.092 203.296 747.616C203.22 745.919 204.407 744.7 205.433 743.206Z" /><path fill="#F17033" d="M85.2485 630.531C87.0094 629.695 91.9178 628.718 94.0629 628.197C98.1876 627.197 100.441 626.36 104.353 624.713L103.869 626.086C103.692 627.837 103.783 627.855 102.817 629.415L100.959 630.634C101.246 632.149 101.816 634.609 101.763 636.072C97.9378 640.007 100.363 648.974 97.2388 651.194C95.8198 650.127 96.4185 650.792 95.669 648.902C94.6561 646.739 94.6167 646.323 94.3176 643.938C90.3219 646.997 92.8983 657.425 88.332 662.659C86.7596 662.847 85.8494 662.218 84.4704 661.576C79.9765 663.079 83.9794 670.78 78.0068 670.867C77.3967 669.807 77.2577 669.324 76.8375 668.165L76.1108 667.797L74.6128 668.331C71.5511 669.517 66.583 674.498 64.3326 671.268C64.2733 667.231 67.4582 663.398 70.059 660.592C67.725 657.78 67.357 656.7 65.8704 653.424C69.8807 650.734 72.4004 649.88 76.1711 646.405C70.6406 637.519 80.4608 637.68 86.992 636.317C86.2687 634.6 84.9758 632.245 85.2485 630.531Z" /><path fill="#050303" d="M85.2485 630.531C87.0094 629.695 91.9178 628.718 94.0629 628.197C98.1876 627.197 100.441 626.36 104.353 624.713L103.869 626.086C103.692 627.837 103.783 627.855 102.817 629.415L100.959 630.634C101.246 632.149 101.816 634.609 101.763 636.072C97.9378 640.007 100.363 648.974 97.2388 651.194C95.8198 650.127 96.4185 650.792 95.669 648.902C94.6561 646.739 94.6167 646.323 94.3176 643.938C90.3219 646.997 92.8983 657.425 88.332 662.659C87.7401 661.028 87.7747 659.431 87.6684 657.687C87.108 655.315 86.235 652.788 86.8528 650.535L86.4805 648.411L85.7929 647.99C84.1274 648.891 81.391 653.494 80.0744 655.415L78.6781 654.662C81.1518 651.724 85.1953 645.825 87.6106 642.511C84.9461 642.824 77.4869 644.406 76.1699 643.578L76.5655 642.974C79.1575 642.056 84.9932 641.65 88.5266 640.928C91.2488 638.203 92.7288 636.308 95.1074 633.249C91.8215 632.74 90.4904 632.687 87.3492 631.362L85.2485 630.531Z" /><path fill="#E35E28" d="M87.9287 646.918C88.2859 644.063 90.8611 639.526 93.8499 638.829L94.5729 639.637C94.6635 641.661 94.685 641.972 94.3176 643.938C90.3219 646.997 92.8983 657.425 88.332 662.659C87.7401 661.028 87.7747 659.431 87.6684 657.687C87.108 655.315 86.235 652.788 86.8528 650.535L87.0107 651.084L87.345 651.038L87.9287 646.918Z" /><path fill="#540C04" d="M87.9287 646.918C87.9949 650.225 88.2382 654.521 87.6684 657.687C87.108 655.315 86.235 652.788 86.8528 650.535L87.0107 651.084L87.345 651.038L87.9287 646.918Z" /><path fill="#F17033" d="M100.959 630.634C101.246 632.149 101.816 634.609 101.763 636.072C97.9378 640.007 100.363 648.974 97.2388 651.194C95.8198 650.127 96.4185 650.792 95.669 648.902C96.928 646.867 95.7638 639.147 95.4862 636.321C97.1342 634.297 99.0943 632.472 100.959 630.634Z" /><path fill="#210602" d="M76.0998 658.822C78.1079 659.058 78.0976 659.436 79.2465 658.534C79.4908 660.9 79.8617 662.572 79.2538 664.86L78.698 665.023C77.6522 662.942 77.9089 660.814 77.8903 658.414C75.9684 661.152 73.2952 665.202 71.1459 667.579L70.4267 667.531C70.338 665.79 74.8154 660.495 76.0998 658.822Z" /><path fill="#050303" d="M76.9395 657.257C74.4812 657.373 73.2644 657.418 71.2017 656.222L71.1315 655.491C73.2179 654.156 75.3467 654.493 77.7229 654.826C77.4336 656.121 77.5655 656.162 76.9395 657.257Z" /><path fill="#050303" d="M78.6781 654.662L80.0744 655.415L79.2465 658.534C78.0976 659.436 78.1079 659.058 76.0998 658.822L76.9395 657.257C77.5655 656.162 77.4336 656.121 77.7229 654.826L78.6781 654.662Z" /><path fill="#E35E28" d="M231.359 757.16C234.381 754.405 237.073 753.119 241.178 753.508C247.612 757.645 250.238 762.691 245.197 769.453L244.785 770.058C241.071 775.376 234.201 779.393 228.74 782.867C224.324 785.094 222.379 786.247 217.657 787.837C207.321 784.689 207.991 777.199 215.061 770.492C220.038 765.978 226.08 761.566 231.359 757.16Z" /><path fill="#FDAB32" d="M217.657 787.837C207.321 784.689 207.991 777.199 215.061 770.492L216.508 770.932C219.819 770.949 220.488 770.945 223.088 773.041L224.411 774.841L226.045 779.531C227 782.368 226.893 780.777 228.74 782.867C224.324 785.094 222.379 786.247 217.657 787.837Z" /><path fill="#E35E28" d="M216.508 770.932C219.819 770.949 220.488 770.945 223.088 773.041L224.411 774.841L226.045 779.531L225.006 780.718L224.144 780.554C223.678 779.337 223.525 778.483 222.475 777.754C219.851 778.807 219.899 780.958 217.503 782.131C217.153 778.891 220.342 778.161 220.077 774.43C219.343 772.67 218.092 772.067 216.508 770.932Z" /><path fill="#FDAB32" d="M232.001 770.12C231.986 771.863 231.724 774.916 232.466 776.314L233.961 776.025C236.641 773.269 233.893 772.536 233.857 769.159C235.811 767.207 236.77 766.662 239.069 765.187C240.243 766.053 244.147 769.887 244.785 770.058C241.071 775.376 234.201 779.393 228.74 782.867C226.893 780.777 227 782.368 226.045 779.531L224.411 774.841C227.184 772.854 229.019 771.794 232.001 770.12Z" /><path fill="#FDAB32" d="M231.359 757.16L232.107 758.019L232.397 759.387C234.557 760.788 235.706 761.199 238.05 762.175C235.99 763.872 233.72 765.863 231.517 767.319C228.344 765.75 227.015 765.126 223.647 764.059C225.477 765.59 227.341 767.229 229.292 768.587C227.246 769.932 224.826 771.372 223.088 773.041C220.488 770.945 219.819 770.949 216.508 770.932L215.061 770.492C220.038 765.978 226.08 761.566 231.359 757.16Z" /><path fill="#FDAB32" d="M241.178 753.508C247.612 757.645 250.238 762.691 245.197 769.453C245.028 766.903 243.158 765.473 241.375 763.824L239.905 761.912C239.912 759.506 241.122 759.695 241.775 757.047L240.881 756.028C240.875 755.315 241.073 754.248 241.178 753.508Z" /><path fill="#FAA330" d="M231.359 757.16C234.381 754.405 237.073 753.119 241.178 753.508C241.073 754.248 240.875 755.315 240.881 756.028C239.513 757.386 238.401 758.863 236.564 759.155C235.228 758.882 233.016 758.17 232.107 758.019L231.359 757.16Z" /><path fill="#FAA330" d="M65.0783 699.532C67.8653 699.711 70.2211 700.856 71.2604 703.498C73.7587 709.85 73.7576 716.521 67.3978 719.895C63.6608 719.327 61.6991 717.949 60.4349 714.381C58.2177 708.123 58.5125 702.141 65.0783 699.532Z" /><path fill="#FAA330" d="M242.654 669.594C254.199 670.855 254.985 682.405 244.733 683.906C233.12 682.473 232.151 671.959 242.654 669.594Z" /><path fill="#FAA330" d="M228.548 650.483C235.463 651.031 236.95 658.936 230.507 662.338C229.88 662.2 229.258 662.046 228.639 661.875C222.268 660.072 222.238 653.568 228.548 650.483Z" /><path fill="#FAA330" d="M179.604 788.947C181.336 789.01 182.925 789.263 184.249 790.561C185.142 791.432 185.573 792.671 185.412 793.907C185.126 796.026 183.657 797.011 182.056 798.109C175.493 797.629 172.935 791.722 179.604 788.947Z" /><path fill="#FAA330" d="M64.4612 744.229C67.3883 746.024 68.8559 753.974 69.5596 757.326C69.8947 758.922 69.3737 759.006 68.4602 760.165C67.2728 759.892 67.661 760.032 66.617 759.423C64.3911 755.682 61.8222 748.043 64.4612 744.229Z" /><path fill="#FDAB32" d="M72.1946 733.112C73.4332 733.463 75.0039 733.817 75.4431 734.976C76.6301 738.108 77.3451 743.941 76.7322 747.092C75.5299 747.08 74.3435 747.156 73.6896 746.018C71.7657 742.67 71.5682 736.784 72.1946 733.112Z" /><path fill="#FDAB32" d="M194.316 634.403C197.838 634.617 203.464 635.723 206.039 638.283C206.528 640.093 206.494 639.141 205.639 641.221C201.695 640.156 197.206 639.65 193.849 637.868C193.211 636.316 193.557 636.535 194.316 634.403Z" /><path fill="#FDAB32" d="M224.904 634.366C229.555 634.79 236.919 639.416 236.33 644.728C232.714 644.853 225.604 637.76 224.904 634.366Z" /><path fill="#FDAB32" d="M96.0508 783.994C99.0608 783.881 104.827 785.483 107.356 787.392C108.436 788.208 108.18 789.395 108.167 790.613C104.811 790.418 97.9012 789.008 95.8986 786.036C95.4393 785.354 95.8334 784.822 96.0508 783.994Z" /><path fill="#FAA330" d="M97.1986 769.7C100.313 770.972 105.283 774.647 107.515 777.261C107.967 779.075 107.971 778.134 107.045 780.148C103.47 779.118 98.2794 775.252 96.5218 771.869C96.1407 771.136 96.7936 770.488 97.1986 769.7Z" /><path fill="#FDAB32" d="M77.5076 770.621C80.5162 771.903 87.3588 776.489 86.772 780.278C81.5162 779.089 75.4604 776.925 77.5076 770.621Z" /><path fill="#E35E28" d="M104.353 624.713L105.363 624.334C105.973 625.792 105.06 637.487 104.705 639.413C102.887 638.323 102.85 638.001 101.763 636.072C101.816 634.609 101.246 632.149 100.959 630.634L102.817 629.415C103.783 627.855 103.692 627.837 103.869 626.086L104.353 624.713Z" /><path fill="#540C04" d="M100.959 630.634L102.817 629.415C102.932 634.056 104.846 636.119 104.705 639.413C102.887 638.323 102.85 638.001 101.763 636.072C101.816 634.609 101.246 632.149 100.959 630.634Z" /><path fill="#FDAB32" d="M78.6706 758.994C79.4928 759.066 80.1478 759.201 80.9594 759.343C83.8214 761.645 87.3639 764.089 87.8439 767.583C83.3279 767.799 78.7449 763.536 78.6706 758.994Z" /><path fill="#FAA330" d="M134.051 786.778C135.029 786.203 136.245 786.214 137.212 786.807C138.179 787.401 138.74 788.479 138.67 789.611C138.601 790.744 137.912 791.746 136.88 792.216C135.394 792.894 133.637 792.289 132.883 790.84C132.13 789.391 132.643 787.605 134.051 786.778Z" /><path fill="#E35E28" d="M241.525 716.876C242.365 716.195 243.509 716.023 244.512 716.428C245.515 716.832 246.22 717.749 246.353 718.823C246.486 719.896 246.025 720.958 245.151 721.594C243.846 722.544 242.022 722.281 241.039 721.002C240.055 719.722 240.271 717.892 241.525 716.876Z" /><path fill="#FDAB32" d="M118.112 785.823C120.358 786.041 122.614 786.152 124.505 787.293C125.738 788.992 125.406 788.04 125.309 790.32C123.094 790.578 120.482 790.768 118.621 789.447C117.604 787.743 117.937 788.218 118.112 785.823Z" /><path fill="#F5892A" d="M213.757 642.851C216.085 643.218 216.53 643.379 218.184 644.849C219.109 647.046 218.972 645.934 218.564 648.316C214.73 648.995 213.431 646.101 213.757 642.851Z" /></svg>