<?xml version='1.0' encoding='utf-8'?>
<svg xmlns="http://www.w3.org/2000/svg" width="120" height="110" viewBox="360 150 120 110" fill="none"><path fill="#FDAB32" d="M360.801 256.678C362.097 257.711 362.051 257.604 362.739 259.1C362.571 262.407 360.079 264.786 356.976 265.579C356.758 265.486 356.217 265.003 356.003 264.828C358.362 261.068 359.606 261.302 360.801 256.678Z" /><path fill="#050303" d="M375.319 181.687C381.983 167.347 396.314 158.132 412.127 158.017C427.939 157.903 442.402 166.91 449.274 181.152C456.145 195.394 454.195 212.32 444.265 224.626C431.283 240.714 408.34 244.592 390.793 233.663C373.245 222.735 366.606 200.434 375.319 181.687Z" /><path fill="#FDAB32" d="M375.319 181.687C381.983 167.347 396.314 158.132 412.127 158.017C427.939 157.903 442.402 166.91 449.274 181.152C456.145 195.394 454.195 212.32 444.265 224.626L442.822 220.562C450.172 209.138 450.664 194.604 444.105 182.709C437.545 170.813 424.991 163.474 411.408 163.592C397.824 163.711 385.4 171.27 379.05 183.278C376.131 183.045 377.28 185.716 374.503 187.586C374.846 185.493 374.944 185.148 375.719 183.141L375.916 182.64L375.319 181.687Z" /><path fill="#FAA330" d="M375.319 181.687L375.916 182.64L375.719 183.141C374.944 185.148 374.846 185.493 374.503 187.586C377.28 185.716 376.131 183.045 379.05 183.278C369.792 200.785 375.975 222.479 393.072 232.475C410.169 242.471 432.107 237.218 442.822 220.562L444.265 224.626C431.283 240.714 408.34 244.592 390.793 233.663C373.245 222.735 366.606 200.434 375.319 181.687Z" /><path fill="#FDAB32" d="M419.226 234.44C404.788 237.645 389.903 231.367 382.121 218.791C374.339 206.215 375.363 190.092 384.673 178.602C393.984 167.111 409.544 162.766 423.46 167.772C435.35 172.048 443.984 182.438 446.013 194.91C448.042 207.382 443.145 219.973 433.223 227.798C429.117 231.036 424.332 233.307 419.226 234.44Z" /><path fill="url(#gradient_0)" d="M423.46 167.772C435.35 172.048 443.984 182.438 446.013 194.91C448.042 207.382 443.145 219.973 433.223 227.798C431.194 227.559 431.723 228.377 429.449 227.985L429.042 227.28C429.911 226.847 430.411 226.58 431.231 226.062L430.768 225.261C429.331 225.175 429.436 225.152 428.298 224.241C431.89 220.652 434.085 220.699 436.693 218.296L435.525 218.499L435.346 218.022C437.572 213.814 439.632 209.495 441.748 205.237C442.312 204.898 442.875 204.558 443.438 204.219C441.176 201.605 438.604 196.056 440.116 192.654C438.911 186.005 436.357 184.445 431.388 180.09L427.964 177.369C428.735 175.757 428.456 175.745 427.813 174.315C425.891 172.017 426.751 171.362 423.711 170.38L423.46 167.772Z" /><path fill="#E35E28" d="M435.456 179.007C439.389 182.489 440.555 184.86 442.277 189.901C441.639 190.777 440.883 191.952 440.116 192.654C438.911 186.005 436.357 184.445 431.388 180.09C432.922 179.937 434.005 179.492 435.456 179.007Z" /><path fill="#E35E28" d="M440.116 192.654C440.883 191.952 441.639 190.777 442.277 189.901C442.705 191.995 443.366 194.509 443.279 196.591C441.497 198.166 441.907 196.238 441.485 198.041L441.882 198.605C442.631 199.688 444.844 202.909 443.438 204.219C441.176 201.605 438.604 196.056 440.116 192.654Z" /><path fill="#F17033" d="M427.813 174.315C431.317 174.978 432.822 176.651 435.456 179.007C434.005 179.492 432.922 179.937 431.388 180.09L427.964 177.369C428.735 175.757 428.456 175.745 427.813 174.315Z" /><path fill="#F5892A" d="M419.5 227.549C423.537 227.467 424.627 228.992 427.584 226.143C427.763 224.971 427.548 225.287 428.298 224.241C429.436 225.152 429.331 225.175 430.768 225.261L431.231 226.062C430.411 226.58 429.911 226.847 429.042 227.28L429.449 227.985C431.723 228.377 431.194 227.559 433.223 227.798C429.117 231.036 424.332 233.307 419.226 234.44L420.364 233.211C423.089 232.575 423.784 232.292 426.331 231.105C426.829 229.767 426.786 230.44 426.226 229.039L424.944 229.008L424.293 229.403C421.641 230.983 420.853 231.751 417.784 230.709C419.243 230.387 421.358 229.823 422.507 228.899L422.096 228.182L419.5 227.549Z" /><path fill="#E35E28" d="M417.784 230.709C416.986 229.37 415.722 227.406 415.787 225.913C417.263 225.593 417.736 226.417 419.5 227.549L422.096 228.182L422.507 228.899C421.358 229.823 419.243 230.387 417.784 230.709Z" /><path fill="#E35E28" d="M423.711 170.38C426.751 171.362 425.891 172.017 427.813 174.315C428.456 175.745 428.735 175.757 427.964 177.369C423.783 174.982 424.487 175.002 423.711 170.38Z" /><path fill="#050303" d="M410.753 178.202C418.652 177.748 428.614 181.021 432.881 187.816C447.207 210.572 416.664 235.064 399.502 211.477C389.996 198.413 405.101 182.413 417.435 187.165C420.24 188.216 422.462 190.416 423.541 193.21C427.065 202.357 417.459 212.109 409.898 207.646C408.302 206.706 407.183 205.13 406.821 203.313C406.485 201.65 406.833 199.921 407.785 198.517C410.535 194.507 416.826 194.106 416.617 200.483C415.579 202.373 416.274 201.609 414.375 202.787L414.086 202.508C414.4 200.914 414.992 199.316 414.315 197.98L413.147 197.71C400.499 201.273 416.116 213.587 421.553 201.1C426.039 190.798 414.634 186.519 405.883 190.579L405.269 190.869C386.513 203.326 411.203 228.129 426.561 215.02C430.17 211.94 434.569 204.818 434.462 199.999C433.871 173.52 389.652 173.834 390.142 201.517C390.304 212.266 395.755 220.357 406.504 223.302C408.355 223.809 411.096 223.675 412.226 224.812C411.694 226.249 412.156 225.757 410.901 226.429C380.102 222.301 380.191 180.603 410.753 178.202Z" /><path fill="#E35E28" d="M389.418 178.509L388.783 177.669C390.331 175.267 399.868 172.276 402.876 172.604L403.149 173.096C402.199 174.095 401.998 174.491 400.721 174.99C399.901 174.707 399.085 174.412 398.273 174.105C395.97 175.372 396.226 175.811 395.837 178.385L394.685 179.41C391.503 181.498 390.984 182.593 388.592 185.408C388.092 183.996 387.44 183.152 386.625 181.912C388.075 181.159 388.543 181.019 389.668 179.786L389.418 178.509Z" /><path fill="#F17033" d="M389.418 178.509L390.364 177.203C392.007 177.118 392.979 178.275 394.685 179.41C391.503 181.498 390.984 182.593 388.592 185.408C388.092 183.996 387.44 183.152 386.625 181.912C388.075 181.159 388.543 181.019 389.668 179.786L389.418 178.509Z" /><path fill="#F5892A" d="M384.536 190.914C384.569 193.428 385.193 196.158 382.991 197.662L382.17 197.193C380.501 192.705 383.42 184.991 386.625 181.912C387.44 183.152 388.092 183.996 388.592 185.408C386.667 187.603 386.095 188.46 384.536 190.914Z" /><path fill="#F5892A" d="M380.929 201.227C384.555 203.519 383.467 208.273 383.904 212.296L382.304 212.218C380.684 210.187 380.647 208.944 380.272 206.429L380.144 205.538L380.064 206.051C379.159 203.862 379.803 203.111 380.929 201.227Z" /><path fill="#F17033" d="M412.917 168.726C415.394 169.491 416.602 171.429 416.103 173.959C414.606 175.402 414.907 174.954 412.43 175.379C411.255 175.32 411.461 175.255 410.299 174.787L409.999 173.668C410.732 171.032 410.818 170.018 412.917 168.726Z" /><path fill="#F17033" d="M386.583 218.347C388.27 219.467 390.279 221.012 391.927 222.248C394.139 223.905 400.162 226.138 401.167 228.407C399.593 228.88 399.687 228.818 398.045 228.542C393.716 225.245 389.254 222.971 386.583 218.347Z" /><path fill="#F17033" d="M499.274 169.679C493.156 176.19 485.734 187.902 480.28 195.353C478.654 197.574 474.623 205.998 473.266 206.869C469.836 203.154 493.478 173.282 497.42 168.957L499.274 169.679Z" /></svg>