<svg width="219" height="311" viewBox="0 0 219 311" fill="none" xmlns="http://www.w3.org/2000/svg">
<path d="M180.651 166.05C181.401 162.789 182.362 159.075 185.613 157.497C197.515 151.72 206.754 168.291 194.897 174.713L195.247 175.471C197.179 175.888 196.477 175.42 197.718 176.533C204.667 174.96 210.746 173.183 203.853 165.676L203.984 165.049C205.023 165.265 205.976 165.432 206.5 166.473C212.602 178.587 199.766 174.662 195.366 180.998C195.107 181.37 194.399 184.011 194.196 184.722C195.766 190.362 197.305 195.339 197.841 201.173C198.606 209.503 191.208 219.42 182.444 214.463C176.797 211.268 179.006 199.186 175.148 196.229C170.556 196.098 170.389 201.144 170.692 204.564C171.522 213.921 177.703 225.125 171.152 233.669C166.533 239.691 157.137 239.728 151.612 234.93C146.516 230.506 147.928 226.233 148.769 220.521C149.575 215.045 152.293 206.813 148.604 202.207C146.172 199.172 139.377 202.762 137.79 205.394C134.087 210.774 133.978 217.953 133.886 224.254C133.727 235.047 142.442 256.661 126.094 259.759C118.621 261.175 110.688 258.916 109.93 250.268C108.83 237.709 118.44 223.444 110.057 212.062C109.242 211.008 108.186 211.253 107.153 211.316C101.887 214.337 99.7388 224.192 92.4858 222.803C83.4938 221.079 87.2788 208.167 81.6088 205.32C78.5088 203.764 73.6638 210.314 73.6898 212.899C71.4238 221.281 74.5528 234.819 66.7618 240.465C59.4178 245.788 53.7318 234.905 53.6458 228.742C53.5318 220.612 58.0478 201.748 48.2458 197.718C46.2388 197.856 45.9338 197.911 44.5138 199.401C39.8508 204.291 40.0848 216.312 31.8788 217.359C25.4458 218.181 21.7158 209.095 21.5658 203.983C21.4128 198.785 23.6138 194.546 24.9578 189.781C23.5348 188.284 21.9978 186.574 20.4478 185.239C17.5028 186.133 14.2441 187.573 11.4401 186.563C7.84828 183.294 8.88238 181.876 7.26148 179.869L6.12988 179.441C7.80078 173.86 8.03698 168.324 13.4139 164.366C16.4318 162.144 19.6798 158.495 22.8488 156.754C23.8858 157.347 23.4758 156.928 23.8788 158.235C23.3558 159.077 18.2978 163.088 16.4908 165.039C20.4538 164.847 22.7598 163.333 26.5038 161.994C34.5898 163.982 48.7098 173.156 56.9758 175.901C59.8808 172.233 64.6068 170.52 69.1878 171.473C73.7678 172.427 77.4178 175.884 78.6168 180.407C86.8908 182.658 103.887 183.924 112.612 181.794C115.672 181.048 121.537 177.959 124.636 176.482C126.763 189.277 130.707 197.584 145.27 196.921C159.873 196.257 171.309 187.348 170.182 171.914C173.325 170.07 177.356 166.928 180.651 166.05Z" fill="#E8463C"/>
<path d="M6.12988 179.441C7.80078 173.86 8.03698 168.324 13.4139 164.366C16.4318 162.144 19.6798 158.495 22.8488 156.754C23.8858 157.347 23.4758 156.928 23.8788 158.235C23.3558 159.077 18.2978 163.088 16.4908 165.039C21.8118 165.156 26.1408 167.527 25.5498 173.529C25.3428 175.727 24.1828 177.724 22.3768 178.993C15.4078 183.9 11.3563 176.066 9.61038 176.555C9.04988 179.804 9.87608 185.465 13.8133 184.933C19.8078 183.882 26.3238 183.089 25.4568 191.571C24.8248 197.746 21.3408 207.711 26.5778 212.918C38.0938 224.369 37.8798 197.755 46.4068 196.428C57.6688 194.677 55.6668 211.923 55.8928 218.693C55.7648 224.886 54.0188 234.735 59.7288 238.912C64.1988 241.3 66.2928 239.566 68.1868 235.917C72.3358 227.925 68.3648 208.359 77.5108 204.187C89.7688 198.595 83.6618 222.7 94.9168 221.197C101.299 220.345 102.068 205.81 109.303 209.192C112.977 211.471 113.472 213.796 114.824 217.592C118.82 228.814 105.821 247.856 114.667 255.997C118.49 259.516 129.939 258.92 132.371 253.593C133.439 251.254 134.583 248.964 134.422 246.111C134.069 233.007 126.407 206.745 142.337 199.999C147.774 198.895 151.142 200.564 152.034 205.477C153.479 213.437 145.407 228.538 153.079 234.043C163.642 241.624 174.864 232.394 171.888 220.054C170.051 212.439 166.501 203.918 169.896 196.814C171.196 194.261 174.635 193.086 177.24 194.441C181.813 199.476 176.653 213.137 186.763 213.867C189.257 214.047 191.7 212.425 193.37 210.674C203.13 200.445 184.77 184.156 197.718 176.533C204.667 174.96 210.746 173.183 203.853 165.676L203.984 165.049C205.023 165.265 205.976 165.432 206.5 166.473C212.602 178.587 199.766 174.662 195.366 180.998C195.107 181.37 194.399 184.011 194.196 184.722C195.766 190.362 197.305 195.339 197.841 201.173C198.606 209.503 191.208 219.42 182.444 214.463C176.797 211.268 179.006 199.186 175.148 196.229C170.556 196.098 170.389 201.144 170.692 204.564C171.522 213.921 177.703 225.125 171.152 233.669C166.533 239.691 157.137 239.728 151.612 234.93C146.516 230.506 147.928 226.233 148.769 220.521C149.575 215.045 152.293 206.813 148.604 202.207C146.172 199.172 139.377 202.762 137.79 205.394C134.087 210.774 133.978 217.953 133.886 224.254C133.727 235.047 142.442 256.661 126.094 259.759C118.621 261.175 110.688 258.916 109.93 250.268C108.83 237.709 118.44 223.444 110.057 212.062C109.242 211.008 108.186 211.253 107.153 211.316C101.887 214.337 99.7388 224.192 92.4858 222.803C83.4938 221.079 87.2788 208.167 81.6088 205.32C78.5088 203.764 73.6638 210.314 73.6898 212.899C71.4238 221.281 74.5528 234.819 66.7618 240.465C59.4178 245.788 53.7318 234.905 53.6458 228.742C53.5318 220.612 58.0478 201.748 48.2458 197.718C46.2388 197.856 45.9338 197.911 44.5138 199.401C39.8508 204.291 40.0848 216.312 31.8788 217.359C25.4458 218.181 21.7158 209.095 21.5658 203.983C21.4128 198.785 23.6138 194.546 24.9578 189.781C23.5348 188.284 21.9978 186.574 20.4478 185.239C17.5028 186.133 14.2441 187.573 11.4401 186.563C7.84828 183.294 8.88238 181.876 7.26148 179.869L6.12988 179.441Z" fill="#010000"/>
<path d="M17.0589 166.546C20.3739 166.211 23.3528 168.577 23.7768 171.882C24.2008 175.187 21.9148 178.229 18.6228 178.741C16.4128 179.085 14.1906 178.201 12.8194 176.435C11.4482 174.668 11.1443 172.296 12.0255 170.241C12.9067 168.186 14.8343 166.771 17.0589 166.546Z" fill="#0D64A6"/>
<path d="M56.9758 175.901C59.8808 172.233 64.6068 170.52 69.1878 171.473C73.7678 172.427 77.4178 175.884 78.6168 180.407C79.8488 185.05 78.2798 189.987 74.5918 193.066C70.9048 196.145 65.7668 196.81 61.4178 194.77C57.0688 192.73 54.2948 188.355 54.3048 183.551C54.3108 180.773 55.2518 178.079 56.9758 175.901Z" fill="#010000"/>
<path d="M63.8868 173.479C67.4808 172.502 71.3218 173.531 73.9468 176.173C76.5708 178.816 77.5738 182.664 76.5728 186.251C75.5718 189.838 72.7208 192.611 69.1068 193.512C63.6008 194.885 58.0158 191.57 56.5848 186.078C55.1538 180.587 58.4108 174.967 63.8868 173.479Z" fill="#0D64A6"/>
<path d="M180.651 166.05C181.401 162.789 182.362 159.075 185.613 157.497C197.515 151.72 206.754 168.291 194.897 174.713C186.052 175.405 183.221 174.909 180.651 166.05Z" fill="#010000"/>
<path d="M188.781 158.583C192.769 157.537 196.854 159.907 197.923 163.889C198.992 167.871 196.644 171.969 192.668 173.06C188.66 174.16 184.523 171.79 183.445 167.777C182.368 163.763 184.761 159.638 188.781 158.583Z" fill="#0D64A6"/>
<path d="M113.017 184.409C115.101 184.206 117.481 183.83 119.524 184.467C122.084 185.264 124.316 187.467 125.399 189.882C126.676 192.723 126.722 195.965 125.526 198.841C124.075 202.244 121.515 203.979 118.189 205.28C116.071 205.631 114.245 205.873 112.148 205.219C109.326 204.325 107.008 202.29 105.756 199.607C104.436 196.834 104.251 193.555 105.406 190.699C106.875 187.069 109.537 185.782 113.017 184.409Z" fill="#010000"/>
<path d="M113.398 186.541C118.094 185.352 122.861 188.208 124.028 192.909C125.195 197.61 122.316 202.364 117.609 203.508C112.934 204.645 108.219 201.79 107.06 197.12C105.901 192.45 108.734 187.722 113.398 186.541Z" fill="#0D64A6"/>
<path d="M39.6948 174.044C45.0528 173.739 49.6339 177.859 49.8969 183.219C50.1599 188.58 46.0049 193.128 40.6419 193.349C35.3389 193.568 30.8519 189.468 30.5919 184.167C30.3309 178.865 34.3958 174.346 39.6948 174.044Z" fill="#010000"/>
<path d="M39.4818 175.885C40.8928 175.969 42.2268 176.087 43.5288 176.687C45.4818 177.587 47.1728 179.295 47.9018 181.333C48.5468 183.136 48.4188 185.234 47.5938 186.957C46.2948 189.67 44.1918 190.561 41.4618 191.432C40.2078 191.304 38.9748 191.151 37.7748 190.745C35.6658 190.03 33.8968 188.59 33.0018 186.518C32.2378 184.751 32.2338 182.857 33.0228 181.096C34.2628 178.332 36.7368 176.845 39.4818 175.885Z" fill="#2654A8"/>
<path d="M180.464 177.359C181.712 177.552 182.818 177.788 183.925 178.417C185.758 179.46 187.469 180.781 187.953 182.94C188.302 184.493 187.912 186.209 187.046 187.529C185.387 190.054 183.072 190.778 180.252 191.361C179.953 191.299 179.652 191.243 179.355 191.174C177.132 190.663 174.258 188.966 173.24 186.834C172.552 185.392 172.688 183.725 173.362 182.316C174.674 179.575 177.744 178.251 180.464 177.359Z" fill="#010000"/>
<path d="M180.497 179.241C182.123 179.296 184.499 180.699 185.508 181.976C186.203 182.857 186.336 184.191 186.076 185.246C185.538 187.427 183.527 188.305 181.744 189.331C180.168 189.125 177.857 188.692 176.651 187.569C175.746 186.728 175.254 185.907 175.405 184.633C175.717 182.012 178.528 180.517 180.497 179.241Z" fill="#2654A8"/>
<path d="M159.725 105.358C173.818 102.698 187.393 111.987 190.019 126.086C192.644 140.185 183.324 153.738 169.218 156.33C155.16 158.913 141.663 149.631 139.046 135.579C136.429 121.527 145.68 108.008 159.725 105.358Z" fill="#010000"/>
<path d="M159.982 106.924C173.077 104.403 185.747 112.943 188.324 126.027C190.901 139.111 182.416 151.817 169.343 154.45C156.19 157.1 143.39 148.552 140.797 135.388C138.204 122.224 146.807 109.46 159.982 106.924Z" fill="#E8463C"/>
<path d="M159.991 118.293C161.403 118.286 162.383 118.408 163.736 118.81C164.731 120.197 165.332 121.284 167.065 121.786C168.116 121.671 169.143 121.514 170.198 121.681C170.736 121.767 170.762 121.732 171.043 122.229C171.788 123.544 171.845 126.95 171.238 128.359C170.551 129.953 168.371 130.35 166.856 131.026C166.799 131.486 166.753 131.947 166.673 132.404C166.31 134.484 165.517 134.81 163.941 135.923C162.402 136.09 161.124 136.202 159.803 135.266C157.39 129.031 155.754 133.026 153.078 129.798C152.28 128.836 151.752 127.795 151.98 126.522C152.616 122.974 157.392 120.457 159.991 118.293Z" fill="#010000"/>
<path d="M156.235 122.562C156.397 122.664 156.581 122.737 156.721 122.868C157.608 123.696 158.619 125.377 158.616 126.608C158.612 128.227 157.825 128.635 156.792 129.742C156.541 129.683 156.271 129.677 156.039 129.565C154.753 128.941 154.576 128.262 154.197 127.022C154.468 125.1 155.103 124.119 156.235 122.562Z" fill="#E8463C"/>
<path d="M166.429 122.946C166.795 122.975 167.356 123.004 167.698 123.101C168.933 123.452 169.006 123.907 169.547 124.977C169.451 126.722 169.083 127.766 168.301 129.32C167.025 128.783 165.792 128.445 165.023 127.216C164.775 125.644 165.736 124.302 166.429 122.946Z" fill="#E8463C"/>
<path d="M162.367 128.23C163.277 129.18 163.971 130.023 164.671 131.151C164.467 132.844 163.987 133.089 162.865 134.32C161.37 133.774 160.855 133.37 160.102 132.031C160.34 130.278 161.225 129.471 162.367 128.23Z" fill="#E8463C"/>
<path d="M159.966 120.182C161.557 120.287 162.348 120.147 163.466 121.305C163.703 122.968 162.826 124.279 162.117 125.726C160.982 125.279 160.536 124.728 159.773 123.795C159.364 122.227 159.471 121.655 159.966 120.182Z" fill="#E8463C"/>
<path d="M43.5578 110.773C57.5188 108.352 70.8178 117.653 73.3348 131.597C75.8508 145.542 66.6428 158.904 52.7158 161.517C38.6528 164.156 25.1298 154.838 22.5888 140.756C20.0468 126.675 29.4588 113.217 43.5578 110.773Z" fill="#010000"/>
<path d="M51.9248 126.33C52.0858 126.45 52.2418 126.577 52.4078 126.69C55.1868 128.585 55.6318 126.441 57.9638 126.983C61.9038 127.9 61.0528 130.328 65.9828 129.482C68.3988 130.162 70.1178 133.087 71.5838 135.022C71.3088 141.602 69.5388 147.777 64.7678 152.544C59.1948 158.112 51.8548 159.946 44.2348 159.83C39.6098 159.026 35.3868 157.459 31.6728 154.521C29.1098 152.493 26.0478 149.38 25.7428 145.931C25.2548 140.42 30.3678 141.019 32.9038 137.87C33.5998 137.007 33.2368 136.34 33.1438 135.283C33.8888 133.942 36.2908 133.326 37.7438 132.641L36.9918 131.562L37.1508 130.676C38.1248 130.9 37.6788 130.772 38.7668 131.153L39.5948 131.449C41.4088 130.931 42.9468 129.289 44.3688 128.086C45.6798 127.748 46.7168 128.208 47.9658 128.593L48.5768 128.785C50.0248 128.352 50.6088 127.786 51.5898 126.707C51.7028 126.583 51.8128 126.456 51.9248 126.33Z" fill="#0D64A6"/>
<path d="M46.3438 112.466C51.7308 112.109 57.8458 113.45 62.3878 116.374C68.5138 120.318 70.8338 126.201 72.4208 132.955C71.3068 131.706 70.1028 130.227 68.7148 129.275C66.5728 127.805 58.9538 123.726 56.3498 124.076C55.8168 124.785 55.3768 125.276 54.6498 125.789C53.5048 125.307 52.3638 124.856 51.1948 124.433C50.1018 124.542 49.4748 124.715 48.5628 125.298C48.3988 125.402 48.2378 125.511 48.0728 125.614C46.3748 126.676 45.3848 126.144 43.5808 125.738L42.8218 125.675C42.2018 126.905 41.8088 127.894 40.5708 128.625C39.5778 128.64 38.1948 128.535 37.2748 128.927C35.0668 129.866 32.2838 132.245 31.4948 134.559C30.5578 137.303 26.5928 138.553 24.4628 141.919C24.0808 135.051 24.1718 128.701 28.3188 122.818C32.6348 116.697 39.1658 113.637 46.3438 112.466Z" fill="#F97D35"/>
<path d="M102.96 0.249619C116.835 -1.69068 129.691 7.88872 131.799 21.7396C133.907 35.5896 124.484 48.5606 110.66 50.8356C101.567 52.3326 92.3718 48.8246 86.5868 41.6516C80.8028 34.4786 79.3218 24.7496 82.7108 16.18C86.0988 7.61082 93.8338 1.52582 102.96 0.249619Z" fill="#010000"/>
<path d="M101.159 2.44104C109.513 0.514535 118.257 3.23774 124.04 9.56684C129.823 15.8959 131.748 24.8495 129.077 32.9965C126.407 41.1435 119.555 47.2195 111.147 48.8965C98.4128 51.4375 85.9968 43.2845 83.2678 30.5895C80.5378 17.8943 88.5058 5.35904 101.159 2.44104Z" fill="#E8463C"/>
<path d="M102.777 14.6884C104.038 14.6026 105.215 14.7184 106.465 14.8516C109.439 17.0864 113.825 17.5721 116.246 20.1615C117.051 23.7955 113.956 25.3585 113.484 28.5955C113.367 29.4025 113.287 30.1355 113.101 30.9425C111.533 32.1685 110.123 31.4945 108.301 32.0865C108.134 32.1405 107.977 32.2215 107.815 32.2895C106.202 33.2325 104.821 34.1045 102.897 34.1245C101.213 33.1535 100.544 30.8695 99.4149 29.2175C98.4469 28.8975 97.2409 28.5905 96.5029 27.8535C95.3699 26.7225 94.7559 25.2135 94.9069 23.6405C95.9259 21.8715 97.6549 21.4245 99.2689 20.3785C100.453 19.6125 100.565 18.3225 100.856 17.039C101.086 16.029 102.042 15.409 102.777 14.6884Z" fill="#010000"/>
<path d="M109.61 19.0146C111.216 19.2896 113.113 19.3527 114.24 20.6367C114.534 22.3277 114.063 23.1607 113.52 24.7677C112.128 24.8497 111.163 24.3466 110.109 23.4986C109.27 21.6226 109.427 21.0106 109.61 19.0146Z" fill="#E8463C"/>
<path d="M102.887 16.7581C103.588 16.758 104.494 16.6879 105.168 16.8629C106.568 17.2261 106.76 17.5464 107.465 18.6936C107.492 20.2046 107.07 21.1056 106.439 22.4266C106.068 22.4226 105.429 22.4296 105.081 22.3556C104.049 22.1356 103.251 21.3346 102.81 20.3976C102.237 19.1806 102.428 17.9646 102.887 16.7581Z" fill="#E8463C"/>
<path d="M98.1438 21.9517C98.3238 21.9637 98.5048 21.9687 98.6838 21.9897C100.097 22.1597 101.432 22.8257 102.182 24.1007C102.964 25.4297 102.655 25.9537 102.12 27.2197C101.907 27.2347 101.694 27.2597 101.481 27.2627C99.8358 27.2907 99.0088 26.9347 97.9028 25.8167C97.4138 24.3187 97.7318 23.3987 98.1438 21.9517Z" fill="#E8463C"/>
<path d="M108.595 24.6775C109.633 25.0155 110.073 25.5765 110.79 26.3715C111.229 27.9845 111.062 28.7515 110.521 30.3165C110.297 30.2865 110.071 30.2655 109.849 30.2245C108.216 29.9275 107.505 29.4615 106.592 28.1575C106.831 26.2585 107.318 26.0375 108.595 24.6775Z" fill="#E8463C"/>
<path d="M122.393 36.5347L123.402 37.0767L123.71 38.1737C122.643 40.6977 119.97 42.0537 117.67 43.2827C117.167 43.1857 117.529 43.2847 116.717 42.6867C117.079 41.2147 118.168 40.9857 119.436 40.2287C121.118 39.2237 121.61 38.2777 122.393 36.5347Z" fill="#110707"/>
<path d="M113.566 43.3296L114.035 43.3896L114.247 44.0126C113.209 45.0156 112.128 45.3446 110.802 45.8096L109.961 45.2796C110.656 44.1136 112.312 43.8276 113.566 43.3296Z" fill="#110707"/>
<path d="M68.0048 52.5856C81.8838 50.7786 94.6058 60.5496 96.4408 74.4256C98.2748 88.3006 88.5298 101.043 74.6588 102.906C60.7468 104.774 47.9598 94.9946 46.1198 81.0786C44.2798 67.1636 54.0858 54.3966 68.0048 52.5856Z" fill="#010000"/>
<path d="M65.9059 54.7496C78.6889 51.7896 91.4339 59.8186 94.2809 72.6276C97.1279 85.4366 88.9859 98.1096 76.1519 100.844C63.4789 103.543 50.9979 95.5236 48.1859 82.8746C45.3739 70.2256 53.2819 57.6736 65.9059 54.7496Z" fill="#E8463C"/>
<path d="M65.5318 65.3206C66.6458 65.2986 67.7618 65.2956 68.8728 65.3786C71.5988 65.5826 71.1568 68.5746 72.6978 70.4086C74.2858 70.8046 75.5278 71.0826 76.6208 72.4256C77.5208 73.5316 77.5468 74.2646 77.4758 75.6296C76.3508 77.9336 73.7118 79.6246 71.7628 81.2476C71.2408 82.9436 70.7958 83.6126 69.5468 84.8746C68.6518 84.8266 67.6798 84.8176 66.8048 84.6256C66.4048 84.5366 65.4198 84.1576 65.1318 83.9026C64.2268 83.1016 63.9098 81.4526 63.1758 80.4726C61.6348 78.4156 58.5248 77.7146 57.4808 75.1586C57.0558 74.1166 57.2658 73.2866 57.7458 72.3256C58.5218 70.7736 59.9078 70.2186 61.4538 69.6836C61.6348 69.6206 61.8168 69.5636 61.9988 69.5036C63.0378 67.7816 63.9228 66.5446 65.5318 65.3206Z" fill="#010000"/>
<path d="M67.0178 66.9316C68.4468 66.5056 69.9518 67.3106 70.3908 68.7356C70.8288 70.1616 70.0358 71.6736 68.6148 72.1236C67.1758 72.5796 65.6418 71.7746 65.1988 70.3326C64.7548 68.8906 65.5718 67.3626 67.0178 66.9316Z" fill="#E8463C"/>
<path d="M67.8039 76.3555C68.7899 77.4705 70.0029 79.8755 69.8799 81.3795C69.8089 82.2475 69.0099 82.5565 68.3769 83.0755C66.8139 82.0895 65.4179 81.2475 64.9749 79.3695C65.4199 77.8905 66.6239 77.2325 67.8039 76.3555Z" fill="#E8463C"/>
<path d="M72.6288 72.6807C72.9618 72.7087 73.4038 72.7257 73.7108 72.8527C74.8398 73.3187 74.8928 73.7697 75.2138 74.8297C74.7678 76.5347 73.9748 77.3437 72.7668 78.5937C71.6398 77.7827 70.4328 76.8747 70.0758 75.4887C70.6658 73.9037 71.2938 73.6687 72.6288 72.6807Z" fill="#E8463C"/>
<path d="M61.5348 72.1297C62.8128 71.8007 64.1298 72.5027 64.5688 73.7467C65.0078 74.9907 64.4228 76.3637 63.2218 76.9097C62.3458 77.3067 61.3208 77.1767 60.5728 76.5727C59.8238 75.9687 59.4798 74.9947 59.6838 74.0547C59.8878 73.1147 60.6038 72.3697 61.5348 72.1297Z" fill="#E8463C"/>
<path d="M92.7598 79.3706C92.7958 79.6146 92.8438 79.8566 92.8698 80.1026C93.3228 84.4946 88.7888 89.7096 86.2888 92.8776L85.9088 91.5096C86.5398 89.8326 88.3068 88.6086 89.6348 87.4406C90.0348 84.6656 91.3148 81.7536 92.7598 79.3706Z" fill="#110707"/>
<path d="M134.951 50.9884C148.717 49.2014 161.337 58.8775 163.184 72.6355C165.032 86.3925 155.411 99.0544 141.662 100.962C127.827 102.881 115.069 93.1885 113.21 79.3455C111.351 65.5025 121.101 52.7864 134.951 50.9884Z" fill="#010000"/>
<path d="M131.166 54.2626C138.962 52.0966 147.32 54.2886 153.049 60.0026C158.777 65.7156 160.991 74.0686 158.844 81.8696C156.698 89.6706 150.522 95.7146 142.677 97.6936C130.748 100.703 118.617 93.5576 115.466 81.6646C112.314 69.7726 119.313 57.5576 131.166 54.2626Z" fill="#0D64A6"/>
<path d="M142.675 74.1316C143.766 74.3146 144.796 74.5226 145.71 75.1916C147.329 76.3776 149.292 80.0986 149.307 82.1046C149.334 85.8316 146.543 84.5366 144.72 86.4176C144.466 87.4436 144.194 88.4406 143.859 89.4436C142.419 90.0226 141.417 89.6986 139.974 89.3676C139.039 89.5426 138.588 89.5856 137.694 89.2426C137.61 88.9326 137.501 88.6296 137.44 88.3146C136.969 85.8516 135.174 84.7526 134.664 82.6256C134.384 81.4536 134.384 80.3516 135.068 79.3096C136.182 77.6146 138.243 77.0886 140.058 76.5226C141.178 76.1736 141.893 75.0016 142.675 74.1316Z" fill="#010000"/>
<path d="M139.8 82.6675C140.5 82.9795 141.407 83.4755 141.976 84.0155C143.14 85.1205 143.256 86.0105 143.414 87.5035C143.203 87.5115 142.992 87.5265 142.78 87.5275C141.069 87.5355 140.534 87.3195 139.385 86.1375C139.164 84.6945 139.352 84.0095 139.8 82.6675Z" fill="#0D64A6"/>
<path d="M102.818 99.5715C114.533 98.4095 124.979 106.944 126.176 118.656C127.373 130.367 118.868 140.839 107.161 142.07C95.4038 143.307 84.8778 134.759 83.6758 122.999C82.4748 111.238 91.0538 100.738 102.818 99.5715Z" fill="#010000"/>
<path d="M102.746 101.963C107.901 101.593 113.39 102.706 117.597 105.802C121.503 108.659 124.085 112.976 124.755 117.768C125.467 123.037 124.068 128.374 120.862 132.616C117.49 137.03 113.036 139.223 107.642 140.037C102.885 140.235 98.1509 139.305 94.1399 136.639C89.3809 133.476 86.2769 128.263 85.3549 122.658C84.5709 117.9 85.5239 112.969 88.5329 109.136C92.1039 104.588 97.2249 102.759 102.746 101.963Z" fill="#E8463C"/>
<path d="M122.016 121.692L122.455 121.957C121.866 125.904 120 129.25 117.04 131.866C116.613 131.404 116.827 131.731 116.703 130.743C118.764 127.817 119.965 124.51 122.016 121.692Z" fill="#110707"/>
<path d="M114.48 132.229L115.023 132.434L115.197 133.109C113.784 134.662 111.798 135.449 109.949 136.384L109.217 135.976L109.111 135.165C110.541 133.67 112.608 133.03 114.48 132.229Z" fill="#110707"/>
<path d="M104.222 146.46C107.53 146.343 110.117 146.413 113.216 147.701L109.363 147.201C115.841 149.085 122.495 150.947 128.185 154.695C128.103 158.842 127.416 162.989 125.844 166.847C123.117 173.537 118.858 177.229 112.378 180.011C108.082 181.029 103.414 181.411 99.1149 180.208C93.5589 178.652 88.7439 174.648 86.0609 169.555C84.1879 166 82.8659 161.144 84.2549 157.207C86.7759 150.062 97.8609 149.768 103.758 146.708C103.914 146.627 104.067 146.543 104.222 146.46Z" fill="#010000"/>
<path d="M103.76 149.123C104.679 149.31 105.268 149.8 105.963 150.418C106.145 150.58 106.321 150.749 106.5 150.915C111.409 150.593 119.187 151.87 123.609 154.134C125.119 154.907 126.146 155.871 126.581 157.573C127.32 160.468 125.086 164.511 123.707 167C120.426 172.918 116.02 176.861 109.498 178.708L108.891 178.773L107.879 178.866L107.122 178.947C101.72 179.486 96.6659 178.286 92.5069 174.691C88.4909 171.219 86.0499 166.051 85.7469 160.733C85.2299 151.682 98.6199 154.784 103.361 149.572C103.496 149.424 103.627 149.272 103.76 149.123Z" fill="#0D64A6"/>
<path d="M127.712 177.598C129.575 165.593 143.133 161.273 153.648 163.131C158.747 164.032 161.087 165.403 165.403 168.065C166.712 168.702 167.879 169.649 168.211 171.082C172.404 189.201 149.539 199.424 135.367 191.139C129.27 187.575 127.803 184.048 127.712 177.598Z" fill="#010000"/>
<path d="M127.712 177.598C129.575 165.593 143.133 161.273 153.648 163.131C158.747 164.032 161.087 165.403 165.403 168.065C155.227 167.122 137.433 166.331 131.689 176.438C130.124 177.198 129.386 177.265 127.712 177.598Z" fill="#F97D35"/>
<path d="M155.044 169.287C155.202 169.299 155.365 169.281 155.519 169.322C157.933 169.962 159.989 169.855 162.446 170.198C164.339 170.461 165.225 171.002 166.324 172.554C167.333 173.981 167.569 175.7 167.249 177.397C166.441 181.68 162.866 185.848 159.402 188.3C153.925 192.177 147.926 192.793 141.505 191.606C140.387 191.308 139.267 190.989 138.198 190.54C134.841 189.129 130.776 186.213 129.365 182.8C129.413 181.475 129.471 181.345 130.242 180.262C131.122 179.964 132.107 179.685 132.928 179.252C134.188 178.589 134.442 177.122 134.948 175.9C137.4 169.971 149.372 171.616 154.473 169.531C154.664 169.452 154.853 169.369 155.044 169.287Z" fill="#0D64A6"/>
<path d="M191.114 142.16C191.293 142.25 191.481 142.324 191.651 142.432C194.132 143.996 208.996 164.672 211.085 168.189C212.696 170.902 213.98 173.796 214.911 176.81C216.197 180.991 216.73 185.247 217.295 189.571C218.628 199.782 218.912 207.727 213.971 217.137L213.945 216.839C211.349 220.575 209.622 224.815 206.801 228.441C196.976 241.073 176.34 256.459 161.512 262.146C155.152 264.585 148.254 265.373 141.906 267.749C137.153 269.528 133.43 273.408 128.597 275.075C128.351 275.16 128.102 275.233 127.856 275.316C126.515 275.766 125.557 275.885 124.132 275.73C118.307 275.097 112.64 272.552 106.859 271.509C101.782 270.594 96.5518 270.562 91.4478 269.821C81.6878 268.404 71.5298 266.065 61.8878 263.89C59.3558 263.318 57.0858 262.247 55.6318 260.03L55.9818 258.572C58.7668 258.288 69.0318 263.789 72.9318 264.74C76.9098 265.711 81.2378 266.539 85.3488 266.591C88.6878 266.634 92.1268 266.231 95.4278 266.772C101.161 267.711 107.288 268.295 112.903 269.585C115.855 270.264 118.372 272.164 121.431 272.509C124.798 272.889 129.446 271.804 132.759 271.037L132.244 270.307C134.011 267.941 159.742 257.697 164.924 255.95C163.877 256.914 162.929 257.86 162 258.938L162.316 259.366C163.474 259.054 164.531 258.68 165.608 258.153C169.235 256.377 172.445 254.011 175.84 251.851C186.325 245.18 188.781 243.767 197.723 234.773C199.891 232.592 202.403 230.338 204.181 227.821C205.55 225.881 205.313 223.37 206.82 221.28C209.69 217.298 213.454 213.803 214.926 208.99C216.472 203.935 215.189 197.768 214.586 192.626C211.984 170.445 209.869 170.41 197.627 152.13C195.629 149.146 193.285 146.209 191.586 143.058C191.425 142.76 191.271 142.459 191.114 142.16Z" fill="#010000"/>
<path d="M4.16253 183.096L5.00653 183.865C1.11953 193.97 2.13873 193.037 3.15043 202.829L4.11663 204.167C3.28693 210.54 4.12163 217.01 6.32033 223.034C8.12383 227.975 10.1618 231.723 14.2323 235.221C18.0338 238.488 21.4358 238.35 25.4738 240.378L52.5648 253.88C54.5618 254.856 55.7058 255.361 56.4168 257.389L55.1478 259.015C49.9888 260.773 35.7098 247.727 31.4798 245.857C13.2304 237.794 11.2377 240.589 2.75683 221.546L2.93223 223.195C2.59663 222.5 2.28142 221.796 1.98682 221.083C-1.61598 212.229 0.0233264 192.569 4.16253 183.096Z" fill="#010000"/>
<path d="M43.0278 283.417C44.8658 284.222 46.6908 284.888 48.1658 286.292C48.9928 288.327 47.4228 292.207 46.9568 294.384C46.5868 296.111 45.7848 296.866 44.5988 298.102C42.0688 297.498 39.7178 296.512 37.3108 295.547C39.6358 291.794 41.2448 287.454 43.0278 283.417Z" fill="#010000"/>
<path d="M116.434 297.298C117.872 297.187 119.418 297.014 120.638 297.951C121.974 298.978 122.812 300.866 122.892 302.517C123.039 305.563 122.389 307.563 120.42 309.845C118.568 309.977 117.152 310.078 115.601 308.837C114.282 307.781 113.485 305.748 113.493 304.103C113.507 301.072 114.263 299.352 116.434 297.298Z" fill="#010000"/>
<path d="M117.462 299.031C118.436 299.338 119.166 299.64 119.642 300.621C120.714 302.83 120.104 305.647 119.176 307.785L117.552 307.104C116.924 306.383 116.6 305.891 116.324 304.951C115.731 302.936 116.515 300.78 117.462 299.031Z" fill="#F7F3EE"/>
<path d="M134.625 294.666C135.068 295.249 135.252 295.805 135.45 296.521C136.052 298.698 137.727 305.945 136.745 307.597L135.436 307.664C134.661 306.868 134.586 306.317 134.432 305.261C134.266 304.125 134.064 303.119 133.739 302.02C132.292 301.976 132.151 303.735 130.503 304.05L128.993 302.323L128.517 302.738L129.112 302.633L128.471 303.064L128.531 303.988C129.095 305.819 129.603 307.031 128.938 308.902L128.065 308.622C125.518 304.92 124.956 299.14 125.24 294.735C126.755 296.011 128.072 297.387 129.701 298.541L130.739 298.271C131.81 296.888 132.757 295.88 134.23 294.917C134.36 294.832 134.493 294.75 134.625 294.666Z" fill="#010000"/>
<path d="M102.653 297.381C104.736 297.457 107.367 297.356 109.041 298.731C109.778 300.087 110.968 307.421 110.781 309.176C108.228 310.445 105.778 310.513 102.998 310.613L102.653 297.381Z" fill="#010000"/>
<path d="M139.594 293.54C140.344 293.429 141.158 293.261 141.914 293.258C143.219 293.252 143.854 293.295 144.782 294.255C146.626 296.163 148.063 300.141 147.715 302.809C147.531 304.217 146.758 304.601 145.755 305.474C144.372 305.778 142.157 306.529 140.939 305.774C139.747 302.513 138.424 297.561 138.692 294.14L139.594 293.54Z" fill="#010000"/>
<path d="M62.0358 291.181C64.5808 291.648 67.9738 291.884 69.7028 293.994C70.6298 298.172 66.9268 298.109 67.0578 300.043C67.1838 301.914 68.7058 303.774 68.0768 305.701C66.7948 305.883 66.6638 305.612 65.5428 305.065C64.9758 302.919 64.3068 300.797 63.6708 298.671C63.0438 300.461 62.4768 302.154 61.4808 303.776L60.2588 303.791C58.5928 301.241 62.2578 295.353 62.1088 292.194C62.0938 291.856 62.0598 291.519 62.0358 291.181Z" fill="#010000"/>
<path d="M73.4518 293.823C76.0798 294.18 79.2498 294.436 81.1728 296.449C81.2238 298.793 78.5688 300.407 78.5618 302.634C78.5568 304.304 79.8308 305.856 79.1058 307.566C77.9358 307.852 77.8538 307.842 76.7338 307.396L76.7368 306.203L76.2168 304.007L75.0378 303.41L75.0408 303.227L75.8738 303.371L75.4338 302.658L75.0558 302.603C74.5648 304.059 74.0238 305.469 73.4318 306.887L72.5108 307.236L71.7118 306.561C70.5868 304.032 72.9418 296.883 73.4518 293.823Z" fill="#010000"/>
<path d="M160.846 286.924C161.918 286.82 163.364 286.53 164.414 286.689C167.485 287.152 166.206 290.569 167.006 292.496C167.53 293.758 169.467 295.516 170.32 296.817L169.814 297.625L168.812 297.814C166.97 297.223 165.855 295.945 164.488 294.626C163.036 295.902 164.646 297.865 164.019 299.629L163.273 299.614C162.152 298.57 161.309 297.112 160.568 295.768C159.559 293.938 158.103 290.017 158.746 287.984L160.846 286.924Z" fill="#010000"/>
<path d="M52.8998 288.234C54.8798 288.68 57.2598 289.044 58.7998 290.466C59.5688 291.177 59.4138 290.808 59.4388 291.693C58.1278 292.159 56.1818 291.84 54.7668 291.777L54.0448 292.804L54.4198 293.594C55.7458 293.921 56.7518 294.174 57.8808 294.999C56.4478 296.888 54.4638 295.447 52.5698 296.324L52.2558 296.869C52.4098 297.851 52.6348 298.39 53.1748 299.223C54.2158 299.456 55.1478 299.697 56.1298 300.12C56.0138 301.33 56.1708 301.406 55.3458 302.393C53.0428 301.797 50.7618 300.629 48.5658 299.706C50.4098 296.03 51.6178 292.131 52.8998 288.234Z" fill="#010000"/>
<path d="M154.952 289.341C155.682 289.775 155.34 289.448 155.775 290.498C154.69 291.922 152.98 291.725 151.914 293.061C151.947 294.21 151.779 294.08 152.582 295.059L155.123 294.782L155.971 295.57L155.77 296.245C154.751 296.909 153.977 297.322 153.349 298.396C153.846 299.55 153.926 299.439 154.904 300.089C155.49 299.909 156.188 299.644 156.802 299.55C158.292 299.322 158.366 299.512 159.52 300.395C157.624 302.667 154.61 302.95 151.875 303.597C150.831 299.654 149.614 295.748 148.435 291.844C150.549 290.793 152.717 290.076 154.952 289.341Z" fill="#010000"/>
<path d="M83.9429 295.792C85.1819 295.989 85.7809 296.083 86.7049 296.957C87.0319 298.321 87.2289 299.194 88.2409 300.243C89.6679 299.679 90.2559 297.728 91.5869 296.738L92.6309 296.908L93.0579 297.833C92.1899 299.74 90.8489 301.487 89.6809 303.224C89.1169 304.704 89.2389 306.176 88.7839 307.648C88.4439 308.751 88.3509 308.799 87.3879 309.333L86.2479 308.971L85.8019 308.081C87.4069 303.395 84.8809 300.351 83.9429 295.792Z" fill="#010000"/>
<path d="M23.3768 227.14C27.5688 228.259 35.9338 234.184 39.0728 237.31C34.0948 236.272 26.9448 230.775 23.3768 227.14Z" fill="#010000"/>
<path d="M3.15039 202.83L3.40099 202.168C5.06089 197.676 3.88759 198.642 6.58409 193.604L6.77849 193.757C5.95229 197.242 5.06479 200.713 4.11659 204.168L3.15039 202.83Z" fill="#110707"/>
<path d="M213.063 201.156C213.719 204.392 213.325 207.875 212.181 210.953C211.399 208.447 212.363 203.667 213.063 201.156Z" fill="#545356"/>
<path d="M4.16248 183.097L6.12988 179.441L7.26147 179.869C6.45687 181.224 5.71228 182.449 5.00648 183.866L4.16248 183.097Z" fill="#110707"/>
</svg>
