<svg width="220" height="311" viewBox="0 0 220 311" fill="none" xmlns="http://www.w3.org/2000/svg">
<path d="M71.3977 72.5369L121.013 21.6319C127.287 15.2569 134.069 7.62092 140.714 1.93292C150.168 -6.15908 170.494 13.1719 162.047 22.7389C148.005 38.6439 131.088 53.0989 117.296 69.1499C124.435 66.0449 131.004 62.2319 138.36 59.0319C152.484 52.8879 168.031 43.3009 182.214 37.8659C192.304 33.9989 201.648 54.8079 195.719 62.3789C194.328 64.7949 193.4 65.3949 190.908 66.6729C174.748 74.9639 158.17 82.7349 142.055 91.0969L68.0717 129.292C58.1467 134.359 37.2907 146.515 27.2737 148.302C24.6617 151.407 22.9427 152.176 23.7697 156.305C14.2637 166.548 6.30372 166.379 9.14172 183.281C12.3487 180.805 15.7157 179.108 19.9747 179.84C22.2857 180.238 24.3957 181.461 25.7617 183.407C31.8527 192.092 21.6007 201.89 27.1477 210.734C28.9987 213.41 32.6127 214.438 35.3527 212.253C42.1507 206.827 39.4657 190.762 50.5817 191.015C54.5027 191.104 56.6617 196.74 57.3737 199.83C59.9977 211.214 55.8297 223.521 60.3277 234.667C62.0387 238.905 66.3387 240.157 69.9267 237.293C73.3057 234.373 73.2277 227.582 73.7937 223.506C74.9037 215.206 74.0367 200.812 85.8867 200.39C94.6887 200.076 89.2637 223.008 100.716 217.665C105.491 215.436 102.667 192.109 115.854 206.19C119.896 210.505 118.367 220.215 117.575 225.399C116.519 232.542 110.287 244.526 114.324 251.225C118.574 258.278 131.705 254.44 131.996 246.144C133.047 231.474 121.347 204.592 137.746 194.936C142.023 194.729 146.505 194.238 149.948 197.359C152.588 199.753 153.285 203.395 153.308 206.809C153.358 214.216 148.277 226.782 154.22 232.748C156.12 234.655 158.952 234.98 161.515 234.863C163.716 234.763 165.863 234.117 167.36 232.415C169.825 229.613 170.199 225.098 169.822 221.552C168.781 211.772 162.298 198.526 168.978 189.278C170.342 187.39 172.846 186.043 175.144 185.764C176.815 185.561 178.044 185.828 179.423 186.81C184.277 193.714 174.347 206.206 187.492 208.68C189.782 209.111 192.04 209.135 193.985 207.692C196.26 206.005 196.936 201.8 197.044 199.192C197.375 191.208 190.497 179.3 197.2 172.618C200.287 169.541 205.961 171.386 207.802 167.753C207.634 163.81 203.591 160.881 203.64 159.525L203.8 159.509L205.168 158.65C204.037 157.288 202.875 155.832 201.695 154.523C198.348 156.369 194.649 158.533 191.153 159.969C187.61 155.018 181.751 144.453 180.998 138.467C180.445 131.781 179.954 124.75 180.056 118.069C180.105 114.85 187.82 113.58 190.068 114.284C195.172 115.881 193.614 127.805 193.341 132.171C200.806 143.415 202.671 153.592 212.056 163.896C217.846 170.252 220.535 195.944 219.211 203.93C218.565 209.754 209.498 224.645 205.445 228.877C192.901 241.979 175.346 255.618 157.806 260.972C153.078 262.266 147.383 263.02 142.844 264.742C137.09 266.925 130.633 274.624 123.572 272.583C112.068 269.258 101.708 267.253 89.6037 266.521C85.0087 266.243 77.8687 263.472 73.0907 262.831C69.8587 262.154 66.7297 260.269 63.6027 261.465C61.1997 260.89 38.6897 249.083 36.0127 247.013L36.6677 245.858C35.1917 244.565 31.0457 243.047 29.1907 242.267C10.3427 234.341 10.8537 236.622 3.3247 218.875C2.7657 219.776 3.01373 219.62 2.97473 220.983C-1.29427 212.992 -0.42828 195.379 2.19372 186.606C3.68972 181.605 6.95774 170.275 9.64074 166.434C14.7587 159.105 21.2717 157.365 25.3087 148.051C15.4237 143.259 7.27669 134.599 12.6117 122.767C16.3767 114.417 32.3927 112.004 39.1147 106.601C44.0527 102.465 51.2557 93.9429 56.2517 88.9309C55.0577 86.9269 54.2747 85.5589 52.8317 83.6949C55.7887 80.5439 61.5917 73.9749 64.9237 71.7729L71.3977 72.5369Z" fill="#010000"/>
<path d="M209.623 165.335C210.949 167.272 212.203 169.148 212.998 171.38C215.184 177.518 217.965 199.084 216.817 204.966C215.702 210.676 211.174 213.619 208.09 218.103C206.808 219.967 207.115 222.387 206.032 224.174C203.017 229.153 191.413 240.152 186.272 243.436C178.144 248.63 169.512 254.494 160.462 257.822L167.448 252.932C151.66 256.204 136.195 268.947 120.513 269.733L116.662 267.788C109.381 264.171 91.9778 264.465 83.5448 263.432C74.2228 262.29 65.5588 259.473 57.1718 255.354C56.5758 254.187 56.0078 252.995 55.0328 252.092C51.8028 249.103 37.8758 244.627 32.8858 242.147C30.2838 240.854 28.3548 238.531 25.7988 237.223C22.5868 235.579 18.7938 235.256 15.6688 233.329C5.46879 227.042 3.3758 211.675 4.3588 200.888L3.5488 200.382C0.988799 192.52 3.3598 186.277 6.3038 179.018C6.9078 180.988 7.54184 182.787 8.50284 184.613C10.7778 185.135 15.1048 181.555 17.7958 181.125C19.4448 180.861 20.8658 181.126 22.2348 182.12C29.8758 187.672 23.0108 199.813 23.8838 207.422C24.1418 209.673 24.8468 211.99 26.7108 213.421C28.3078 214.646 30.9008 215.435 32.9158 215.15C41.0998 213.992 41.7418 200.248 46.0558 194.835C47.0948 193.531 48.1208 192.853 49.8088 192.652C50.8558 192.889 51.5518 193.167 52.3668 193.858C59.7198 200.086 55.7908 216.987 56.4658 225.622C56.8098 230.014 57.8018 236.104 61.4328 238.97C63.2538 240.406 65.6908 240.854 67.9518 240.467C78.4308 238.676 73.7898 213.575 79.0428 206.032C80.4978 203.943 82.4348 202.126 85.0008 201.715C90.9428 202.924 90.3078 215.18 95.1508 219.231C96.3138 220.204 97.9448 220.805 99.4678 220.569C106.014 219.555 104.499 208.416 108.068 204.869C109.105 203.838 109.361 203.91 110.722 203.98C112.342 204.929 113.452 206.123 114.518 207.672C120.844 216.871 112.926 232.789 111.607 242.417C111.111 246.033 111.09 250.153 113.518 253.14C115.148 255.146 117.808 256.287 120.345 256.536C123.58 256.854 127.625 255.751 130.087 253.586C137.03 247.48 132.89 235.347 131.778 227.711C130.967 222.151 130.316 216.343 130.872 210.727C131.309 206.311 132.57 200.839 136.27 198.007C138.483 196.312 141.273 195.994 143.967 196.398C146.245 196.739 148.315 197.665 149.681 199.581C153.556 205.016 150.401 214.516 149.621 220.542C149.088 224.665 149.559 230.078 152.352 233.387C154.127 235.489 156.875 236.359 159.544 236.539C162.706 236.752 165.983 236.41 168.378 234.129C175.929 226.939 167.595 208.468 168.066 198.41C168.239 194.708 168.671 191.474 171.621 188.951C172.711 188.019 174.662 187.054 176.15 187.386C181.242 188.523 177.316 202.279 180.798 207.284C181.977 208.978 183.977 209.981 185.979 210.317C189.128 210.845 193.37 210.262 195.943 208.254C203.911 202.036 195.101 187.45 196.09 179.266C197.205 170.04 203.458 174.239 208.11 170.504C209.122 168.967 209.126 167.582 209.252 165.783L209.623 165.335Z" fill="#F7F7F4"/>
<path d="M3.54883 200.382C4.43383 196.887 5.21882 193.553 6.94482 190.365C7.38082 191.012 6.97182 191.99 6.81982 192.742C6.26082 195.511 5.25683 198.213 4.35883 200.888L3.54883 200.382Z" fill="#110707"/>
<path d="M23.3618 224.734C25.7598 225.126 37.5218 232.345 39.1348 234.4C34.7538 233.609 26.0558 228.285 23.3618 224.734Z" fill="#110707"/>
<path d="M213.802 199.111L214.464 199.937C214.664 201.991 213.979 203.949 213.471 205.923L213.095 205.562C212.654 203.614 213.447 201.071 213.802 199.111Z" fill="#545356"/>
<path d="M205.168 158.65C206.781 160.829 208.232 163.008 209.623 165.335L209.252 165.783C207.615 163.56 206.103 161.081 203.8 159.509L205.168 158.65Z" fill="#BBB8B2"/>
<path d="M177.158 42.2728L177.602 42.7328C176.811 46.7658 176.925 50.3448 178.481 54.2258C180.71 59.7838 184.985 62.6248 190.298 64.7828C152.97 83.2758 115.969 102.489 78.8768 121.456C64.4328 128.842 43.6559 141.742 28.8259 146.117C25.5769 144.449 22.3138 144.035 19.2208 141.812C15.9008 139.425 13.7968 136.131 13.2018 132.062C12.6718 128.436 12.9878 124.947 15.3848 122.041C17.3988 119.599 20.3648 117.494 23.5908 117.209C26.6028 116.942 29.5248 118.246 31.7338 120.235C34.5378 122.759 36.5298 126.531 36.5378 130.354C36.5428 132.648 35.8149 134.859 34.1179 136.45C31.0919 139.288 27.4169 138.868 23.5999 138.716C22.1649 137.47 21.0358 136.27 20.5728 134.37C20.1008 132.426 19.9969 129.729 21.2919 128.063C22.0359 127.105 23.5158 126.307 24.7648 126.295C25.9518 126.283 26.8879 126.776 27.7739 127.517C29.0139 128.555 29.3608 129.544 29.4368 131.108C28.8988 132.031 29.0489 132.237 27.9689 132.545C27.3809 131.635 26.8238 130.567 25.9218 129.937C25.3398 129.53 25.4228 129.743 24.5638 129.976C23.6708 130.854 22.5968 132.037 22.3918 133.336C22.1868 134.635 22.5128 134.988 23.1788 136.024C24.3818 136.68 25.3089 136.859 26.6469 136.533C28.3839 136.111 30.0878 135.091 30.8788 133.426C31.4858 132.149 31.4709 130.732 31.0809 129.403C30.5209 127.497 29.1719 125.788 27.3989 124.874C26.0169 124.146 24.3968 124.015 22.9158 124.511C21.0048 125.144 19.4589 126.411 18.5609 128.223C17.5099 130.344 17.6158 132.904 18.3878 135.096C19.2688 137.599 21.0659 139.741 23.5399 140.775C26.6509 142.074 30.1059 141.35 33.0549 139.957C35.5199 138.793 37.4468 136.92 38.2698 134.281C39.2908 131.006 38.4878 127.268 36.9388 124.294C34.4128 119.442 30.6039 116.789 25.4849 115.231C76.6169 92.0938 126.259 65.8598 177.158 42.2728Z" fill="#B57049"/>
<path d="M162.836 58.7429L163.641 59.2969L163.39 60.2109C159.258 63.4129 153.328 65.4209 148.627 67.7449L117.567 83.2389C103.919 89.9319 90.3328 96.7489 76.8088 103.69C67.7178 108.34 58.6568 113.4 49.2998 117.484L48.4678 116.88C50.0058 113.644 153.754 63.1159 162.836 58.7429Z" fill="#010000"/>
<path d="M136.567 8.25488C137.437 9.34888 137.755 14.4689 139.695 17.2829C143.58 22.9149 150.073 25.0459 156.461 26.2109C148.262 35.3999 139.089 43.7329 130.433 52.4829C124.175 58.8109 118.088 66.8379 110.728 71.8419C105.477 75.4119 99.2418 78.0649 93.5388 80.8269C81.6498 86.5859 69.5728 91.9629 57.8358 98.0309C53.0468 100.491 48.2128 102.864 43.3368 105.149C48.7728 99.1949 54.5798 93.5509 60.1128 87.6829C77.0218 69.4559 94.1758 51.4569 111.57 33.6909C119.861 25.1749 128.543 17.0259 136.567 8.25488Z" fill="#B57049"/>
<path d="M192.922 134.751C196.512 139.016 199.639 146.936 202.266 152.004C199.014 154.181 195.256 155.84 191.854 157.823C188.358 153.84 185.326 145.403 182.758 140.335C186.439 138.979 189.726 136.998 192.922 134.751Z" fill="#B57049"/>
<path d="M191.187 118.544L191.257 118.579C192.441 120.503 191.987 130.429 192.068 133.305C189.079 135.168 185.856 136.706 182.724 138.316C182.478 131.986 182.113 125.662 181.628 119.347C185.047 119.74 187.887 119.544 191.187 118.544Z" fill="#B57049"/>
<path d="M65.1718 73.7549C66.7428 73.6699 68.0228 73.5909 69.5548 74.0639C67.9448 77.5569 61.5938 83.3769 58.7638 86.5299L57.8578 87.0349C56.8918 86.3899 56.5578 85.9769 56.0568 84.9309C56.4508 81.1269 62.4788 76.3329 65.1718 73.7549Z" fill="#CC7A3A"/>
<path d="M189.24 115.409L189.64 115.975C188.1 117.849 185.596 118.034 183.35 118.387C182.939 117.924 183.129 118.235 182.987 117.355C184.715 116.137 187.195 115.865 189.24 115.409Z" fill="#C57657"/>
<path d="M25.6818 131.089C25.9488 131.979 26.1858 132.573 26.7158 133.357C26.8658 133.579 27.0289 133.792 27.1859 134.01L26.5969 134.484C25.9699 134.48 25.6679 134.296 25.1079 134.037C24.8749 132.638 25.0878 132.402 25.6818 131.089Z" fill="#B57049"/>
<path d="M134.017 108.676C136.985 109.417 156.623 122.873 159.372 125.831C156.76 135.197 153.996 144.257 149.832 153.082C143.477 151.043 137.317 147.444 131.555 144.131C128.145 141.8 124.862 138.863 121.094 137.155C120.865 137.331 120.64 137.513 120.406 137.683C116.586 140.457 105.91 137.813 101.372 137.086C101.508 133.596 101.565 130.102 101.545 126.609C102.718 124.628 104.112 121.584 106.218 120.437C109.929 118.416 114.827 120.759 118.489 121.88C123.084 116.803 128.483 112.664 134.017 108.676Z" fill="#010000"/>
<path d="M134.089 111.373C140.591 113.815 151.93 121.511 157.216 126.116C155.805 133.606 153.118 143.872 148.911 150.215C147.5 150.577 146.851 150.053 145.522 149.52C136.884 145.19 129.164 140.516 121.541 134.607C121.592 130.47 121.112 126.524 120.345 122.465C124.519 118.152 129.077 114.659 134.089 111.373Z" fill="#B57049"/>
<path d="M107.279 121.599C110.23 121.725 113.846 121.696 116.434 123.224C118.146 124.235 119.41 125.767 119.865 127.727C120.295 129.583 119.658 134.378 118.469 135.835C117.968 136.448 117.034 136.286 116.301 136.355C111.97 136.322 107.679 136.35 103.381 135.727C103.355 129.675 103.625 126.509 107.279 121.599Z" fill="#B57049"/>
<path d="M93.5488 147.724C99.0398 147.139 105.479 151.902 110.189 154.536C112.517 160.524 114.623 166.597 116.986 172.58C110.284 176.165 103.381 179.358 96.3088 182.142C95.0668 182.68 93.8188 183.208 92.5668 183.723C90.0818 184.745 86.7038 186.426 84.0728 184.952C81.2298 183.361 78.6028 169.072 77.5808 165.426C82.1688 159.023 87.7298 153.019 93.5488 147.724Z" fill="#010000"/>
<path d="M94.3158 149.12C95.4638 149.124 96.5878 149.259 97.6418 149.741C99.5008 150.592 107.911 154.859 108.953 156.176C111.616 159.539 113.02 166.967 114.436 171.213C108.576 174.829 102.628 177.842 96.3288 180.59C92.8398 182.09 88.7468 182.917 85.0868 183.989C82.8638 178.15 81.3728 171.968 79.2758 166.058C83.7578 159.961 88.7918 154.291 94.3158 149.12Z" fill="#B57049"/>
<path d="M45.5397 153.796C46.1387 153.765 47.0677 153.654 47.6777 153.802C50.8677 154.578 53.4577 159.62 55.1307 162.186C55.1947 165.499 55.5137 168.999 55.2307 172.294C55.1037 173.781 54.6808 175.351 53.3598 176.222C50.7238 177.962 46.7897 176.179 44.0857 175.336C40.3517 174.21 35.9997 173.006 33.8427 169.44C32.8317 167.769 32.6007 165.859 33.1937 163.999C34.7857 159.009 41.1017 155.876 45.5397 153.796Z" fill="#010000"/>
<path d="M46.0988 155.649C46.3168 155.671 46.5389 155.669 46.7539 155.714C49.6709 156.325 51.9598 160.824 53.2748 163.183C53.2488 167.245 53.0978 171.305 52.8198 175.357C49.6228 174.966 46.7058 174.352 43.6188 173.435C41.0158 172.545 37.0868 171.458 35.6898 168.867C34.9828 167.554 34.8438 166.516 35.2148 165.073C36.3348 160.72 42.5298 157.722 46.0988 155.649Z" fill="#B57049"/>
<path d="M107.914 295.63L108.681 296.598C108.942 296.607 109.204 296.62 109.465 296.625C110.6 296.648 111.152 296.854 112.038 297.544C113.439 298.636 114.655 300.138 114.766 301.969C114.894 304.076 113.23 307.365 111.996 308.955C110.088 309.317 108.203 309.784 106.466 308.578C105.356 307.807 104.785 306.591 104.608 305.283C104.119 301.669 105.743 298.368 107.914 295.63Z" fill="#010000"/>
<path d="M108.89 298.396L110.329 299.149C110.91 299.93 111.239 300.466 111.446 301.441C111.884 303.503 110.983 305.585 109.905 307.269C109.003 306.891 108.507 306.542 107.748 305.949C106.585 303.18 107.871 300.98 108.89 298.396Z" fill="#F7F3EE"/>
<path d="M91.5128 294.379C94.2188 295.478 94.7238 296.872 95.9438 299.389C96.9888 298.198 98.1618 296.526 99.7518 296.155C100.601 295.957 100.669 296.274 101.314 296.741C101.783 298.131 101.953 299.246 101.856 300.72C101.694 303.191 101.28 307.17 99.3569 308.795L98.3008 308.706L97.7529 308.012L97.9448 306.647C98.0598 305.439 98.5878 303.254 97.8978 302.323C96.7568 303.044 96.3658 303.59 94.9678 303.467L93.6608 301.73L93.2618 301.722C92.8738 303.414 92.6709 305.071 92.4929 306.797C91.7019 307.748 91.8468 307.901 90.5608 308.157C88.7118 304.924 90.7958 297.899 91.5128 294.379Z" fill="#010000"/>
<path d="M56.2317 285.75C56.8277 285.991 57.3837 286.272 57.8737 286.703C59.8757 288.463 59.8307 292.218 60.1107 294.705C60.7987 292.627 61.2607 290.302 63.0177 288.861L63.5927 289.4C63.6737 293.742 62.4267 297.239 61.0827 301.314L58.6697 300.261C57.1217 298.358 57.1767 295.351 56.8977 292.966C56.2477 294.915 55.7387 297.545 54.0637 298.827L53.1917 298.331C51.9267 295.428 55.3117 288.845 56.2317 285.75Z" fill="#010000"/>
<path d="M68.0217 289.759C68.8917 290.028 69.5657 290.41 70.3427 290.879C71.7057 293.004 71.8347 295.624 72.2087 298.078C72.6327 295.976 72.8597 293.444 74.0677 291.648C75.1467 291.682 75.3287 291.749 76.2307 292.231C76.1987 296.313 74.6307 300.797 73.6667 304.772L71.4437 303.831C69.8077 301.895 69.6457 298.811 69.2297 296.359C68.6647 298.163 68.0657 301.492 66.5497 302.708L65.6167 302.36C64.2787 299.707 67.2387 292.694 68.0217 289.759Z" fill="#010000"/>
<path d="M124.421 295.373L125.709 295.952C126.915 298.195 127.298 302.66 127.173 305.222C127.095 306.802 126.878 307.717 125.696 308.778L124.514 308.498C122.452 306.902 121.525 304.634 120.363 302.361C120.393 305.134 120.834 308.013 118.947 310.197C118.825 310.102 118.695 310.018 118.582 309.913C117 308.43 117.084 302.52 117.205 300.445C117.289 298.994 117.496 297.881 118.595 296.904L119.822 297.17C121.892 298.838 122.955 301.376 124.195 303.682C124.062 300.866 123.833 298.154 124.421 295.373Z" fill="#010000"/>
<path d="M161.066 146.809C161.617 146.731 162.171 146.683 162.727 146.667C164.464 146.602 165.838 146.924 167.071 148.282C167.944 149.244 168.283 150.397 168.107 151.682C167.805 153.897 166.44 154.939 164.771 156.178C162.774 156.162 160.619 156.116 159.043 154.696C158.132 153.875 157.695 152.706 157.863 151.49C158.15 149.419 159.613 148.13 161.066 146.809Z" fill="#010000"/>
<path d="M161.725 148.152C162.977 148.099 163.795 148.185 164.984 148.586C165.805 149.495 166.365 149.889 166.232 151.228C166.087 152.688 164.998 153.653 163.999 154.584C163.151 154.432 162.215 154.31 161.405 154.014C160.173 153.564 159.878 153.004 159.425 151.848C159.645 150.233 160.686 149.315 161.725 148.152Z" fill="#CC7A3A"/>
<path d="M150.012 291.314C150.965 291.289 152.337 291.315 153.207 291.747C154.473 292.375 154.615 292.852 155.152 294.071C154.939 297.232 153.516 298.63 151.449 300.843C151.829 302.471 152.093 304.113 152.366 305.762C151.513 305.79 150.934 305.751 150.124 305.476C147.974 302.117 147.134 297.02 146.378 293.105C147.219 291.954 148.711 291.724 150.012 291.314Z" fill="#010000"/>
<path d="M82.7019 293.242C83.6519 293.378 84.2869 293.627 85.1389 294.065C86.4969 297.224 87.0879 301.92 86.1499 305.225C85.8279 306.364 86.1139 305.97 85.1059 306.533C83.6049 305.516 83.7079 304.591 83.2429 302.88C80.8459 303.338 80.5638 304.206 78.5648 305.355L77.7439 304.985C76.9959 301.975 81.1739 296.025 82.7019 293.242Z" fill="#010000"/>
<path d="M153.022 157.767C153.385 157.755 153.747 157.752 154.11 157.756C156.054 157.789 157.899 158.517 159.151 160.064C159.959 161.063 160.438 162.237 160.214 163.548C159.93 165.203 159.009 165.744 157.85 166.765C155.77 166.917 153.688 167.225 151.99 165.72C150.993 164.836 150.383 163.903 150.413 162.524C150.458 160.434 151.638 159.144 153.022 157.767Z" fill="#010000"/>
<path d="M154.129 159.423C155.587 158.814 157.264 159.48 157.907 160.923C158.55 162.366 157.924 164.058 156.497 164.735C155.543 165.188 154.419 165.088 153.56 164.475C152.7 163.861 152.241 162.831 152.359 161.781C152.477 160.732 153.155 159.829 154.129 159.423Z" fill="#CC7A3A"/>
<path d="M178.197 279.65C178.811 279.758 179.277 280.027 179.834 280.297C179.912 281.842 177.13 283.182 176.762 285.287L177.376 285.826C178.407 285.292 179.234 284.934 180.377 284.715L181.06 285.369L181.025 286.182C180.033 287.253 178.916 288.19 178.617 289.671C179.452 290.49 179.67 290.464 180.838 290.679C181.339 290.391 182.099 289.869 182.677 289.696C184.087 289.275 184.356 289.727 185.509 290.488C183.707 292.452 180.728 293.525 178.369 294.693C176.683 291.725 175.85 288.025 173.911 285.288C173.721 285.019 173.519 284.759 173.327 284.492C173.161 284.258 173.002 284.019 172.838 283.783L172.51 283.325C173.477 281.757 176.565 280.552 178.197 279.65Z" fill="#010000"/>
<path d="M76.1387 146.846C77.7337 146.292 79.5027 146.645 80.7627 147.768C82.0227 148.891 82.5767 150.609 82.2087 152.256C81.8417 153.904 80.6107 155.223 78.9927 155.704C76.5677 156.425 74.0117 155.078 73.2357 152.67C72.4597 150.262 73.7497 147.676 76.1387 146.846Z" fill="#010000"/>
<path d="M76.5508 148.488C77.9478 147.74 79.6858 148.247 80.4628 149.628C81.2388 151.008 80.7688 152.757 79.4048 153.562C78.4968 154.098 77.3688 154.101 76.4588 153.569C75.5478 153.038 74.9948 152.056 75.0138 151.001C75.0338 149.947 75.6218 148.985 76.5508 148.488Z" fill="#CC7A3A"/>
<path d="M165.615 106.511C166.954 106.888 168.315 107.458 169.292 108.487C170.448 109.705 170.999 111.218 170.818 112.892C170.572 115.169 169.418 116.373 167.743 117.804C166.439 117.463 165.104 117.034 164.152 116.011C162.878 114.639 162.407 113.154 162.578 111.319C162.775 109.204 164.1 107.834 165.615 106.511Z" fill="#010000"/>
<path d="M165.494 108.466C167.151 108.971 167.888 109.384 168.905 110.825C169.18 112.658 168.772 113.913 168.225 115.663C166.852 115.404 165.48 114.979 164.796 113.622C163.921 111.885 164.762 110.059 165.494 108.466Z" fill="#CC7A3A"/>
<path d="M139.557 294.279C141.06 294.184 142.034 294.146 143.461 294.77L143.469 295.485C141.508 296.887 139.485 297.24 137.183 297.769C141.141 298.876 143.37 299.303 145.71 302.871C145.805 303.669 146.032 304.205 145.649 304.956C144.654 306.908 142.645 307.38 140.701 307.916C140.518 307.839 140.33 307.769 140.151 307.683C138.721 306.996 137.822 306.304 137.305 304.797C138.832 304.222 140.796 304.524 142.435 304.583L142.947 304.019C142.063 301.47 139.003 301.124 137.154 299.462C136.234 298.636 136.328 298.162 136.389 297.063C137.286 295.625 138.086 295.094 139.557 294.279Z" fill="#010000"/>
<path d="M84.2537 126.178C86.6347 126.054 88.6807 127.85 88.8657 130.227C89.0497 132.604 87.3057 134.695 84.9337 134.939C83.3457 135.103 81.7937 134.392 80.8797 133.083C79.9657 131.774 79.8337 130.072 80.5347 128.638C81.2357 127.203 82.6587 126.262 84.2537 126.178Z" fill="#010000"/>
<path d="M84.2568 128.072C85.6838 127.902 86.9818 128.913 87.1668 130.339C87.3518 131.764 86.3548 133.073 84.9318 133.273C83.9968 133.404 83.0648 133.023 82.4888 132.276C81.9128 131.528 81.7838 130.529 82.1488 129.66C82.5148 128.79 83.3198 128.184 84.2568 128.072Z" fill="#CC7A3A"/>
<path d="M169.054 87.2108C171.342 86.8248 173.531 88.3008 174.03 90.5668C174.53 92.8338 173.164 95.0928 170.926 95.7048C169.375 96.1288 167.717 95.6638 166.613 94.4948C165.509 93.3268 165.139 91.6448 165.649 90.1208C166.16 88.5968 167.469 87.4778 169.054 87.2108Z" fill="#010000"/>
<path d="M168.96 89.127C169.86 88.821 170.856 89.0319 171.554 89.6769C172.253 90.3229 172.541 91.299 172.306 92.22C172.071 93.142 171.35 93.86 170.428 94.093C169.08 94.432 167.705 93.6479 167.311 92.3149C166.917 90.9819 167.644 89.575 168.96 89.127Z" fill="#C78B2E"/>
<path d="M182.781 160.637C185.01 160.499 186.966 162.108 187.262 164.321C187.558 166.535 186.093 168.601 183.906 169.053C182.346 169.377 180.736 168.801 179.734 167.563C178.732 166.324 178.505 164.63 179.147 163.172C179.788 161.713 181.191 160.735 182.781 160.637Z" fill="#010000"/>
<path d="M182.415 162.44C183.263 162.241 184.153 162.525 184.73 163.178C185.307 163.832 185.479 164.749 185.177 165.567C184.874 166.385 184.147 166.97 183.284 167.091C182.03 167.267 180.86 166.425 180.628 165.181C180.395 163.937 181.182 162.729 182.415 162.44Z" fill="#BF542C"/>
<path d="M167.725 284.585C168.79 284.654 169.446 284.78 170.403 285.258C170.576 286.975 167.372 288.642 167.073 291.235C167.438 292.378 167.626 293.145 168.438 294.065C170.107 295.953 171.917 293.782 173.832 294.097C174.509 294.208 174.899 295.33 175.235 295.879C173.828 296.759 172.308 297.692 170.585 297.676C168.965 297.661 167.359 296.884 166.247 295.724C164.789 294.201 164.177 292.042 164.359 289.966C164.58 287.44 165.831 286.118 167.725 284.585Z" fill="#010000"/>
<path d="M42.0768 281.174C43.4558 281.119 44.6238 281.018 45.7768 281.966C46.7878 282.797 46.9068 283.811 47.0568 285.026L46.4818 285.386C45.2878 284.704 44.3118 284.192 42.9438 283.903C42.4598 284.142 41.9908 284.344 41.5738 284.705C40.6798 285.479 39.8568 287.138 39.8718 288.367C39.8918 290.056 40.3108 290.213 41.4858 291.296C42.6208 292.021 43.1858 292.195 43.7568 293.44L43.1598 294.066C41.2928 294.158 39.7318 293.585 38.3458 292.317C37.3318 291.39 36.6878 290.191 36.7468 288.784C36.8748 285.675 39.8218 282.946 42.0768 281.174Z" fill="#010000"/>
<path d="M23.2658 168.652C25.3088 167.715 27.7258 168.587 28.7008 170.612C29.6748 172.637 28.8487 175.07 26.8427 176.082C25.5107 176.755 23.9197 176.655 22.6817 175.822C21.4447 174.99 20.7527 173.553 20.8737 172.066C20.9947 170.579 21.9098 169.274 23.2658 168.652Z" fill="#110707"/>
<path d="M24.4648 170.127C25.7668 169.862 27.0368 170.704 27.2988 172.007C27.5618 173.31 26.7168 174.578 25.4138 174.838C24.1138 175.098 22.8498 174.256 22.5878 172.956C22.3258 171.657 23.1658 170.391 24.4648 170.127Z" fill="#CC7A3A"/>
<path d="M151.193 94.5808C153.216 94.1418 155.233 95.3439 155.811 97.3319C156.388 99.3199 155.329 101.416 153.386 102.129C152.003 102.637 150.453 102.331 149.367 101.337C148.281 100.342 147.84 98.8249 148.224 97.4029C148.609 95.9819 149.753 94.8928 151.193 94.5808Z" fill="#010000"/>
<path d="M151.019 96.5729C151.71 96.1839 152.558 96.2009 153.232 96.6189C153.906 97.0369 154.299 97.7889 154.257 98.5809C154.216 99.3729 153.746 100.079 153.031 100.423C151.975 100.933 150.704 100.512 150.161 99.472C149.618 98.433 149.998 97.1499 151.019 96.5729Z" fill="#CC7A3A"/>
<path d="M51.0458 283.61L52.5088 284.618C53.6278 287.211 49.7578 294.458 48.8188 297.356L46.9477 296.468C46.0247 293.899 49.9938 286.436 51.0458 283.61Z" fill="#010000"/>
<path d="M157.948 288.53L159.252 289.149C160.724 291.97 164.495 298.204 163.65 301.179C163.509 301.132 163.365 301.093 163.227 301.038C161.375 300.304 160.191 297.635 159.366 295.89C158.228 293.482 157.04 291.102 157.948 288.53Z" fill="#010000"/>
<path d="M120.803 158.877C122.265 158.674 123.636 159.632 123.949 161.074C124.261 162.517 123.408 163.956 121.994 164.375C120.979 164.676 119.881 164.384 119.151 163.618C118.42 162.852 118.18 161.742 118.528 160.743C118.877 159.743 119.755 159.023 120.803 158.877Z" fill="#110707"/>
<path d="M71.5118 176.709C72.6858 176.087 72.7098 176.081 74.0148 176.324C75.0218 177.442 75.4768 178.568 75.3418 180.073C75.2348 181.259 74.9468 181.982 74.1638 182.9L73.4308 183.023C71.9908 181.994 71.2368 180.875 70.9258 179.148C70.8758 178.868 70.8348 178.586 70.7898 178.306L71.5118 176.709Z" fill="#010000"/>
<path d="M70.7898 178.306L71.5118 176.709L71.8658 177.021C72.3238 177.419 72.7948 177.792 73.2718 178.166L73.8408 179.802C72.9048 179.991 73.3078 180.087 72.5538 179.586C71.9428 179.181 71.3688 178.755 70.7898 178.306Z" fill="#BBB8B2"/>
<path d="M133.869 157.8C134.807 157.474 135.848 157.685 136.585 158.351C137.322 159.017 137.638 160.031 137.409 160.997C137.179 161.963 136.442 162.728 135.485 162.991C134.07 163.381 132.601 162.579 132.165 161.177C131.729 159.776 132.483 158.282 133.869 157.8Z" fill="#010000"/>
<path d="M132.83 147.493C133.739 147.988 134.282 148.649 134.85 149.495C135.613 150.63 136.401 152.085 136.13 153.479L135.373 153.369C134.694 153.374 133.825 153.443 133.141 153.337C131.874 153.141 131.692 152.978 130.921 152.048C130.884 150.304 131.967 148.939 132.83 147.493Z" fill="#010000"/>
<path d="M164.404 168.675C165.239 168.2 166.267 168.215 167.088 168.714C167.91 169.212 168.397 170.117 168.361 171.078C168.326 172.038 167.772 172.904 166.916 173.34C165.633 173.993 164.063 173.503 163.38 172.235C162.698 170.967 163.152 169.387 164.404 168.675Z" fill="#010000"/>
<path d="M139.357 165.037L140.941 165.252C141.999 166.132 141.974 166.136 142.213 167.495C141.755 169.135 141.057 170.126 140.02 171.463C138.683 170.661 137.799 170.03 137.338 168.509C137.458 166.895 138.319 166.161 139.357 165.037Z" fill="#010000"/>
<path d="M141.436 155.542C142.34 155.219 143.349 155.421 144.059 156.068C144.768 156.715 145.062 157.701 144.823 158.631C144.583 159.561 143.85 160.282 142.916 160.506C141.576 160.828 140.219 160.045 139.825 158.725C139.432 157.405 140.139 156.007 141.436 155.542Z" fill="#010000"/>
<path d="M135.158 103.094C135.93 102.525 136.953 102.43 137.816 102.847C138.679 103.264 139.241 104.125 139.275 105.083C139.309 106.041 138.809 106.939 137.978 107.416C136.79 108.097 135.276 107.733 134.528 106.586C133.779 105.439 134.056 103.907 135.158 103.094Z" fill="#010000"/>
<path d="M168.39 135.772C169.632 135.722 170.727 136.579 170.978 137.796C171.229 139.013 170.562 140.233 169.402 140.679C168.462 141.04 167.398 140.812 166.689 140.097C165.98 139.383 165.76 138.317 166.128 137.38C166.497 136.443 167.384 135.812 168.39 135.772Z" fill="#010000"/>
<path d="M169.183 124.526C170.522 124.336 171.765 125.258 171.97 126.595C172.175 127.932 171.265 129.184 169.931 129.403C169.055 129.547 168.169 129.209 167.611 128.519C167.054 127.828 166.91 126.891 167.235 126.065C167.561 125.239 168.305 124.651 169.183 124.526Z" fill="#110707"/>
<path d="M56.4948 146.097C57.2918 145.73 58.2258 145.823 58.9338 146.34C59.6428 146.858 60.0158 147.719 59.9078 148.59C59.7998 149.461 59.2288 150.205 58.4148 150.535C57.1978 151.027 55.8098 150.459 55.2888 149.254C54.7668 148.048 55.3028 146.647 56.4948 146.097Z" fill="#110707"/>
<path d="M103.21 140.445C104.042 140.212 104.934 140.445 105.546 141.054C106.158 141.662 106.395 142.554 106.166 143.386C105.937 144.218 105.278 144.863 104.441 145.074C103.17 145.394 101.878 144.634 101.541 143.367C101.204 142.1 101.948 140.798 103.21 140.445Z" fill="#010000"/>
<path d="M133.105 180.521C133.44 180.591 133.822 180.652 134.123 180.823C135.19 181.429 135.369 181.966 135.782 183.037C135.665 184.677 135.208 185.426 134.301 186.719C132.784 186.202 132.462 185.961 131.749 184.57C131.755 182.977 132.399 181.895 133.105 180.521Z" fill="#010000"/>
<path d="M72.0818 191.99C73.1828 191.341 74.6018 191.714 75.2438 192.819C75.8848 193.925 75.5028 195.341 74.3928 195.975C73.2938 196.603 71.8938 196.225 71.2588 195.13C70.6238 194.035 70.9908 192.633 72.0818 191.99Z" fill="#110707"/>
<path d="M44.7517 75.64C45.8927 75.316 47.0907 75.9239 47.5037 77.0369C47.9157 78.1489 47.4047 79.3909 46.3287 79.8909C45.5527 80.2509 44.6407 80.145 43.9677 79.617C43.2947 79.088 42.9747 78.227 43.1397 77.388C43.3057 76.548 43.9277 75.873 44.7517 75.64Z" fill="#110707"/>
<path d="M142.483 176.919C143.527 176.239 144.925 176.533 145.607 177.576C146.289 178.62 145.997 180.018 144.955 180.702C143.911 181.388 142.508 181.095 141.824 180.049C141.14 179.003 141.435 177.601 142.483 176.919Z" fill="#010000"/>
<path d="M133.587 171.399C134.881 171.955 135.629 172.322 136.628 173.362C136.787 175.004 136.47 175.237 135.657 176.618C135.47 176.66 135.287 176.733 135.095 176.743C133.868 176.809 133.707 176.448 132.965 175.6C132.702 173.926 133.007 172.972 133.587 171.399Z" fill="#110707"/>
<path d="M118.793 175.618C119.735 174.913 121.065 175.078 121.808 175.99C122.55 176.903 122.44 178.239 121.559 179.018C120.956 179.551 120.109 179.711 119.353 179.434C118.597 179.158 118.053 178.489 117.936 177.693C117.819 176.896 118.148 176.1 118.793 175.618Z" fill="#010000"/>
<path d="M90.5959 139.968C91.2309 139.443 92.1088 139.324 92.8618 139.66C93.6138 139.996 94.1118 140.729 94.1458 141.552C94.1798 142.376 93.7459 143.147 93.0239 143.545C92.0419 144.085 90.8099 143.789 90.1809 142.862C89.5509 141.935 89.7309 140.681 90.5959 139.968Z" fill="#010000"/>
<path d="M89.3537 187.577C90.4747 187.286 91.6197 187.96 91.9087 189.081C92.1987 190.202 91.5237 191.346 90.4027 191.635C89.2827 191.923 88.1407 191.249 87.8517 190.13C87.5627 189.01 88.2347 187.868 89.3537 187.577Z" fill="#110707"/>
<path d="M113.709 148.976C114.666 148.392 115.913 148.663 116.54 149.592C117.167 150.521 116.954 151.778 116.055 152.448C115.436 152.91 114.613 152.993 113.913 152.666C113.213 152.339 112.75 151.653 112.708 150.882C112.665 150.11 113.05 149.378 113.709 148.976Z" fill="#010000"/>
<path d="M68.3798 164.01C69.3558 163.611 70.4738 164.048 70.9218 165.003C71.3708 165.957 70.9928 167.096 70.0618 167.593C69.4158 167.938 68.6328 167.899 68.0238 167.491C67.4158 167.083 67.0828 166.372 67.1568 165.644C67.2308 164.915 67.7018 164.287 68.3798 164.01Z" fill="#010000"/>
<path d="M44.6728 62.1929C45.2438 61.8269 45.9688 61.8029 46.5618 62.1299C47.1558 62.4569 47.5238 63.0819 47.5198 63.7599C47.5158 64.4379 47.1418 65.0589 46.5448 65.3799C45.6698 65.8489 44.5798 65.5429 44.0758 64.6869C43.5728 63.8299 43.8368 62.7289 44.6728 62.1929Z" fill="#010000"/>
<path d="M100.965 183.51C101.49 183.686 101.907 183.932 102.387 184.206L102.3 185.711L102.901 185.896L104.004 184.893L104.715 185.316L104.127 184.998C105.051 185.787 104.809 185.308 104.984 186.365L103.367 187.164C102.022 187.103 101.757 187.132 100.661 186.382C100.306 184.968 100.403 184.872 100.965 183.51Z" fill="#010000"/>
<path d="M106.432 179.908C107.295 180.19 107.986 180.592 108.777 181.031C109.275 182.448 109.087 182.612 108.611 184.063C107.755 184.196 107.445 184.157 106.628 183.978C105.941 182.478 106.261 181.528 106.432 179.908Z" fill="#010000"/>
</svg>
