<svg width="218" height="270" viewBox="0 0 218 270" fill="none" xmlns="http://www.w3.org/2000/svg">
<path d="M160.819 84.8918C166.736 91.8388 174.317 101.806 180.14 109.185C180.695 109.889 180.649 111.505 180.634 112.393L182.325 112.9C186.594 115.101 205.254 138.705 207.801 143.546C205.375 145.945 203.19 147.809 200.147 149.446C210.302 160.995 214.291 166.855 216.047 182.684C217.259 193.611 218.262 199.896 213.866 210.749L213.23 211.051L212.932 209.57C211.002 211.019 210.386 216.093 208.098 219.171C200.081 229.952 189.543 238.714 178.41 246.141C174.616 248.672 165.508 253.998 161.515 255.799C153.145 259.574 140.828 258.982 133.981 265.553C132.861 266.314 131.763 267.077 130.587 267.751C120.836 272.308 117.344 266.499 110.127 265.681C94.2041 263.878 80.7411 261.923 65.2291 257.264C64.5491 257.62 64.2951 257.733 63.6041 258.022C61.7651 257.649 37.7121 245.147 36.3911 243.928L37.4031 243.397C33.4391 238.16 13.1962 234.731 8.65483 227.477C5.91923 223.107 5.00713 220.72 2.91823 216.059L2.91793 216.636C-1.36027 209.418 -0.686475 186.558 3.32813 178.606C5.91003 173.492 6.58433 170.655 7.74483 165.198C8.63883 160.996 22.2231 150.562 25.7481 148.91C25.2191 151.121 20.4871 154.694 18.7401 156.053C21.8931 158.881 29.3021 154.106 34.5431 154.589C32.1981 155.587 29.9681 156.51 28.6751 158.735C28.2551 161.133 28.7451 161.993 30.1181 163.907C30.7221 164.732 31.3341 165.552 31.9541 166.365L31.0731 167.249C31.4171 169.165 33.4331 171.083 34.9561 172.214C45.3151 179.906 61.5781 182.371 74.0611 180.143C80.5271 178.988 86.4631 175.007 93.0681 175.159C102.434 175.375 111.213 179.203 120.132 181.658C136.023 186.032 155.875 186.555 168.865 174.867L168.425 172.489L171.066 169.966L172.204 170.299C176.446 164.631 180.238 158.585 184.094 152.641C180.807 152.446 177.73 152.066 174.449 151.523C154.989 148.303 142.291 126.091 146.628 107.445C148.848 97.8979 152.179 90.4088 160.819 84.8918Z" fill="#F7F7F4"/>
<path d="M184.094 152.641C186.855 152.321 189.62 152.027 192.387 151.76L193.033 152.085C196.355 153.718 198.578 153.292 201.343 156.424C200.432 159.242 205.619 161.367 204.98 164.964C203.894 170.052 198.273 167.499 195.18 169.747C185.613 176.702 203.922 206.93 185.102 205.631C173.189 204.81 180.716 188.788 176.973 183.502C175.224 182.398 174.248 182.186 172.199 182.641C169.678 183.219 167.515 184.826 166.232 187.072C162.922 192.746 164.749 205.814 167.219 212.726C170.829 222.828 166.988 236.778 153.691 229.587C144.571 224.655 153.38 208.856 151.982 201.086C151.028 194.206 143.839 190.407 137.425 192.458C112.916 200.295 144.238 245.531 123.026 251.053C104.257 255.939 113.24 231.333 115.627 222.432C117.275 216.288 117.155 198.733 107.071 199.03C102.194 199.339 103.088 213.148 97.0461 215.237C87.3751 214.411 93.4911 197.013 84.3301 197.541C67.9791 198.482 76.1291 224.47 69.2951 233.363C67.1791 236.117 62.5661 235.057 60.8151 232.422C52.0461 220.881 63.5241 200.598 52.9721 189.624C44.8571 181.184 38.8841 202.849 36.0311 207.053C34.1791 209.781 29.9641 211.893 27.6371 209.259C19.9191 200.523 32.4911 185.73 23.8361 177.666C21.0891 174.9 13.7246 178.494 11.8529 178.161C-0.342614 175.984 15.2837 158.911 18.7401 156.053C21.8931 158.881 29.3021 154.106 34.5431 154.589C32.1981 155.587 29.9681 156.51 28.6751 158.735C28.2551 161.133 28.7451 161.993 30.1181 163.907C30.7221 164.732 31.3341 165.552 31.9541 166.365L31.0731 167.249C31.4171 169.165 33.4331 171.083 34.9561 172.214C45.3151 179.906 61.5781 182.371 74.0611 180.143C80.5271 178.988 86.4631 175.007 93.0681 175.159C102.434 175.375 111.213 179.203 120.132 181.658C136.023 186.032 155.875 186.555 168.865 174.867L168.425 172.489L171.066 169.966L172.204 170.299C176.446 164.631 180.238 158.585 184.094 152.641Z" fill="#FED740"/>
<path d="M171.066 169.966L172.204 170.299C171.177 171.93 170.133 173.414 168.865 174.867L168.425 172.489L171.066 169.966Z" fill="#F7F3EE"/>
<path d="M80.1142 182.084C82.4712 181.127 85.1582 182.268 86.1062 184.629C87.0532 186.99 85.9012 189.672 83.5362 190.609C81.1852 191.541 78.5232 190.397 77.5812 188.05C76.6392 185.703 77.7712 183.036 80.1142 182.084Z" fill="#110707"/>
<path d="M80.2991 183.525C81.3321 183.011 82.5671 183.122 83.4931 183.812C84.4181 184.502 84.8761 185.655 84.6781 186.792C84.4791 187.929 83.6571 188.858 82.5531 189.194C81.0301 189.657 79.4061 188.876 78.8181 187.396C78.2291 185.917 78.8731 184.234 80.2991 183.525Z" fill="#BF542C"/>
<path d="M103.245 186.355C104.64 185.714 106.273 185.878 107.512 186.783C108.752 187.688 109.405 189.194 109.219 190.717C109.033 192.241 108.037 193.545 106.615 194.125C104.483 194.996 102.045 194.003 101.128 191.889C100.211 189.776 101.152 187.317 103.245 186.355Z" fill="#010000"/>
<path d="M104.404 187.757C105.755 187.324 107.205 188.049 107.669 189.39C108.134 190.73 107.443 192.196 106.113 192.692C105.225 193.023 104.228 192.847 103.507 192.232C102.786 191.617 102.454 190.66 102.64 189.731C102.827 188.802 103.502 188.046 104.404 187.757Z" fill="#CC7A3A"/>
<path d="M160.819 84.8918C166.736 91.8388 174.317 101.806 180.14 109.185C180.695 109.889 180.649 111.505 180.634 112.393L182.325 112.9C186.594 115.101 205.254 138.705 207.801 143.546C205.375 145.945 203.19 147.809 200.147 149.446C210.302 160.995 214.291 166.855 216.047 182.684C217.259 193.611 218.262 199.896 213.866 210.749L213.23 211.051L212.932 209.57C211.002 211.019 210.386 216.093 208.098 219.171C200.081 229.952 189.543 238.714 178.41 246.141C174.616 248.672 165.508 253.998 161.515 255.799C153.145 259.574 140.828 258.982 133.981 265.553C133.7 264.459 133.303 263.676 132.725 262.707C141.503 258.498 156.373 251.281 165.477 249.42C163.997 250.476 162.511 251.521 161.018 252.557L161.281 252.774C167.182 250.79 171.022 247.798 176.242 244.531C179.687 242.375 183.399 240.565 186.71 238.207C191.896 234.515 200.833 224.869 204.202 219.469L204.085 219.297C207.068 213.755 212.014 208.622 213.95 202.651C215.934 196.534 212.806 176.703 210.821 170.026C209.914 166.978 208.388 164.181 206.93 161.37C205.989 159.749 204.792 158.265 203.654 156.768L202.791 157.257L201.343 156.424C198.578 153.292 196.355 153.718 193.033 152.085L192.387 151.76C189.62 152.027 186.855 152.321 184.094 152.641C180.807 152.446 177.73 152.066 174.449 151.523C154.989 148.303 142.291 126.091 146.628 107.445C148.848 97.8979 152.179 90.4088 160.819 84.8918Z" fill="#010000"/>
<path d="M180.634 112.393L182.325 112.9C182.487 121.222 182.98 128.777 182.428 137.107C173.85 135.288 168.775 132.838 162.564 126.735C168.618 121.225 175.501 117.064 180.634 112.393Z" fill="#FED740"/>
<path d="M160.141 87.5469C161.23 87.8989 161.706 88.2989 162.587 89.0009C162.727 89.4129 162.999 89.8008 163.007 90.2358C163.025 91.1298 155.083 100.201 153.936 103.403C151.941 108.971 152.95 114.988 155.449 120.224C161.144 132.154 175.91 140.501 189.127 139.015C191.707 138.725 198.39 135.167 200.311 136.125C201.904 136.919 202.692 138.734 203.255 140.317C196.379 143.88 189.105 145.28 181.398 144.297C171.608 143.048 162.732 138.282 156.701 130.398C151.32 123.366 148.491 113.741 149.798 104.921C150.85 97.8188 154.443 91.8239 160.141 87.5469Z" fill="#FED740"/>
<path d="M155.431 104.47C162.235 105.804 172.282 107.148 178.341 110.322L178.436 111.019C176.234 113.74 172.894 115.902 170.125 118.058C166.961 120.363 163.992 122.949 160.988 125.457C160.536 124.887 160.101 124.304 159.683 123.709C155.644 117.902 154.25 111.414 155.431 104.47Z" fill="#FED740"/>
<path d="M150.814 129.844L153.551 129.226C163.35 143.777 183.476 151.218 200.651 143.333C202.46 142.503 203.329 140.63 205.41 142.441C204.388 150.13 184.208 151.023 178.012 150.051C163.975 147.85 156.885 142.485 150.814 129.844Z" fill="url(#paint0_linear_0_1)"/>
<path d="M164.609 93.0359C168.273 95.2089 173.429 103.189 176.244 106.719L169.424 105.543C165.084 104.359 160.656 103.521 156.252 102.618C158.571 98.8879 161.327 95.9299 164.609 93.0359Z" fill="#FED740"/>
<path d="M149.625 120.2C150.447 123.356 151.951 126.385 153.551 129.226L150.814 129.844C149.522 126.051 149.072 124.581 148.415 120.655L149.625 120.2Z" fill="#188B73"/>
<path d="M148.415 120.655C148.073 118.278 147.494 115.545 148.052 113.259C149.129 116.366 148.896 117.386 149.625 120.2L148.415 120.655Z" fill="#7A7B72"/>
<path d="M130.587 267.751C120.836 272.308 117.344 266.499 110.127 265.681C94.2041 263.878 80.7411 261.923 65.2291 257.264C64.5491 257.62 64.2951 257.733 63.6041 258.022C61.7651 257.649 37.7121 245.147 36.3911 243.928L37.4031 243.397C33.4391 238.16 13.1962 234.731 8.65483 227.477C5.91923 223.107 5.00713 220.72 2.91823 216.059L2.91793 216.636C-1.36027 209.418 -0.686475 186.558 3.32813 178.606C5.91003 173.492 6.58433 170.655 7.74483 165.198C8.63883 160.996 22.2231 150.562 25.7481 148.91C25.2191 151.121 20.4871 154.694 18.7401 156.053C15.2837 158.911 -0.342572 175.984 11.8529 178.161C13.7246 178.494 21.0891 174.9 23.8361 177.666C32.4911 185.73 19.9191 200.523 27.6371 209.259C29.9641 211.893 34.1791 209.781 36.0311 207.053C38.8841 202.849 44.8571 181.184 52.9721 189.624C63.5241 200.598 52.0461 220.881 60.8151 232.422C62.5661 235.057 67.1791 236.117 69.2951 233.363C76.1291 224.47 67.9791 198.482 84.3301 197.541C93.4911 197.013 87.3751 214.411 97.0461 215.237C103.088 213.148 102.194 199.339 107.071 199.03C117.155 198.733 117.275 216.288 115.627 222.432C113.24 231.333 104.257 255.939 123.026 251.053C144.238 245.531 112.916 200.295 137.425 192.458C143.839 190.407 151.028 194.206 151.982 201.086C153.38 208.856 144.571 224.655 153.691 229.587C166.988 236.778 170.829 222.828 167.219 212.726C164.749 205.814 162.922 192.746 166.232 187.072C167.515 184.826 169.678 183.219 172.199 182.641C174.248 182.186 175.224 182.398 176.973 183.502C180.716 188.788 173.189 204.81 185.102 205.631C203.922 206.93 185.613 176.702 195.18 169.747C198.273 167.499 203.894 170.052 204.98 164.964C205.619 161.367 200.432 159.242 201.343 156.424L202.791 157.257L203.654 156.768C204.792 158.265 205.989 159.749 206.93 161.37L206.397 162.2C206.673 163.94 206.909 165.9 205.751 167.414C202.24 172.006 193.357 167.951 193.511 178.524C193.619 185.904 199.648 198.145 193.424 204.473C191.415 206.516 187.734 207.744 184.91 207.685C182.923 207.643 181.201 206.883 179.84 205.439C174.253 199.516 178.616 186.239 173.678 183.514C171.623 183.878 169.946 185.576 168.748 187.214C165.718 191.359 165.915 198.105 166.837 202.924C168.297 210.562 173.002 221.355 168.421 228.536C166.986 230.786 164.508 232.527 161.891 233.077C158.631 233.762 155.175 232.946 152.481 231.025C149.779 229.099 148.28 226.471 147.796 223.207C146.551 214.815 154.922 201.589 146.694 195.486C144.557 193.901 142.098 193.432 139.497 193.894C136.446 194.437 133.599 196.18 131.834 198.741C122.574 212.171 143.66 248.101 123.605 252.821C120.341 253.589 116.575 253.344 113.676 251.543C111.329 250.085 110.079 247.93 109.613 245.241C108.171 236.914 113.139 228.739 114.621 220.796C115.684 215.103 115.213 205.403 110.21 201.668C109.263 200.961 108.885 200.993 107.757 200.985C102.739 204.082 104.204 218.572 95.7711 216.41C93.3601 215.793 91.3551 213.63 89.8691 211.757C89.2631 208.373 89.2561 202.234 86.4511 200.02C85.2081 199.04 83.3051 199.006 81.8191 199.359C79.8671 199.824 78.4011 201.233 77.4101 202.924C72.9571 210.524 76.5091 234.03 67.7801 236.788C65.6961 237.446 63.4091 236.738 61.6481 235.579C58.1961 233.305 56.4371 229.775 55.7711 225.782C54.2661 216.765 60.0261 195.869 51.0061 190.362C50.0421 189.773 49.1071 189.423 47.9831 189.786C39.5251 192.515 41.7991 215.663 28.5151 211.494C26.8201 210.962 25.5301 209.925 24.7071 208.342C20.1041 199.489 30.0731 181.979 21.4621 177.9C17.3161 175.936 10.169 183.784 7.31623 178.29C6.78803 177.273 6.51063 175.896 6.18473 174.789C2.88443 182.398 0.834224 187.831 3.23492 196.112L4.06563 196.909C3.32043 207.124 4.16463 218.062 11.1669 226.28C14.669 230.39 19.3061 230.687 23.7871 232.951C27.0661 234.607 30.0261 236.903 33.2911 238.606C38.2431 241.188 53.7651 246.375 56.2431 250.416C58.8171 254.611 71.3191 257.643 76.0891 258.715C81.6311 259.961 86.9511 259.852 92.5751 260.13C98.7351 260.434 106.9 261.551 112.827 263.33C115.09 264.009 117.303 265.367 119.435 266.397C122.883 266.014 126.044 265.527 129.297 264.236L132.725 262.707C133.303 263.676 133.7 264.459 133.981 265.553C132.861 266.314 131.763 267.077 130.587 267.751Z" fill="#010000"/>
<path d="M129.297 264.236L132.725 262.707C133.303 263.676 133.7 264.459 133.981 265.553C132.861 266.314 131.763 267.077 130.587 267.751C129.64 266.653 129.535 265.61 129.297 264.236Z" fill="#110707"/>
<path d="M3.23492 196.112L3.48293 195.499C5.19113 191.2 5.73423 187.572 8.55133 183.642C7.03523 188.051 5.42693 192.45 4.06563 196.909L3.23492 196.112Z" fill="#110707"/>
<path d="M22.4601 221.703C22.7201 221.706 22.9801 221.699 23.2401 221.712C25.8011 221.843 37.9951 229.334 39.5951 231.259C35.1301 230.632 26.3751 224.446 22.4601 221.703Z" fill="#110707"/>
<path d="M53.7251 96.0859C58.2141 102.727 67.5971 108.178 70.5981 112.465C73.4441 116.531 63.1091 132.532 59.5461 136.612L61.2491 137.276L61.7121 137.245L62.2201 137.082C64.1491 134.983 83.3891 122.359 86.3351 120.888C88.8561 124.028 91.1511 126.699 92.9081 130.338C105.257 155.919 84.4261 181.953 56.9491 178.536C47.3281 177.34 38.8601 173.014 31.9541 166.365C31.3341 165.552 30.7221 164.732 30.1181 163.907C28.7451 161.993 28.2551 161.133 28.6751 158.735C29.9681 156.51 32.1981 155.587 34.5431 154.589C41.5971 150.249 49.5491 145.528 56.1951 140.72C41.8431 144.918 28.0911 148.057 14.5417 138.964C12.2194 137.406 6.4292 132.237 9.7161 129.323C16.9391 122.92 25.1211 117.433 32.6931 111.415C33.2331 111.397 33.7721 111.38 34.3121 111.362L35.4531 111.141C37.8721 106.641 49.1171 98.5449 53.7251 96.0859Z" fill="#010000"/>
<path d="M59.0171 140.356L60.7661 138.783C64.9421 145.964 68.4041 153.724 72.7941 160.54C63.5281 163.458 58.3581 163.445 49.1841 159.745C51.3491 155.692 57.8001 144.239 59.0171 140.356Z" fill="#FED740"/>
<path d="M62.2202 137.082C66.2382 140.086 82.8502 141.017 88.7932 141.604C86.0192 150.679 81.9102 154.399 74.3382 159.383C69.3702 152.082 66.5652 143.734 61.7122 137.245L62.2202 137.082Z" fill="#FED740"/>
<path d="M34.3121 111.362L35.4531 111.141C38.0691 117.449 40.3541 121.76 40.6031 128.685C33.0781 130.692 31.2241 130.993 23.6421 129.114C25.7141 125.918 33.4821 114.375 34.3121 111.362Z" fill="#FED740"/>
<path d="M59.5461 136.612L61.2491 137.276L60.7661 138.783L59.017 140.356C57.557 140.384 57.426 140.462 56.045 140.075C56.353 138.792 58.2821 137.636 59.5461 136.612Z" fill="#FEE376"/>
<path d="M94.6701 147.587C94.7351 148.387 94.7971 149.154 94.7331 149.956C94.1711 156.971 90.4311 163.312 85.3081 167.984C78.1971 174.469 68.7661 177.345 59.2261 176.85C48.4541 176.29 39.2361 171.484 32.0661 163.582C31.3661 162.574 30.7491 161.764 30.5351 160.521C30.3731 159.579 30.4231 159.869 31.0261 159.016C33.7301 158.503 43.3291 165.759 46.5711 167.329C54.4041 171.124 65.2231 171.683 73.4211 168.839C83.6451 165.294 90.0521 156.956 94.6701 147.587Z" fill="#FED740"/>
<path d="M58.6121 104.454C61.0921 106.263 63.3731 108.119 65.6111 110.221C65.2261 112.488 64.5881 114.79 63.6841 116.91C60.3081 124.824 53.3431 131.907 45.2481 134.959C35.5641 138.61 25.7701 136.413 16.7291 132.193C15.082 131.336 13.519 130.316 11.937 129.345C13.1952 128.387 14.5326 127.502 15.8247 126.589C20.7861 130.14 25.4761 132.558 31.8041 132.435C39.0491 132.294 45.8641 128.913 50.7721 123.668C55.4421 118.675 58.8401 111.373 58.6121 104.454Z" fill="#FED740"/>
<path d="M84.4301 123.461C85.0421 123.564 85.6621 123.643 86.2161 123.948C91.7181 126.987 93.6301 137.089 94.6621 142.706C93.1421 146.959 91.3541 150.855 88.7001 154.534C83.5271 161.707 76.3881 167.127 67.4611 168.437C56.1991 170.091 45.7131 165.857 36.9141 159.122C35.9171 158.314 35.2011 157.812 34.6461 156.623C35.3411 154.994 38.0591 153.876 39.5941 152.955C42.4231 157.297 45.8411 160.498 50.7011 162.507C57.6651 165.382 65.4841 165.388 72.4521 162.523C79.3391 159.671 86.1931 153.613 88.9421 146.629C92.5781 137.388 88.0501 131.423 84.4301 123.461Z" fill="#FED740"/>
<path d="M67.5611 111.465C68.4411 112.235 68.6501 112.492 68.8841 113.654C69.8481 118.429 64.9091 126.563 62.1871 130.417C57.3501 137.266 50.8201 141.31 42.5501 142.69C31.0311 144.614 21.9471 141.775 12.5489 135.159C11.765 134.08 11.0716 133.277 10.9548 131.896C11.9003 131.581 22.0221 136.699 24.4241 137.378C33.1631 139.847 42.7821 139.194 50.7101 134.592C59.9031 129.257 64.7991 121.542 67.5611 111.465Z" fill="url(#paint1_linear_0_1)"/>
<path d="M51.7341 108.464C53.0931 108.29 54.3821 107.919 55.6141 108.677C56.0691 109.631 56.1791 110.314 55.9601 111.367C54.6351 117.751 47.6981 124.205 42.6001 127.801C42.4871 127.103 42.3551 126.411 42.2381 125.714C41.5841 121.848 37.3521 113.646 38.7021 110.347C41.3191 107.874 48.1551 108.617 51.7341 108.464Z" fill="#FED740"/>
<path d="M82.0341 126.122L83.0481 126.253C86.6591 129.431 87.6461 134.937 88.6661 139.431C83.5701 139.144 78.5431 138.507 73.4841 137.86C70.4761 137.498 67.5271 136.982 64.5511 136.417C70.1861 132.725 76.2781 129.649 82.0341 126.122Z" fill="#FED740"/>
<path d="M55.1961 143.741C55.2121 144.235 55.2491 144.415 55.0861 144.949C54.3901 147.224 48.7931 157.367 47.3351 158.388L44.9571 156.509C43.6391 155.311 42.5721 153.925 41.4541 152.543L55.1961 143.741Z" fill="#FED740"/>
<path d="M52.6621 98.5708C54.1721 99.6648 55.7821 101.56 56.5601 103.254C56.5141 104.127 56.6861 104.373 56.0181 105.047C54.1541 106.93 50.4761 106.577 47.9891 106.673C46.4821 106.779 45.0591 106.928 43.5601 106.637L43.2761 106.047C44.8301 103.488 50.1791 100.497 52.6621 98.5708Z" fill="#FED740"/>
<path d="M28.7971 116.785C27.9991 119.969 24.2851 125.885 21.5101 127.784L19.8911 127.056L18.4831 125.557C19.3481 122.608 26.2671 118.658 28.7971 116.785Z" fill="#FED740"/>
<path d="M80.4291 31.7278C82.4361 31.5818 84.3582 31.5139 86.1182 32.6529C89.3962 34.7739 89.4221 41.1388 90.1771 44.7528C92.2041 46.4808 94.3591 48.2198 96.1131 50.2338C102.446 57.5028 104.886 67.8878 104.055 77.3548C102.939 90.0808 97.1272 96.7768 87.6892 104.597C88.5592 106.608 89.6431 108.842 89.1001 111.092C88.7941 112.358 87.9321 113.371 86.8081 113.998C83.9171 115.609 80.4072 114.236 77.5752 113.199C74.8992 110.547 74.7801 108.225 74.2931 104.652C66.2571 101.414 59.5232 97.6298 54.7432 90.1628C49.8562 82.5288 48.8151 73.1818 50.8621 64.4558C52.4771 57.5708 56.5911 49.1778 62.8611 45.4998C65.9361 43.6968 69.5171 42.5608 72.2491 40.2098C75.3931 37.5038 76.6851 34.0518 80.4291 31.7278Z" fill="#010000"/>
<path d="M76.3131 39.0698C79.7221 40.2968 83.6921 40.2058 87.2681 40.2898L87.6891 42.0088C90.0201 51.7738 101.903 51.6748 102.31 72.9108C102.485 82.0228 99.4321 91.7288 92.9191 98.2978C88.8561 102.395 84.2911 104.248 78.5711 104.31C72.7741 102.496 66.2341 99.1908 61.7171 95.0738C55.6361 89.5918 52.0781 81.8498 51.8801 73.6638C51.5611 64.3298 55.6191 52.6568 63.7031 47.3428C68.2641 44.3448 72.4181 43.1768 76.3131 39.0698Z" fill="#FED740"/>
<path d="M61.2321 52.9128L61.7811 53.1769C62.1151 54.0789 57.0651 66.6859 58.6111 72.3069C60.3881 78.7659 64.3981 83.6109 70.1931 86.8459L72.0011 87.8649L72.7341 88.2759L73.1411 89.8909C70.4651 89.4779 67.9301 88.0838 65.7491 86.5298C60.6471 82.8948 57.4801 76.8568 56.6771 70.7148C55.8261 64.2028 57.3081 58.1478 61.2321 52.9128Z" fill="#010000"/>
<path d="M83.4651 105.952C84.4761 105.702 84.9641 105.744 85.9771 105.856C87.0181 106.713 87.6331 107.131 87.8431 108.58C88.0111 109.735 87.4201 111.088 86.6361 111.91C85.5701 113.028 83.9851 112.976 82.5581 113.044C82.4841 113.021 82.4111 112.996 82.3361 112.973C80.2711 112.338 78.8941 111.739 77.5081 110.018C76.5781 108.863 76.3531 108.465 76.5151 106.989C77.9771 105.598 81.4151 106.069 83.4651 105.952Z" fill="#138573"/>
<path d="M80.8411 33.6749C82.2421 33.6719 83.7801 33.5139 85.0151 34.2969C86.3901 35.1689 86.9911 36.2009 87.2511 37.7479C86.3891 38.7309 86.2181 38.5869 84.8971 38.7399C83.4641 38.6169 81.9411 38.5609 80.5291 38.2919C79.2571 38.0499 78.6431 37.8889 77.8801 36.8389C78.2871 35.2779 79.6121 34.5829 80.8411 33.6749Z" fill="#188B73"/>
<path d="M133.823 127.026C140.589 132.872 145.053 141.095 151.048 147.662C156.575 153.718 163.435 158.415 168.745 164.734C170.18 166.443 171.258 167.63 171.066 169.966L168.425 172.489C167.076 173.498 165.65 174.402 164.161 175.19C152.909 181.243 137.953 184.381 125.513 180.557C117.7 178.155 110.598 173.059 106.872 165.639C102.068 156.07 103.806 142.495 106.93 132.677C114.778 132.738 121.491 135.056 128.732 137.893C130.165 134.13 131.985 130.6 133.823 127.026Z" fill="#010000"/>
<path d="M108.12 134.237L116.173 135.359C115.661 137.975 115.111 140.605 114.75 143.247C113.882 149.593 115.748 154.839 119.613 159.879C124.872 166.739 132.42 171.63 141.055 172.761C150.616 174.014 158.798 170.059 166.24 164.423C166.882 165.164 167.57 165.911 168.131 166.716C168.9 167.822 169.083 168.32 168.812 169.623C166.929 171.181 165.055 172.645 162.917 173.846C154.208 178.734 142.853 179.867 133.307 177.015C123.914 174.208 114.408 167.518 109.811 158.704C105.695 150.811 105.534 142.604 108.12 134.237Z" fill="#FED740"/>
<path d="M142.687 146.415L144.36 146.165L144.806 146.643C142.247 152.518 134.757 161.192 131.162 167.914C129.035 166.41 127.028 164.762 125.002 163.127C121.131 159.231 118.548 155.109 116.754 149.939C125.306 148.427 134.07 147.551 142.687 146.415Z" fill="#FED740"/>
<path d="M147.474 145.041C149.587 147.972 149.426 165.582 149.951 170.712C145.611 171.08 141.634 170.923 137.368 170.006C135.854 169.535 134.688 169.406 133.575 168.255C135.162 161.222 144.523 152.72 147.474 145.041Z" fill="#FED740"/>
<path d="M118.151 135.416C125.232 138.463 132.562 140.739 139.556 144.058L139.571 144.574L136.294 145.131C129.767 146.416 122.947 147.218 116.329 147.934C116.844 143.751 117.526 139.583 118.151 135.416Z" fill="#FED740"/>
<path d="M151.117 150.05C156.026 153.878 160.398 158.524 164.801 162.91C163.377 164.018 161.862 165.011 160.377 166.036C157.63 167.622 154.807 169.077 152.005 170.564C151.395 163.747 150.757 156.898 151.117 150.05Z" fill="#FED740"/>
<path d="M128.131 179.649C120.062 176.739 112.087 172.652 108.148 164.518C107.1 162.355 105.842 158.625 106.633 156.253C112.968 167.834 117.44 171.903 129.277 177.661L128.131 179.649Z" fill="#FED740"/>
<path d="M134.251 130.946C134.421 131.024 134.612 131.069 134.762 131.182C136.943 132.817 143.806 140.57 144.023 143.318L143.129 143.254C139.046 141.211 135.172 139.578 130.776 138.317L134.251 130.946Z" fill="#188B73"/>
<path d="M129.277 177.661C132.882 178.871 136.516 179.78 140.214 180.66C136.114 180.641 132.172 180.36 128.131 179.649L129.277 177.661Z" fill="#FEC443"/>
<path d="M108.823 87.3467C106.52 84.0647 108.306 77.6988 108.895 73.6848C109.507 69.5098 109.853 60.9378 111.469 57.3438C113.557 56.4488 115.233 56.5808 117.254 57.4708C129.131 62.7028 136.429 71.8498 139.383 84.3898C141.646 93.0368 142.894 99.6687 139.115 108.194C135.579 116.172 129.293 122.743 121.113 126.042C113.047 129.296 104.991 129.362 97.4672 124.88C98.0282 120.355 100.304 113.203 101.777 108.792C103.391 103.955 105.085 90.9878 108.911 88.2528L108.823 87.3467Z" fill="#010000"/>
<path d="M111.316 67.0737C115.573 68.6267 119.867 70.5307 123.704 72.9557C121.084 75.3927 109.627 85.4607 108.911 88.2527L108.823 87.3467C108.899 83.4037 110.549 71.3467 111.316 67.0737Z" fill="#FED740"/>
<path d="M112.638 58.0168C119.055 60.2008 124.996 62.6729 129.633 67.8569C135.637 74.5709 139.111 86.8319 138.295 95.7389C137.62 103.115 133.712 110.105 127.974 114.751C121.099 120.316 113.637 121.399 105.07 120.582C102.964 120.1 101.261 119.834 99.8411 118.042C103.144 115.256 113.916 117.416 120.714 113.413C126.768 109.848 131.219 103.329 132.992 96.5779C134.633 90.3289 134.111 83.8218 130.746 78.2228C126.696 71.4828 119.066 67.3119 111.571 65.5679C111.867 63.0449 112.272 60.5308 112.638 58.0168Z" fill="#FED740"/>
<path d="M108.364 90.9839C112.009 93.9919 118.552 106.964 120.677 111.539C118.673 112.479 116.55 113.195 114.477 113.969C110.302 114.443 106.234 114.3 102.046 114.086C104.461 106.487 106.098 98.6359 108.364 90.9839Z" fill="#FED740"/>
<path d="M124.857 74.5159C125.977 74.9319 126.96 76.0139 127.708 76.9219C131.794 81.8809 132.355 88.1569 131.786 94.2979C128.744 92.9859 125.701 91.9189 122.543 90.9219C118.647 89.7109 114.722 88.8389 110.734 87.9879C115.37 83.4219 120.078 78.9309 124.857 74.5159Z" fill="#FED740"/>
<path d="M110.595 90.0979C117.566 90.7139 124.746 93.496 131.326 95.799C130.346 99.108 128.859 101.885 127.021 104.776C125.677 106.692 124.023 108.382 122.452 110.113C119.164 103.08 114.789 96.6119 110.595 90.0979Z" fill="#FED740"/>
<path d="M138.727 103.109C138.816 104.467 138.48 105.524 138.009 106.778C135.053 114.658 129.384 120.35 121.743 123.759C114.763 126.872 107.445 127.526 100.255 124.782C99.5401 124.127 99.4 123.725 99.17 122.792C100.624 120.767 107.454 122.953 109.942 122.964C112.727 122.975 115.724 122.498 118.393 121.727C128.454 118.818 133.899 111.944 138.727 103.109Z" fill="url(#paint2_linear_0_1)"/>
<path d="M145.934 0.520996C148.09 0.277996 150.273 0.166 152.437 0C149.537 12.374 143.966 28.66 134.871 37.882C127.603 45.251 118.116 48.668 107.911 48.8C106.488 48.767 104.801 48.905 103.488 48.311C102.743 47.973 102.679 47.343 102.533 46.581C101.084 39.007 107.979 21.568 112.877 15.37C121.236 4.79099 133.182 1.976 145.934 0.520996Z" fill="#010000"/>
<path d="M122.196 9.125C122.225 9.153 122.258 9.17798 122.283 9.20898C123.528 10.774 122.601 22.739 122.312 25.299C119.471 29.036 116.015 32.345 112.758 35.719C112.146 31.9 111.545 27.471 112.002 23.618C112.802 16.885 117.243 13.095 122.196 9.125Z" fill="#188B73"/>
<path d="M125.031 26.911C130.094 26.216 135.115 26.894 140.156 27.428C139.019 29.95 137.469 32.766 135.528 34.761C134.045 36.285 133.111 36.667 130.989 36.743C125.717 36.442 120.423 36.378 115.144 36.236C118.198 32.996 121.321 29.395 125.031 26.911Z" fill="#188B73"/>
<path d="M134.193 4.24573L135.3 4.19873C136.588 6.39273 134.706 12.2457 134.174 14.8737C131.267 17.4547 128.429 20.1127 125.663 22.8447L125.258 23.3068L124.694 23.0507C123.954 17.9887 124.622 12.4858 125.053 7.41077C128.021 6.12777 131.111 5.21273 134.193 4.24573Z" fill="#188B73"/>
<path d="M121.181 38.4828C124.669 38.2968 128.032 38.4008 131.516 38.6468C126.053 42.5008 121.016 45.0848 114.486 46.6078L113.544 46.7168C111.334 46.9678 108.409 47.6558 106.579 46.1988C106.941 43.9058 111.491 40.3368 113.176 38.6778L121.181 38.4828Z" fill="#138573"/>
<path d="M136.469 16.0928C139.066 17.0778 141.669 17.1587 144.407 17.3087C143.402 20.0117 142.193 22.6687 141.082 25.3307C139.417 25.1907 137.75 24.9537 136.091 24.7617C132.74 24.6137 129.411 24.5967 126.058 24.6337C129.487 21.7367 132.958 18.8898 136.469 16.0928Z" fill="#188B73"/>
<path d="M109.659 24.0339C110.831 28.0959 110.38 33.2239 110.89 37.5239C109.331 39.5109 107.459 41.271 105.695 43.075L105.167 43.14C105.098 43.016 105.011 42.902 104.962 42.77C103.762 39.54 107.841 27.2239 109.659 24.0339Z" fill="#188B73"/>
<path d="M147.938 5.73096L148.349 6.44391C147.729 9.62391 146.403 12.6009 145.222 15.6069L139.404 15.1389L138.673 14.7159L138.807 13.7369C141.325 10.4309 144.548 8.06796 147.938 5.73096Z" fill="#188B73"/>
<path d="M178.932 33.9118C181.209 33.6058 183.635 33.7568 185.934 33.7488C185.835 37.5078 185.225 41.3778 184.412 45.0468C182.238 54.8488 177.675 64.3178 168.925 69.8288C161.338 74.6078 153.304 75.3688 144.663 73.3598C140.924 72.1898 137.859 70.7198 134.71 68.3868C136.106 62.3188 137.672 57.1228 141.642 52.2148C150.772 40.9278 164.856 35.3698 178.932 33.9118Z" fill="#010000"/>
<path d="M153.918 58.7657C161.094 58.4837 167.085 60.3958 173.472 63.4788C170.628 66.1618 167.656 67.8387 164.169 69.5057C159.676 70.8767 150.495 64.9418 146.091 63.1558C148.66 61.5238 151.137 60.0207 153.918 58.7657Z" fill="#188B73"/>
<path d="M168.805 49.2119C172.509 49.3469 176.672 51.1509 180.45 51.7899C179.042 55.2749 177.166 58.2539 174.943 61.2639L170.49 59.4839C165.844 57.8829 161.845 57.1959 156.931 56.9519C161.009 54.5949 164.888 51.8279 168.805 49.2119Z" fill="#188B73"/>
<path d="M153.975 44.7458C155.093 47.3048 153.053 53.5819 152.356 56.3749C148.057 59.3859 143.821 62.5579 138.789 64.2089C138.731 64.1619 138.652 64.1319 138.613 64.0679C138.055 63.1589 138.175 63.3549 138.374 62.2859C139.752 54.8799 148.124 48.6758 153.975 44.7458Z" fill="#188B73"/>
<path d="M166.375 38.1819L167.142 38.5479C167.765 41.4399 167.387 44.7709 167.313 47.7349C163.742 50.1029 159.843 52.1249 156.129 54.2689L155.757 54.3959C154.768 52.1369 156.311 46.4239 156.438 43.5929L156.462 42.9459C159.701 41.0949 162.896 39.5339 166.375 38.1819Z" fill="#188B73"/>
<path d="M141.913 65.8018C142.729 65.6808 142.668 65.6688 143.604 65.6388C147.049 65.5298 155.509 68.5899 157.955 71.1189L157.616 71.7179L155.014 72.1828C147.959 72.4878 142.485 70.7558 136.303 67.5388C138.102 66.8058 140.047 66.3418 141.913 65.8018Z" fill="#188B73"/>
<path d="M183.285 37.6538C183.681 41.8858 182.129 46.3118 180.966 50.3218C178.616 49.5868 176.318 48.6778 174.011 47.8198C173.193 47.4768 172.938 47.3898 172.35 46.6898C174.893 43.1018 180.162 41.1378 183.285 37.6538Z" fill="#188B73"/>
<path d="M174.81 36.3917C177.087 36.0587 179.519 36.0698 181.823 35.9268C179.066 38.5808 176.259 40.8628 173.098 43.0198C171.765 43.9188 170.516 45.1498 169.277 46.1868L169.336 37.3997C171.123 36.9377 172.991 36.6987 174.81 36.3917Z" fill="#188B73"/>
<defs>
<linearGradient id="paint0_linear_0_1" x1="168.496" y1="148.037" x2="182.535" y2="129.754" gradientUnits="userSpaceOnUse">
<stop stop-color="#309665"/>
<stop offset="1" stop-color="#0B7E68"/>
</linearGradient>
<linearGradient id="paint1_linear_0_1" x1="39.1733" y1="141.963" x2="39.8979" y2="112.037" gradientUnits="userSpaceOnUse">
<stop stop-color="#16996C"/>
<stop offset="1" stop-color="#09828D"/>
</linearGradient>
<linearGradient id="paint2_linear_0_1" x1="118.631" y1="106.37" x2="119.767" y2="124.788" gradientUnits="userSpaceOnUse">
<stop stop-color="#D2A50E"/>
<stop offset="1" stop-color="#FFD32D"/>
</linearGradient>
</defs>
</svg>
