<svg width="219" height="282" viewBox="0 0 219 282" fill="none" xmlns="http://www.w3.org/2000/svg">
<path d="M198.393 156.139C204.252 165.127 213.102 173.825 215.327 184.317C218.271 198.202 219.849 208.991 214.897 222.56L213.945 222.759L214.696 223.058L214.121 223.599L213.658 221.765C211.506 224.924 211.063 228.608 207.282 233.489C195.417 248.72 178.274 259.867 160.911 267.788C156.044 270.008 144.27 271.456 141.06 273.265C130.402 279.273 129.086 283.77 115.709 279.098C110.806 277.386 103.218 276.297 97.9412 275.857C88.9312 275.192 80.0442 272.816 71.1792 271.112C67.8252 270.467 64.4272 269.781 61.1272 268.937C53.2182 264.486 44.8182 260.774 37.0842 256.07C35.8782 255.336 36.4662 254.007 36.2012 253.851C24.3472 246.874 8.46324 246.199 4.45024 230.369C4.02224 228.682 0.812238 225.439 0.640238 223.565C-0.570762 210.313 -0.522765 197.667 4.92423 185.282C6.97023 180.628 7.43223 174.752 11.6692 171.035C15.0382 168.551 22.2922 162.36 26.1282 161.502L25.9162 161.989L25.8902 161.561L25.4042 161.774L25.6482 162.328C23.3962 164.802 21.8682 165.842 19.1882 167.834C23.3202 168.334 27.1452 167.229 31.2192 167.988C35.7602 168.833 40.1922 170.38 44.6282 171.658C56.3732 175.56 62.6182 176.472 75.1462 176.361C78.5992 179.941 80.5052 183.555 84.1532 186.913C84.1682 183.691 79.8082 181.139 78.1562 176.235C79.1732 174.496 78.5142 175.262 80.4812 174.11L81.1402 174.819C91.8272 170.22 98.8212 165.93 110.81 170.835C114.166 172.2 117.251 174.154 119.919 176.604C136.241 182.056 138.997 184.076 157.315 183.462C160.739 183.839 173.285 179.457 176.53 177.672C183.588 174.194 189.129 170.139 195.982 166.553C197.866 165.567 200.846 167.438 202.587 168.395L203.218 168.588L204.114 168.049C201.059 164.263 198.191 161.234 198.393 156.139Z" fill="#010000"/>
<path d="M208.321 173.895C213.138 183.318 213.657 188.691 214.468 199.246C214.795 203.499 216.452 210.274 214.905 214.772C212.194 220.44 206.204 229.138 203.2 234.252C201.485 237.172 189.484 249.294 187.079 250.702C181.48 253.979 167.603 263.196 161.833 264.681C162.869 263.652 164.875 262.592 166.208 261.808C153.049 263.994 131.148 278.362 121.254 277.946C117.709 277.798 114.693 275.058 110.999 274.628C105.844 274.027 100.66 272.912 95.5113 272.477C85.4063 271.623 79.3284 272.026 69.0604 269.01C61.7524 266.864 57.0384 261.789 50.5644 258.384C44.5934 255.243 14.5893 241.908 11.4443 237.942C5.13833 229.988 2.92633 220.097 3.83233 210.137C2.84333 209.504 3.18333 209.725 2.47533 208.651C1.20833 198.213 2.15635 195.53 6.43035 185.95C7.10535 188.001 7.23334 189.146 8.77434 190.521C14.5253 192.969 24.3654 183.582 25.5204 196.17C26.1004 202.496 19.7584 217.76 26.9894 222.108C39.0994 229.39 41.0363 209.779 45.3273 203.524C50.8173 196.654 55.0594 205.162 56.1724 210.45C58.4624 221.333 49.2243 248.453 68.0533 248.544C77.8723 248.591 73.2543 219.265 79.1293 213.283C85.3043 206.998 87.5763 209.917 90.0533 217.287C92.0973 226.098 96.8863 233.505 104.647 223.138C104.993 219.236 104.863 212.666 109.828 211.798C110.914 212.054 111.911 212.301 112.666 213.268C121.771 225.571 111.266 241.059 111.014 254.495C110.249 264.82 123.757 269.634 130.472 260.916C140.839 247.46 116.516 209.417 141.972 204.98C151.063 203.396 152.046 216.018 150.301 221.926C149.609 224.267 149.222 229.304 149.008 231.93C147.577 242.897 160.754 250.424 168.284 242.559C174.282 236.293 168.554 221.57 167.478 213.988C166.697 208.485 167.437 196.763 175.439 196.275C181.825 199.175 172.561 217.522 184.845 219.413C206.524 222.397 194.793 198.476 195.07 187.819C195.314 178.458 208.53 186.314 207.751 175.144L208.321 173.895Z" fill="#F7F7F4"/>
<path d="M2.47534 208.651C4.21234 205.171 4.91435 201.777 6.76935 198.151C7.11835 199.886 4.31834 207.437 3.83234 210.137C2.84334 209.504 3.18334 209.725 2.47534 208.651Z" fill="#110707"/>
<path d="M22.6393 233.461C23.1553 233.464 23.6413 233.446 24.1543 233.55C27.3213 234.189 37.1833 240.008 38.9233 242.583C36.6513 242.152 24.7853 235.187 22.6393 233.461Z" fill="#110707"/>
<path d="M212.954 206.905L213.431 207.48C213.568 210.428 213.036 213.259 212.568 216.157L212.064 215.605C211.941 212.69 212.529 209.782 212.954 206.905Z" fill="#545356"/>
<path d="M176.53 177.672C183.588 174.194 189.129 170.139 195.982 166.553C197.866 165.567 200.846 167.438 202.587 168.395C202.546 170.568 206.52 173.079 206.459 177C205.974 181.735 198.381 179.243 195.076 183.143C187.702 191.845 203.046 208.396 193.546 216.302C188.536 220.472 179.824 218.143 179.509 210.325C179.331 205.888 180.641 198.74 177.824 194.985C173.845 192.881 169.972 196.225 167.855 199.525C159.525 212.51 173.545 226.883 168.062 239.651C164.757 247.345 152.086 243.569 151.241 235.921C150.962 233.314 150.181 227.273 151.627 225.256C153.817 226.345 155.079 227.314 157.437 226.38C158.811 224.661 159.035 221.33 157.651 219.58C155.865 219.364 155.285 220.707 153.439 220.106C151.949 217.653 154.247 200.678 140.434 203.307C121.923 206.83 129.675 234.881 131.306 247.682C132.749 259.005 127.426 267.225 115.489 261.827C109.285 258.914 115.621 241.106 117.066 234.134C117.798 230.538 118.05 226.861 117.814 223.199C117.485 218.566 115.131 209.194 108.079 210.176C100.383 212.246 106.917 225.175 98.4533 226.107C88.9423 227.154 92.9313 199.105 79.6203 210.184C72.9733 215.716 74.2563 228.948 73.1723 236.907C72.3923 242.634 70.0453 249.85 62.6923 245.438C57.9643 241.575 57.5333 236.315 57.7303 230.159C57.9983 221.767 61.6553 198.393 47.0873 199.724C39.8013 200.389 39.6093 228.432 28.0813 220.47C19.7223 214.696 33.4183 195.141 23.7693 188.492C18.5153 184.789 13.5353 192.138 8.93628 188.266C4.23428 181.325 14.9743 171.251 19.1883 167.834C23.3203 168.334 27.1453 167.229 31.2193 167.988C35.7603 168.833 40.1923 170.38 44.6283 171.658C56.3733 175.56 62.6183 176.472 75.1463 176.361C78.5993 179.941 80.5053 183.555 84.1533 186.913C84.1683 183.691 79.8083 181.139 78.1563 176.235C79.1733 174.496 78.5143 175.262 80.4813 174.11L81.1403 174.819C91.8273 170.22 98.8213 165.93 110.81 170.835C114.166 172.2 117.251 174.154 119.919 176.604C136.241 182.056 138.997 184.076 157.315 183.462C160.739 183.839 173.285 179.457 176.53 177.672Z" fill="#FED740"/>
<path d="M81.1403 174.819C91.8273 170.22 98.8212 165.93 110.81 170.835C114.166 172.2 117.251 174.154 119.919 176.604C123.837 181.253 125.391 185.438 127.762 191.079C117.327 194.654 106.229 195.723 95.7703 191.803C91.5993 193.862 86.9703 189.593 84.1533 186.913C84.1683 183.691 79.8082 181.139 78.1562 176.235C79.1732 174.496 78.5143 175.262 80.4813 174.11L81.1403 174.819Z" fill="#010000"/>
<path d="M84.1533 186.913C84.1683 183.691 79.8082 181.139 78.1562 176.235C79.1732 174.496 78.5143 175.262 80.4813 174.11L81.1403 174.819L79.6682 175.905C78.8282 181.726 91.0933 189.825 95.7703 191.803C91.5993 193.862 86.9703 189.593 84.1533 186.913Z" fill="#F7F3EE"/>
<path d="M93.7754 179.094C96.6014 179.687 99.2054 180.509 101.917 181.49C103.919 184.704 105.049 188.381 106.253 191.942C103.379 191.548 100.887 191.005 98.1544 190.012C96.0044 186.786 94.0664 183.002 93.7754 179.094Z" fill="#188B73"/>
<path d="M82.2993 177.518C85.2673 177.721 88.3183 178.365 91.2853 178.733C91.3383 179.01 91.3953 179.287 91.4443 179.565C92.0493 182.974 93.4593 185.959 94.8313 189.12C94.3573 188.958 93.8793 188.803 93.4173 188.61C88.5703 186.577 84.2233 182.422 82.2993 177.518Z" fill="#188B73"/>
<path d="M104.734 182.226C107.816 182.761 110.791 183.912 113.55 185.358C114.552 187.335 115.312 189.302 116.025 191.399C113.47 191.565 110.906 191.86 108.356 192.094C107.392 188.667 106.151 185.49 104.734 182.226Z" fill="#188B73"/>
<path d="M111.654 174.344C112.28 174.455 112.852 174.55 113.427 174.839C115.256 175.759 117.468 177.448 118.152 179.453C118.439 180.293 118.169 180.393 117.803 181.116C116.461 181.731 115.625 181.918 114.149 181.997C111.08 181.306 108.115 180.451 105.117 179.499C107.138 177.53 109.357 175.968 111.654 174.344Z" fill="#188B73"/>
<path d="M103.225 171.525C104.667 171.513 106.304 171.397 107.721 171.682C108.692 171.877 108.86 171.861 109.395 172.723C108.004 174.984 105.037 176.471 103.06 178.356L102.576 178.823C100.466 178.779 96.9703 177.219 94.8623 176.571C97.4593 174.574 100.357 173.089 103.225 171.525Z" fill="#138573"/>
<path d="M116.192 185.381C118.46 186.4 121.156 187.072 123.168 188.54C124.172 189.273 123.869 188.853 124.087 190.106L118.097 191.198L116.192 185.381Z" fill="#188B73"/>
<path d="M95.0923 171.132L95.7424 171.24L95.8474 172.023C95.2624 173.058 94.8024 173.935 93.8054 174.626C91.6154 176.144 90.1414 175.798 87.6454 175.383C86.8674 175.443 87.2703 175.512 86.4653 175.047C88.1903 173.261 92.7213 172.065 95.0923 171.132Z" fill="#138573"/>
<path d="M120.4 181.518C121.63 182.175 122.517 183.817 123.026 185.049L122.51 185.15C121.071 184.701 119.729 184.281 118.397 183.555L118.496 182.749L120.4 181.518Z" fill="#188B73"/>
<path d="M160.254 184.519C161.115 184.523 161.983 184.515 162.838 184.635C164.347 184.845 166.4 185.969 167.19 187.325C167.857 188.47 168.091 189.42 167.707 190.724C167.275 192.194 165.793 192.935 164.569 193.648C164.427 193.667 164.286 193.691 164.144 193.704C162.057 193.893 160.078 193.745 158.473 192.232C157.567 191.378 157.05 190.216 157.141 188.961C157.299 186.795 158.666 185.73 160.254 184.519Z" fill="#010000"/>
<path d="M160.141 186.529C161.33 186.489 162.564 186.458 163.721 186.784C165.05 187.159 165.644 187.892 166.33 189.003C166.117 190.746 165.84 190.959 164.765 192.268C163.688 192.325 162.285 192.375 161.24 192.087C159.974 191.739 159.505 191.116 158.863 190.05C158.827 188.358 159.209 187.853 160.141 186.529Z" fill="#BF542C"/>
<path d="M63.7223 181.619C65.3823 180.953 67.2723 181.232 68.6703 182.347C70.0683 183.463 70.7583 185.243 70.4783 187.01C70.1973 188.776 68.9894 190.256 67.3144 190.883C64.7654 191.838 61.9234 190.565 60.9394 188.027C59.9554 185.489 61.1963 182.632 63.7223 181.619Z" fill="#010000"/>
<path d="M64.6942 183.154C65.7822 182.799 66.9782 183.06 67.8202 183.836C68.6622 184.612 69.0192 185.782 68.7542 186.896C68.4882 188.01 67.6422 188.894 66.5412 189.207C64.8822 189.679 63.1512 188.737 62.6472 187.087C62.1442 185.438 63.0542 183.689 64.6942 183.154Z" fill="#BF542C"/>
<path d="M31.6123 180.66C33.3593 180.178 35.2303 180.7 36.4763 182.018C37.7213 183.336 38.1383 185.233 37.5583 186.951C36.9793 188.669 35.4983 189.927 33.7093 190.221C31.1383 190.644 28.6853 188.981 28.1263 186.435C27.5683 183.89 29.0993 181.352 31.6123 180.66Z" fill="#010000"/>
<path d="M31.3272 182.764C32.8052 181.859 34.7363 182.307 35.6663 183.77C36.5953 185.233 36.1802 187.172 34.7332 188.126C33.7752 188.757 32.5502 188.823 31.5302 188.298C30.5102 187.772 29.8532 186.737 29.8102 185.591C29.7682 184.444 30.3482 183.363 31.3272 182.764Z" fill="#BF542C"/>
<path d="M65.9752 228.096C67.4932 227.768 69.0703 228.29 70.0923 229.459C71.1143 230.628 71.4213 232.26 70.8933 233.721C70.3653 235.182 69.0853 236.24 67.5513 236.485C65.2673 236.849 63.1093 235.33 62.6823 233.057C62.2553 230.785 63.7152 228.586 65.9752 228.096Z" fill="#010000"/>
<path d="M66.9864 229.845C67.4044 229.97 67.9894 230.119 68.3494 230.359C69.4474 231.091 69.5703 231.594 69.7283 232.781C68.8733 234.401 68.3783 234.552 66.8403 235.46C66.4423 235.257 65.9424 235.016 65.5834 234.764C64.4104 233.937 64.2663 233.687 63.9543 232.363C64.6433 230.949 65.6634 230.541 66.9864 229.845Z" fill="#BF542C"/>
<path d="M119.265 195.22C120.578 194.515 122.169 194.573 123.428 195.37C124.687 196.167 125.419 197.58 125.344 199.068C125.269 200.556 124.398 201.889 123.066 202.555C121.046 203.565 118.589 202.766 117.55 200.761C116.511 198.755 117.275 196.287 119.265 195.22Z" fill="#110707"/>
<path d="M120.471 196.27C121.882 195.881 123.345 196.689 123.768 198.09C124.191 199.491 123.42 200.974 122.03 201.432C121.099 201.738 120.076 201.516 119.356 200.851C118.637 200.187 118.334 199.184 118.566 198.233C118.797 197.281 119.526 196.529 120.471 196.27Z" fill="#CA644F"/>
<path d="M204.114 168.049C205.8 170.167 206.923 171.533 208.321 173.895L207.751 175.144C206.421 172.25 205.389 170.854 203.218 168.588L204.114 168.049Z" fill="#BBB8B2"/>
<path d="M61.2153 79.4318C86.1173 78.3848 107.117 97.7988 108.025 122.707C108.933 147.615 89.4023 168.506 64.4903 169.275C39.7733 170.038 19.0813 150.694 18.1813 125.982C17.2803 101.27 36.5083 80.4708 61.2153 79.4318Z" fill="#010000"/>
<path d="M61.4172 80.5298C83.6832 78.7688 103.176 95.3578 104.998 117.619C106.821 139.881 90.2852 159.419 68.0292 161.303C45.6862 163.194 26.0552 146.58 24.2262 124.232C22.3962 101.883 39.0642 82.2978 61.4172 80.5298Z" fill="#FED740"/>
<path d="M58.9354 88.1267C70.9994 86.2667 83.1324 91.0287 90.7104 100.599C98.2874 110.169 100.14 123.072 95.5634 134.387C90.9864 145.703 80.6844 153.689 68.5844 155.299C50.1434 157.754 33.1644 144.902 30.5194 126.488C27.8744 108.073 40.5494 90.9627 58.9354 88.1267Z" fill="#010000"/>
<path d="M47.2463 94.8748L48.0934 95.0508C52.5964 100.083 55.8154 110.728 59.5884 114.913C61.8144 117.382 65.8294 117.028 67.7944 120.359C67.6904 121.191 67.8013 121.471 67.1813 122.126C66.0933 123.276 64.7523 123.578 63.2303 123.651C61.5413 123.733 60.1494 123.46 58.9164 122.283L59.1133 121.493L61.3884 120.926C61.1164 120.59 60.9434 120.139 60.5724 119.917C58.5994 118.733 35.6224 115.021 31.6934 114.169C35.2054 105.556 39.6903 100.222 47.2463 94.8748Z" fill="#FED740"/>
<path d="M82.0343 95.4016C88.9993 100.811 93.1003 105.85 96.3773 114.053C90.9873 115.683 85.4033 116.54 79.8703 117.537C76.3253 118.194 72.7903 118.907 69.1993 119.26C68.6773 118.931 68.3013 118.893 68.1643 118.23C67.3323 114.226 79.3353 99.2106 82.0343 95.4016Z" fill="#FED740"/>
<path d="M62.8813 125.707C62.9463 125.719 63.0144 125.724 63.0784 125.743C63.1334 125.76 64.3584 126.178 64.3644 126.183C65.7364 127.343 73.7804 147.345 75.9614 151.142C72.9814 152.088 70.0834 152.574 66.9924 153.004C61.9244 153.006 57.6874 152.295 52.8394 150.818C55.0094 144.15 59.0353 131.026 62.8813 125.707Z" fill="#FED740"/>
<path d="M96.1873 116.196C96.3223 116.347 96.4993 116.47 96.5943 116.65C99.2103 121.644 94.3223 132.067 92.2823 136.741L79.0063 128.376C75.4653 126.266 71.9653 124.2 68.7003 121.669C77.8873 119.97 87.0503 118.145 96.1873 116.196Z" fill="#FED740"/>
<path d="M31.4863 116.293C37.0053 117.679 51.2373 119.271 55.4473 121.376C56.6283 121.967 56.7203 122.133 57.0483 123.303C55.1853 125.472 51.6453 127.043 49.1463 128.502L35.6673 136.521C32.3373 130.09 31.1083 123.48 31.4863 116.293Z" fill="#FED740"/>
<path d="M66.9004 124.405C72.9474 125.986 85.4943 134.828 91.2433 138.358C89.5453 140.846 87.7904 142.939 85.6544 145.063C83.1854 147.161 80.6234 148.744 77.8024 150.315C74.2254 144.406 67.8894 131.108 66.9004 124.405Z" fill="#FED740"/>
<path d="M59.1844 125.484L59.6984 126.247C57.5984 134.247 53.7514 142.323 50.7884 150.088C48.0024 148.744 45.5214 147.208 42.9694 145.463C40.6294 143.27 38.5784 141.054 36.7034 138.451C43.2474 133.69 51.6564 128.506 59.1844 125.484Z" fill="#FED740"/>
<path d="M60.8013 90.6988C62.9593 90.5778 65.1423 90.6988 67.3033 90.7418C65.6043 98.7808 64.2893 106.933 62.8163 115.019L60.7853 112.108C57.0643 105.962 53.4473 99.7538 49.9353 93.4868C53.5013 92.0998 57.0123 91.2038 60.8013 90.6988Z" fill="#FED740"/>
<path d="M69.5574 90.9316C73.2194 91.8836 76.6814 93.0336 80.2054 94.4126L70.6293 107.877L65.5574 114.743C66.3944 106.745 68.0564 98.8256 69.5574 90.9316Z" fill="#FED740"/>
<path d="M23.0123 109.9C22.5173 112.882 22.1113 115.78 21.9033 118.794C20.1833 143.695 40.8943 162.201 64.8973 162.973C76.2143 163.336 83.6633 160.54 92.0703 152.828L92.9243 154.152C89.1683 158.278 85.1493 161.945 80.1323 164.355C60.1193 173.969 32.9333 163.689 24.0003 143.344C18.5963 131.037 18.5503 122.232 23.0123 109.9Z" fill="url(#paint0_linear_0_1)"/>
<path d="M92.0703 152.828C94.0063 150.534 95.6633 148.517 97.8213 146.422L97.4853 146.682L97.9983 147.491C96.2213 150.086 94.9303 151.735 92.9243 154.152L92.0703 152.828Z" fill="#C78B2E"/>
<path d="M155.344 181.584C136.932 181.734 120.407 170.314 114.037 153.039C107.667 135.764 112.823 116.35 126.925 104.511C141.027 92.6726 161.041 90.9576 176.952 100.223C192.863 109.489 201.248 127.742 197.911 145.85C199.708 151.353 195.709 154.618 198.393 156.139C198.191 161.234 201.059 164.263 204.114 168.049L203.218 168.588L202.587 168.395C200.846 167.438 197.866 165.567 195.982 166.553C189.129 170.139 183.588 174.194 176.53 177.672C173.285 179.457 160.739 183.839 157.315 183.462L157.336 182.61L155.344 181.584Z" fill="#010000"/>
<path d="M197.911 145.85C199.708 151.353 195.709 154.618 198.393 156.139C198.191 161.234 201.059 164.263 204.114 168.049L203.218 168.588L202.587 168.395C200.846 167.438 197.866 165.567 195.982 166.553C189.129 170.139 183.588 174.194 176.53 177.672L175.7 176.358C187.345 170.08 195.513 158.859 197.911 145.85Z" fill="#F7F3EE"/>
<path d="M155.344 181.584C162.453 181.526 169.442 179.732 175.7 176.358L176.53 177.672C173.285 179.457 160.739 183.839 157.315 183.462L157.336 182.61L155.344 181.584Z" fill="#FEE376"/>
<path d="M147.342 96.9347C169.853 92.7847 191.496 107.572 195.814 130.051C200.132 152.53 185.507 174.283 163.061 178.768C140.376 183.301 118.342 168.487 113.979 145.77C109.615 123.053 124.593 101.13 147.342 96.9347Z" fill="#FED740"/>
<path d="M150.91 103.008C163.341 101.593 175.574 106.964 182.944 117.074C190.315 127.183 191.686 140.473 186.536 151.875C181.385 163.277 170.506 171.033 158.048 172.186C139.067 173.942 122.211 160.09 120.254 141.129C118.297 122.168 131.97 105.165 150.91 103.008Z" fill="#010000"/>
<path d="M122.528 128.566C125.941 120.374 130.249 115.594 137.283 110.411C142.504 118.375 147.943 127.051 154.106 134.225C156.588 134.567 156.002 134.133 157.679 135.538C158.334 137.315 158.258 136.412 157.785 138.349C156.61 139.705 156.739 139.738 155.05 140.24C153.164 139.734 153.953 140.229 152.7 138.553C152.494 137.177 152.447 137.196 152.669 135.841C142.594 133.601 132.652 130.837 122.528 128.566Z" fill="#FED740"/>
<path d="M172.508 109.755C172.66 109.82 172.82 109.87 172.965 109.949C179.821 113.695 184.859 122.317 187.142 129.522C181.972 130.47 176.807 131.448 171.648 132.456C168.426 133.201 165.175 134.062 161.92 134.638C160.772 134.841 159.3 135.227 158.332 134.542C159.154 129.178 169.104 114.787 172.508 109.755Z" fill="#FED740"/>
<path d="M154.309 142.194L155.861 142.796C160.031 147.139 164.367 161.902 166.554 167.969C162.745 169.262 159.109 169.706 155.126 170.016C150.708 169.742 146.484 169.038 142.182 168.016C145.856 159.268 150.124 150.709 154.309 142.194Z" fill="#FED740"/>
<path d="M121.879 130.165C131.608 133.009 141.511 135.368 151.371 137.71C148.384 139.911 145.202 141.896 142.11 143.95C136.824 147.245 131.434 150.283 125.974 153.278C122.645 145.634 121.069 138.511 121.879 130.165Z" fill="#FED740"/>
<path d="M185.315 132.201C186.189 132.095 186.397 132.142 187.198 132.4C187.293 132.591 187.406 132.773 187.482 132.971C189.342 137.874 186.12 146.858 184.364 151.55C179.717 149.267 175.096 146.933 170.501 144.548C166.785 142.498 162.915 140.564 159.557 137.953C167.627 135.115 176.866 133.512 185.315 132.201Z" fill="#FED740"/>
<path d="M158.248 140.642C164.288 142.502 176.829 150.278 183.223 153.477C181.533 156.341 179.543 158.518 177.236 160.879C174.504 163.32 171.609 165.235 168.469 167.106C165.342 158.163 161.813 149.416 158.248 140.642Z" fill="#FED740"/>
<path d="M151.193 105.178C153.216 105.022 155.233 105.2 157.458 105.254C157.081 113.897 156.012 122.686 154.857 131.451C153.634 130.109 152.502 128.682 151.346 127.283C147.122 121.42 143.238 115.268 139.496 109.09C143.717 107.101 147.61 105.821 152.241 105.178Z" fill="#FED740"/>
<path d="M151.193 140.923L151.955 141.141C151.95 144.436 142.289 162.582 140.453 167.307C137.936 166.033 135.69 164.623 133.383 163.004C130.779 160.661 128.945 158.137 127.159 155.164C135.32 150.716 143.254 145.755 151.193 140.923Z" fill="#FED740"/>
<path d="M161.156 105.575C164.369 106.375 167.486 107.495 170.618 108.561C167.608 113.824 164.326 118.96 161.288 124.218C159.966 126.444 158.529 128.607 157.134 130.788C157.639 122.249 159.176 113.881 161.156 105.575Z" fill="#FED740"/>
<path d="M195.091 31.1186C194.43 56.1756 181.93 80.3156 155.564 85.1856C150.613 86.0996 146.644 86.2776 141.815 87.8126L141.044 88.0516C139.641 88.4926 140.196 88.4936 138.773 88.2136C138.693 87.0016 138.86 87.4186 138.29 86.4226C133.37 86.5096 127.484 87.2986 122.709 85.7396C108.705 81.2056 97.1624 67.8176 94.0184 53.4926C90.0394 35.3676 100.384 14.4892 116.461 5.74373C127.541 -0.189969 140.492 -1.58947 152.584 1.84033C150.29 9.84783 146.248 31.8026 143.42 38.0186L142.453 38.3376C140.667 39.2236 140.748 38.8466 139.842 40.2796C140.151 41.7556 140.197 41.6466 141.307 42.7096C144.923 45.0996 145.759 51.9516 146.654 56.1786C158.881 36.1626 172.096 31.6246 195.091 31.1186Z" fill="#010000"/>
<path d="M114.185 58.6296C117.211 56.7246 136.597 44.3026 138.412 42.3006C138.929 40.2786 138.873 41.3256 138.167 39.0496C139.005 38.3156 141.077 38.4346 142.453 38.3376C140.667 39.2236 140.748 38.8466 139.842 40.2796C140.151 41.7556 140.197 41.6466 141.307 42.7096C134.863 48.7536 131.38 61.8216 128.612 70.2006C121.814 66.7646 119.082 64.4396 114.185 58.6296Z" fill="#FED740"/>
<path d="M135.016 2.18567C137.124 1.89037 139.357 1.94897 141.483 1.95267C144.23 1.95757 148.285 1.79448 150.297 3.79648C149.92 5.31748 149.604 6.03227 148.052 6.71477C145.874 7.67307 142.157 7.39117 139.76 7.77157C132.875 8.86417 125.361 12.263 119.46 15.8929C112.78 20.0014 106.366 26.6687 104.667 34.5447C103.09 41.8527 105.581 50.3217 109.585 56.4977C115.456 65.6187 124.761 71.9817 135.389 74.1457C136.825 74.3307 138.096 74.3507 139.247 75.3257C139.952 76.9147 139.059 79.2527 138.686 80.8967C129.614 81.2767 120.692 78.4907 113.448 73.0167C104.815 66.4737 100.264 57.0907 98.8734 46.4927C97.5244 36.2097 98.4394 26.5397 104.932 18.1273C112.37 8.49217 123.189 3.78497 135.016 2.18567Z" fill="#FED740"/>
<path d="M106.58 34.3418C116.451 35.9558 126.451 38.8668 136.158 41.3078C132.955 43.4678 129.857 45.7978 126.733 48.0708C122.121 51.3298 117.217 54.2068 112.418 57.1818C107.704 50.2498 105.48 42.7238 106.58 34.3418Z" fill="#FED740"/>
<path d="M120.075 17.9053C124.232 18.8427 134.285 34.9867 136.969 39.1727L127.18 36.9067C120.541 35.5397 113.826 34.0537 107.354 32.0337C110.222 25.6797 114.491 21.8015 120.075 17.9053Z" fill="#FED740"/>
<path d="M165.141 39.5007L165.606 40.0677C166.337 46.6007 165.065 53.7877 163.469 60.1147C161.738 61.9687 154.744 70.5277 152.787 70.7707C151.732 65.1387 151.543 59.4487 150.569 53.8187C154.721 47.3957 158.801 43.7547 165.141 39.5007Z" fill="#188B73"/>
<path d="M144.231 9.21828L148.911 8.92358C147.557 15.028 144.555 31.9588 141.63 36.4678L140.832 36.6118L140.256 35.7788C136.688 28.2028 134.648 19.9617 132.587 11.8764C136.454 10.3918 140.131 9.64618 144.231 9.21828Z" fill="#FED740"/>
<path d="M166.314 61.2857C172.328 60.2537 178.614 61.5347 184.523 62.7067C183.472 64.3667 182.429 66.0577 181.259 67.6357C179.795 69.6107 178.086 71.8967 175.52 72.2867C168.907 71.5567 162.495 71.2857 155.845 71.5897C159.246 68.0747 162.58 64.4517 166.314 61.2857Z" fill="#188B73"/>
<path d="M141.431 45.8508C143.77 48.6998 144.617 55.1888 145.547 58.8168C143.385 63.2088 141.931 67.9678 140.491 72.6318C138.655 72.5518 136.833 72.1798 135.022 71.8758L130.554 70.9148C133.242 62.8508 136.002 52.4488 141.431 45.8508Z" fill="#FED740"/>
<path d="M157.927 73.1747C163.439 73.0167 169.307 73.7727 174.814 74.2007C169.981 78.2057 164.119 80.7307 158.199 82.6407C153.214 83.7987 148.131 84.4807 143.017 84.6767C147.856 78.6537 150.098 75.1697 157.927 73.1747Z" fill="#138573"/>
<path d="M96.1124 36.4778C96.4734 40.7368 96.5294 44.9768 97.2904 49.1988C100.429 66.6108 112.222 78.3138 129.329 82.2688C132.008 82.8888 136.207 82.1038 138.435 83.6378L138.139 84.5648C133.613 85.3628 128.748 85.2428 124.307 84.0668C114.353 81.4308 105.761 73.7808 100.668 65.0038C95.6493 56.3538 93.4534 46.2588 96.1124 36.4778Z" fill="#FED740"/>
<path d="M176.507 35.0457C177.009 35.0267 177.635 35.1217 178.14 35.1627C179.446 37.8667 177.572 44.0137 176.996 46.9947C173.814 50.1307 170.682 53.3187 167.602 56.5547C167.258 56.9227 166.865 57.1057 166.431 57.3547C166.899 50.8407 167.853 44.8397 167.613 38.2207C170.537 36.9307 173.445 35.9547 176.507 35.0457Z" fill="#188B73"/>
<path d="M176.239 50.3147C180.331 51.4207 185.478 50.9987 189.736 51.1137C188.799 53.8807 187.915 57.9897 185.738 60.0177C185.018 60.6897 184.082 60.4417 183.146 60.4427C178.233 59.6077 173.264 59.0037 168.278 58.9517C170.842 55.9907 173.497 53.1107 176.239 50.3147Z" fill="#188B73"/>
<path d="M148.486 57.3848C149.951 59.5808 149.847 69.7658 150.026 73.1158C147.239 75.8338 144.795 79.1428 142.09 81.9988L141.809 82.2078L141.245 81.9748C140.067 75.7388 145.802 63.2238 148.486 57.3848Z" fill="#188B73"/>
<path d="M129.743 12.9832L130.177 13.1505C131.827 15.0561 135.48 30.4967 136.792 34.5117L133.5 30.2387C129.933 25.4717 126.384 20.8531 122.203 16.5956C124.647 15.2667 127.221 14.1552 129.743 12.9832Z" fill="#FED740"/>
<path d="M192.569 35.4358C193.359 39.8338 191.529 45.5138 190.155 49.6668C186.833 48.7988 183.693 48.3968 180.269 48.3258L179.645 48.2488C183.986 43.9668 187.943 39.4278 192.569 35.4358Z" fill="#188B73"/>
<path d="M189.558 33.2656C190.025 33.1676 189.705 33.2036 190.518 33.3796C189.703 35.7786 182.715 41.6876 180.59 43.9126L180.282 44.1646L179.84 43.8736C179.939 40.6446 180.289 37.4286 180.584 34.2126L189.558 33.2656Z" fill="#188B73"/>
<path d="M27.3743 25.0027C44.5523 25.9757 67.3892 28.0507 80.0032 41.0167C87.3362 48.5557 91.1492 60.4107 90.9312 70.7947C90.7382 70.7597 90.5453 70.7217 90.3513 70.6897L89.3802 70.5357C85.3382 69.8577 81.2392 70.0827 77.1512 70.0777C64.6372 70.0627 54.4213 68.3937 44.9503 59.5907C36.4343 51.6757 27.8103 36.7967 27.3743 25.0027Z" fill="#010000"/>
<path d="M55.6953 49.7437C63.0503 49.7637 66.4853 52.1026 71.8723 56.7846C66.3673 58.0726 60.8903 58.4517 55.2523 58.6397L47.6563 59.0407C44.4433 56.3747 41.7563 53.4987 39.3983 50.0527C44.8443 50.0637 50.2543 50.0227 55.6953 49.7437Z" fill="#188B73"/>
<path d="M75.3093 58.7437C78.2333 60.1867 82.8013 65.4627 85.5473 67.8657C77.4953 68.1827 69.3363 68.4107 61.4093 66.7377C57.2643 65.4417 53.4293 63.2667 49.6033 61.2467C58.1573 60.5917 66.8713 60.3267 75.3093 58.7437Z" fill="#188B73"/>
<path d="M64.6873 33.7017C68.2823 35.0667 71.5453 37.0207 74.8613 38.9437C75.6643 44.6027 75.0783 50.2327 74.6353 55.8937C72.4543 54.4047 70.1832 52.9577 68.0952 51.3417C64.0812 48.2347 65.5553 44.6777 65.3823 40.2857C65.2953 38.0937 64.9703 35.8767 64.6873 33.7017Z" fill="#188B73"/>
<path d="M49.8184 29.7446C54.1554 30.3946 58.3294 31.6656 62.5104 32.9536C63.6244 37.5086 63.9464 42.7296 63.4684 47.3866C60.8344 47.7876 53.3764 41.0376 50.7634 39.3196C50.1654 36.1676 50.0434 32.9386 49.8184 29.7446Z" fill="#188B73"/>
<path d="M40.9542 38.7298C48.2022 38.6678 53.5193 43.6118 59.0883 47.6688C56.5083 47.7298 53.9222 47.8748 51.3422 47.9818L38.1063 48.1018C36.3683 45.1538 34.9152 42.2298 33.5732 39.0818L40.9542 38.7298Z" fill="#188B73"/>
<path d="M77.5414 41.7217C77.9354 42.0557 78.3343 42.3867 78.7073 42.7457C84.8283 48.6497 88.6703 59.6737 88.9073 68.0167C84.7773 64.8817 81.1584 60.6877 77.4224 57.0657C77.8684 51.9537 77.7204 46.8397 77.5414 41.7217Z" fill="#188B73"/>
<path d="M33.0212 27.5977C38.1262 27.9497 43.1762 28.7267 48.2372 29.4517L48.2863 37.0437C43.3003 33.7417 38.0222 30.8977 33.0212 27.5977Z" fill="#138573"/>
<path d="M29.4293 27.8806C33.9443 30.3576 38.8533 33.6866 43.0173 36.7636C40.1643 36.9326 35.9383 37.7026 33.3793 36.2656C30.5713 34.6886 30.1483 30.7326 29.4293 27.8806Z" fill="#138573"/>
<defs>
<linearGradient id="paint0_linear_0_1" x1="62.1019" y1="128.466" x2="37.3159" y2="158.398" gradientUnits="userSpaceOnUse">
<stop stop-color="#F4B31E"/>
<stop offset="1" stop-color="#FFD938"/>
</linearGradient>
</defs>
</svg>
